# This file uses centimeters as units for non-parametric coordinates.

mtllib BackOuter.mtl
g default
v 13.722174 -3.165105 -138.529451
v 13.722174 -3.165105 -91.632032
v 13.722174 -3.165105 138.529451
v 13.722174 -3.165105 86.105393
v -13.722174 -4.049309 147.271762
v -13.722174 -4.049309 -147.271762
v -13.722174 -4.049309 91.539330
v -13.722174 -4.049309 -97.414735
v -13.722174 3.165104 147.271762
v -13.722174 4.049309 147.271762
v -13.722174 4.049309 -147.271762
v -13.722174 3.165104 -147.271762
v -13.722174 4.049309 91.539330
v -13.722174 3.165104 91.539330
v -13.722174 4.049309 -97.414735
v -13.722174 3.165104 -97.414735
v 13.722174 4.049309 138.529451
v 13.722174 4.049309 -138.529451
v 13.722174 4.049309 86.105393
v 13.722174 4.049309 -91.632032
vt 1.381702 0.191076
vt 1.569604 0.191076
vt 1.569604 0.828112
vt 1.381702 0.828112
vt 1.569604 0.996201
vt 1.381702 0.996201
vt 1.381702 0.003174
vt 1.569604 0.003174
vt 1.569604 0.191076
vt 1.569604 0.828112
vt 1.569604 0.996201
vt 1.569604 0.003174
vt 1.381702 0.828112
vt 1.381702 0.191076
vt 1.381702 0.996201
vt 1.381702 0.003174
vt 1.569604 0.191076
vt 1.569604 0.828112
vt 1.569604 0.996201
vt 1.569604 0.003174
vn -1.000000 0.000000 0.000000
vn -1.000000 0.000000 0.000000
vn -1.000000 0.000000 0.000000
vn -1.000000 0.000000 0.000000
vn -1.000000 0.000000 0.000000
vn -1.000000 0.000000 0.000000
vn -1.000000 0.000000 0.000000
vn -1.000000 0.000000 0.000000
vn -1.000000 0.000000 0.000000
vn -1.000000 0.000000 0.000000
vn 0.000000 1.000000 0.000000
vn 0.000000 1.000000 0.000000
vn 0.000000 1.000000 0.000000
vn 0.000000 1.000000 0.000000
vn 0.000000 1.000000 0.000000
vn 0.000000 1.000000 0.000000
vn 0.000000 1.000000 0.000000
vn 0.000000 1.000000 0.000000
vn 0.000000 1.000000 0.000000
vn 0.000000 1.000000 0.000000
vn 0.000000 1.000000 0.000000
vn 0.000000 1.000000 0.000000
vn -1.000000 0.000000 0.000000
vn -1.000000 0.000000 0.000000
vn -1.000000 0.000000 0.000000
vn -1.000000 0.000000 0.000000
vn -1.000000 0.000000 0.000000
vn -1.000000 0.000000 0.000000
vn -1.000000 0.000000 0.000000
vn -1.000000 0.000000 0.000000
vn -1.000000 0.000000 0.000000
vn -1.000000 0.000000 0.000000
vn -1.000000 0.000000 0.000000
vn -1.000000 0.000000 0.000000
vn 1.000000 0.000000 0.000000
vn 1.000000 0.000000 0.000000
vn 1.000000 0.000000 0.000000
vn 1.000000 0.000000 0.000000
vn 1.000000 0.000000 0.000000
vn 1.000000 0.000000 0.000000
vn 1.000000 0.000000 0.000000
vn 1.000000 0.000000 0.000000
vn 1.000000 0.000000 0.000000
vn 1.000000 0.000000 0.000000
vn 1.000000 0.000000 0.000000
vn 1.000000 0.000000 0.000000
s 1
g BackOuter BackOuter polySurface69 polySurface66 polySurface61 pCube14
usemtl initialShadingGroup
f 14/1/1 13/2/2 15/3/3 16/4/4
f 16/4/4 15/3/3 11/5/5 12/6/6
s off
f 9/7/7 10/8/8 13/2/9 14/1/10
f 19/9/11 20/10/12 15/3/13 13/2/14
f 20/10/15 18/11/16 11/5/17 15/3/18
f 17/12/19 19/9/20 13/2/21 10/8/22
f 8/13/23 7/14/24 14/1/25 16/4/26
f 6/15/27 8/13/28 16/4/29 12/6/30
f 7/14/31 5/16/32 9/7/33 14/1/34
f 4/17/35 2/18/36 20/10/37 19/9/38
f 2/18/39 1/19/40 18/11/41 20/10/42
f 3/20/43 4/17/44 19/9/45 17/12/46
