# This file uses centimeters as units for non-parametric coordinates.

mtllib bigobstacle.mtl
g default
v -3.449647 2.582414 23.442715
v -1.724995 2.582414 25.167366
v -1.724995 4.307064 23.442715
v 1.724995 4.307064 23.442715
v 1.724995 2.582414 25.167366
v 3.449647 2.582414 23.442715
v -3.449647 2.582414 -23.442717
v -1.724995 4.307064 -23.442717
v -1.724995 2.582414 -25.167368
v 1.724995 2.582414 -25.167368
v 1.724995 4.307064 -23.442717
v 3.449647 2.582414 -23.442717
v -1.724995 -4.307065 25.167366
v -3.449647 -4.307065 23.442715
v 3.449647 -4.307065 23.442715
v 1.724995 -4.307065 25.167366
v -3.449647 -4.307065 -23.442717
v -1.724995 -4.307065 -25.167368
v 1.724995 -4.307065 -25.167368
v 3.449647 -4.307065 -23.442717
vt 0.375000 0.258566
vt 0.375000 0.491434
vt 0.366434 0.199947
vt 0.366434 0.000000
vt 0.437494 0.199947
vt 0.625000 0.258566
vt 0.562506 0.199947
vt 0.562506 0.000000
vt 0.375000 0.550053
vt 0.437494 0.750000
vt 0.375000 0.750000
vt 0.437494 0.491434
vt 0.562506 0.491434
vt 0.625000 0.550053
vt 0.625000 0.750000
vt 0.437494 0.000000
vt 0.437494 0.258566
vt 0.562506 0.258566
vt 0.437494 0.550053
vt 0.562506 0.550053
vt 0.562506 0.750000
vt 0.633566 0.199947
vt 0.633566 0.000000
vt 0.866434 0.000000
vt 0.866434 0.199947
vt 0.133566 0.199947
vt 0.133566 0.000000
vt 0.625000 0.491434
vn -0.707106 0.707107 0.000000
vn -0.707106 0.707107 0.000000
vn -0.707106 0.707107 0.000000
vn -0.707106 0.707107 0.000000
vn -0.707106 0.000000 0.707107
vn -0.707106 0.000000 0.707107
vn -0.707106 0.000000 0.707107
vn -0.707106 0.000000 0.707107
vn 0.000000 0.707107 0.707107
vn 0.000000 0.707107 0.707107
vn 0.000000 0.707107 0.707107
vn 0.000000 0.707107 0.707107
vn 0.707106 0.707107 0.000000
vn 0.707106 0.707107 0.000000
vn 0.707106 0.707107 0.000000
vn 0.707106 0.707107 0.000000
vn 0.707106 0.000000 0.707107
vn 0.707106 0.000000 0.707107
vn 0.707106 0.000000 0.707107
vn 0.707106 0.000000 0.707107
vn -0.707106 0.000000 -0.707107
vn -0.707106 0.000000 -0.707107
vn -0.707106 0.000000 -0.707107
vn -0.707106 0.000000 -0.707107
vn 0.000000 0.707107 -0.707107
vn 0.000000 0.707107 -0.707107
vn 0.000000 0.707107 -0.707107
vn 0.000000 0.707107 -0.707107
vn 0.707106 0.000000 -0.707107
vn 0.707106 0.000000 -0.707107
vn 0.707106 0.000000 -0.707107
vn 0.707106 0.000000 -0.707107
vn 0.000000 0.000000 1.000000
vn 0.000000 0.000000 1.000000
vn 0.000000 0.000000 1.000000
vn 0.000000 0.000000 1.000000
vn 0.000000 1.000000 0.000000
vn 0.000000 1.000000 0.000000
vn 0.000000 1.000000 0.000000
vn 0.000000 1.000000 0.000000
vn 0.000000 0.000000 -1.000000
vn 0.000000 0.000000 -1.000000
vn 0.000000 0.000000 -1.000000
vn 0.000000 0.000000 -1.000000
vn 1.000000 0.000000 0.000000
vn 1.000000 0.000000 0.000000
vn 1.000000 0.000000 0.000000
vn 1.000000 0.000000 0.000000
vn -1.000000 0.000000 0.000000
vn -1.000000 0.000000 0.000000
vn -1.000000 0.000000 0.000000
vn -1.000000 0.000000 0.000000
vn -0.577350 0.577351 0.577350
vn -0.577350 0.577351 0.577350
vn -0.577350 0.577351 0.577350
vn 0.577350 0.577351 0.577350
vn 0.577350 0.577351 0.577350
vn 0.577350 0.577351 0.577350
vn -0.577351 0.577350 -0.577350
vn -0.577350 0.577350 -0.577350
vn -0.577351 0.577350 -0.577350
vn 0.577351 0.577350 -0.577350
vn 0.577350 0.577350 -0.577350
vn 0.577351 0.577350 -0.577350
s off
g pCube16
usemtl initialShadingGroup
f 1/1/1 3/17/2 8/12/3 7/2/4
f 2/5/5 1/3/6 14/4/7 13/16/8
f 3/17/9 2/5/10 5/7/11 4/18/12
f 4/18/13 6/6/14 12/28/15 11/13/16
f 6/22/17 5/7/18 16/8/19 15/23/20
f 7/9/21 9/19/22 18/10/23 17/11/24
f 9/19/25 8/12/26 11/13/27 10/20/28
f 10/20/29 12/14/30 20/15/31 19/21/32
f 2/5/33 13/16/34 16/8/35 5/7/36
f 3/17/37 4/18/38 11/13/39 8/12/40
f 9/19/41 10/20/42 19/21/43 18/10/44
f 6/22/45 15/23/46 20/24/47 12/25/48
f 7/26/49 17/27/50 14/4/51 1/3/52
f 1/3/53 2/5/54 3/17/55
f 4/18/56 5/7/57 6/22/58
f 7/2/59 8/12/60 9/19/61
f 10/20/62 11/13/63 12/28/64
