# This file uses centimeters as units for non-parametric coordinates.

mtllib FrontBarrier.mtl
g default
v -13.722174 -3.165105 86.105393
v -13.722174 -3.165105 -138.529451
v -13.722174 -3.165105 -91.632032
v 13.722174 -4.049309 91.539330
v 13.722174 -4.049309 -147.271762
v 13.722174 -4.049309 -97.414735
v 13.722174 3.165104 91.539330
v 13.722174 4.049309 91.539330
v 13.722174 4.049309 -147.271762
v 13.722174 3.165104 -147.271762
v 13.722174 3.165104 -97.414735
v 13.722174 4.049309 -97.414735
v -13.722174 4.049309 86.105393
v -13.722174 4.049309 -138.529451
v -13.722174 4.049309 -91.632032
v 13.722174 3.165104 147.271762
v 13.722174 4.049309 147.271762
v 13.722174 -4.049309 147.271762
v -13.722174 -3.165105 138.529451
v -13.722174 4.049309 138.529451
vt 1.381311 0.003174
vt 1.381311 0.191057
vt 1.569194 0.191057
vt 1.569194 0.003174
vt 1.381311 0.828112
vt 1.569194 0.828112
vt 1.381311 0.996201
vt 1.569194 0.996201
vt 1.569194 0.191057
vt 1.569194 0.003174
vt 1.569194 0.828112
vt 1.569194 0.996201
vt 1.381311 0.003174
vt 1.381311 0.191057
vt 1.381311 0.828112
vt 1.381311 0.996201
vt 1.569194 0.191057
vt 1.569194 0.003174
vt 1.569194 0.828112
vt 1.569194 0.996201
vn 1.000000 0.000000 0.000000
vn 1.000000 0.000000 0.000000
vn 1.000000 0.000000 0.000000
vn 1.000000 0.000000 0.000000
vn 1.000000 0.000000 0.000000
vn 1.000000 0.000000 0.000000
vn 1.000000 0.000000 0.000000
vn 1.000000 0.000000 0.000000
vn 0.000000 1.000000 0.000000
vn 0.000000 1.000000 0.000000
vn 0.000000 1.000000 0.000000
vn 0.000000 1.000000 0.000000
vn 0.000000 1.000000 0.000000
vn 0.000000 1.000000 0.000000
vn 0.000000 1.000000 0.000000
vn 0.000000 1.000000 0.000000
vn 0.000000 1.000000 0.000000
vn 0.000000 1.000000 0.000000
vn 0.000000 1.000000 0.000000
vn 0.000000 1.000000 0.000000
vn 1.000000 0.000000 0.000000
vn 1.000000 0.000000 0.000000
vn 1.000000 0.000000 0.000000
vn 1.000000 0.000000 0.000000
vn 1.000000 0.000000 0.000000
vn 1.000000 0.000000 0.000000
vn 1.000000 0.000000 0.000000
vn 1.000000 0.000000 0.000000
vn 1.000000 0.000000 0.000000
vn 1.000000 0.000000 0.000000
vn 1.000000 0.000000 0.000000
vn 1.000000 0.000000 0.000000
vn -1.000000 0.000000 0.000000
vn -1.000000 0.000000 0.000000
vn -1.000000 0.000000 0.000000
vn -1.000000 0.000000 0.000000
vn -1.000000 0.000000 0.000000
vn -1.000000 0.000000 0.000000
vn -1.000000 0.000000 0.000000
vn -1.000000 0.000000 0.000000
vn -1.000000 0.000000 0.000000
vn -1.000000 0.000000 0.000000
vn -1.000000 0.000000 0.000000
vn -1.000000 0.000000 0.000000
s 1
g polySurface84 FrontOuter polySurface69 polySurface66 polySurface61 pCube14
usemtl initialShadingGroup
f 16/1/1 7/2/2 8/3/3 17/4/4
f 8/3/3 7/2/2 11/5/5 12/6/6
f 12/6/6 11/5/5 10/7/7 9/8/8
s off
f 13/9/9 20/10/10 17/4/11 8/3/12
f 15/11/13 13/9/14 8/3/15 12/6/16
f 14/12/17 15/11/18 12/6/19 9/8/20
f 18/13/21 4/14/22 7/2/23 16/1/24
f 4/14/25 6/15/26 11/5/27 7/2/28
f 6/15/29 5/16/30 10/7/31 11/5/32
f 1/17/33 19/18/34 20/10/35 13/9/36
f 3/19/37 1/17/38 13/9/39 15/11/40
f 2/20/41 3/19/42 15/11/43 14/12/44
