# This file uses centimeters as units for non-parametric coordinates.

mtllib Garage.mtl
g default
v -8.021103 -2.233917 7.900579
v 7.706826 -2.233917 7.900579
v -8.021103 2.087829 7.850076
v 7.706826 2.087829 7.850076
v -8.021103 2.586073 -9.895194
v 7.706826 2.586073 -9.895194
v -8.021103 -2.233917 -9.895194
v 7.706826 -2.233917 -9.895194
v -8.633649 2.772478 7.643798
v 8.633649 2.772478 7.643798
v 8.633649 2.772478 -11.781946
v -8.633649 2.772478 -11.781946
v 8.633649 -2.772478 -11.781946
v -8.633649 -2.772478 -11.781946
v 8.633649 -2.772478 11.781946
v -8.633649 -2.772478 11.781946
v 7.706826 2.094521 7.621978
v 7.706826 -2.233917 7.644109
v -8.021103 -2.233917 7.644109
v -8.021103 2.094521 7.621978
vt 0.487989 0.553994
vt 0.491307 0.877960
vt 0.073730 0.879915
vt 0.070412 0.555949
vt 0.071744 0.115735
vt 0.442923 0.113997
vt 0.443989 0.218030
vt 0.072810 0.219768
vt 0.952819 -0.003426
vt 0.956137 0.320540
vt 0.449605 0.322911
vt 0.446288 -0.001054
vt 0.449680 0.330166
vt 0.956211 0.327795
vt 0.957277 0.431828
vt 0.539699 0.433783
vt 0.450810 0.440509
vt 0.957341 0.438137
vt 0.869453 0.542587
vt 0.451875 0.544542
vt 0.079139 0.237326
vt 0.084042 0.237303
vt 0.087064 0.532387
vt 0.082161 0.532410
vt 0.104772 0.109486
vt 0.103846 0.019054
vt 0.441935 0.017471
vt 0.442861 0.107903
vt 0.853217 0.560465
vt 0.858731 0.560440
vt 0.861752 0.855524
vt 0.856239 0.855550
vt 0.862106 0.890079
vt 0.861851 0.971168
vt 0.856949 0.971316
vt 0.856593 0.890105
vt 0.130870 0.895846
vt 0.132178 0.977054
vt 0.127273 0.976951
vt 0.125357 0.895872
vt 0.070349 0.549855
vt 0.067031 0.225889
vt 0.958471 0.548480
vt 0.961789 0.872445
vt 0.961861 0.879507
vt 0.873973 0.983957
vt 0.115415 0.989852
vt 0.025396 0.886235
vt 0.496917 0.982225
vt 0.495991 0.891793
vt 0.492615 0.562153
vt 0.495637 0.857238
vt 0.491473 0.894158
vt 0.492399 0.984590
vt 0.444169 0.235617
vt 0.447191 0.530701
vn 0.000000 1.000000 0.000000
vn 0.000000 1.000000 0.000000
vn 0.000000 1.000000 0.000000
vn 0.000000 1.000000 0.000000
vn 0.000000 0.000000 -1.000000
vn 0.000000 0.000000 -1.000000
vn 0.000000 0.000000 -1.000000
vn 0.000000 0.000000 -1.000000
vn 0.000000 -1.000000 0.000000
vn 0.000000 -1.000000 0.000000
vn 0.000000 -1.000000 0.000000
vn 0.000000 -1.000000 0.000000
vn 1.000000 -0.000000 0.000000
vn 1.000000 -0.000000 0.000000
vn 1.000000 -0.000000 0.000000
vn 1.000000 -0.000000 0.000000
vn -1.000000 0.000000 0.000000
vn -1.000000 0.000000 0.000000
vn -1.000000 0.000000 0.000000
vn -1.000000 0.000000 0.000000
vn 0.000000 -0.999570 -0.029327
vn 0.000000 -0.999606 -0.028067
vn 0.000000 -0.999606 -0.028067
vn 0.000000 -0.999570 -0.029327
vn 0.000000 0.000000 1.000000
vn 0.000000 0.000000 1.000000
vn 0.000000 0.000000 1.000000
vn 0.000000 0.000000 1.000000
vn 0.000000 1.000000 0.000000
vn 0.000000 1.000000 0.000000
vn 0.000000 1.000000 0.000000
vn 0.000000 1.000000 0.000000
vn -1.000000 0.000000 0.000000
vn -1.000000 0.000000 0.000000
vn -1.000000 0.000000 0.000000
vn -1.000000 0.000000 0.000000
vn 1.000000 0.000000 0.000000
vn 1.000000 0.000000 0.000000
vn 1.000000 0.000000 0.000000
vn 1.000000 0.000000 0.000000
vn 0.000000 0.288480 0.957486
vn 0.000000 0.288480 0.957486
vn 0.000000 0.288480 0.957486
vn 0.000000 0.288480 0.957486
vn 0.000000 0.990510 0.137439
vn 0.000000 0.990510 0.137439
vn 0.000000 0.990510 0.137439
vn 0.000000 0.990510 0.137439
vn -0.880326 0.185368 0.436651
vn -0.880326 0.185368 0.436651
vn -0.880326 0.185368 0.436651
vn -0.880326 0.185368 0.436651
vn 0.942042 0.131101 0.308818
vn 0.942042 0.131101 0.308818
vn 0.942042 0.131101 0.308818
vn 0.942042 0.131101 0.308818
vn -1.000000 0.000000 0.000000
vn -1.000000 0.000000 0.000000
vn 0.000000 1.000000 0.000000
vn 0.000000 1.000000 0.000000
vn 1.000000 0.000000 0.000000
vn 1.000000 0.000000 0.000000
vn 0.000000 -0.999607 -0.028050
vn 0.000000 -0.999607 -0.028050
s off
g polySurface5
usemtl lambert4SG
f 9/1/1 10/2/2 11/3/3 12/4/4
f 12/5/5 11/6/6 13/7/7 14/8/8
f 14/9/9 13/10/10 15/11/11 16/12/12
f 15/13/13 13/14/14 11/15/15 10/16/16
f 14/17/17 16/18/18 9/19/19 12/20/20
s 1
f 3/21/21 20/22/22 17/23/23 4/24/24
s off
f 5/25/25 7/26/26 8/27/27 6/28/28
s 2
f 19/29/29 1/30/30 2/31/31 18/32/32
s 3
f 2/33/33 4/34/34 17/35/35 18/36/36
s 4
f 19/37/37 20/38/38 3/39/39 1/40/40
s off
f 3/21/41 4/24/42 10/41/43 9/42/44
f 2/31/45 1/30/46 16/43/47 15/44/48
f 4/34/49 2/33/50 15/45/51 10/46/52
f 1/40/53 3/39/54 9/47/55 16/48/56
s 3
f 18/36/36 17/35/35 6/49/57 8/50/58
s 2
f 7/51/59 19/29/29 18/32/32 8/52/60
s 4
f 7/53/61 5/54/62 20/38/38 19/37/37
s 1
f 17/23/23 20/22/22 5/55/63 6/56/64
