# This file uses centimeters as units for non-parametric coordinates.

mtllib human_leftthigh.mtl
g default
v -0.004739 -0.017827 -0.265522
v 0.116041 -0.014872 -0.246997
v 0.214256 -0.004346 -0.144435
v 0.206783 0.018934 -0.140362
v 0.262943 0.037190 -0.023624
v 0.109880 0.041519 -0.233195
v -0.001071 0.039612 -0.250481
v 0.116586 -0.148240 -0.241367
v -0.003693 -0.135005 -0.246522
v 0.231092 -0.096902 -0.164276
v 0.284816 -0.044079 -0.011975
v 0.198488 -0.078455 0.107329
v 0.084308 -0.104206 0.135444
v -0.031941 -0.118230 0.119815
v -0.027596 -0.171355 0.071528
v -0.006904 -0.173755 0.076833
v -0.025438 -0.194553 -0.024425
v -0.011067 -0.203251 -0.020654
v -0.021683 -0.172319 -0.141187
v -0.002916 -0.175164 -0.141714
v 0.242560 -0.259523 -0.166705
v 0.126245 -0.273146 -0.191192
v 0.308790 -0.251777 -0.024386
v 0.263227 -0.261183 0.106612
v 0.139570 -0.279368 0.132801
v 0.047113 -0.291631 0.073952
v 0.008297 -0.303138 -0.017838
v 0.046334 -0.292604 -0.124250
v 0.268446 -0.550768 -0.167411
v 0.149184 -0.566293 -0.194573
v 0.317250 -0.547620 -0.052096
v 0.284806 -0.540559 0.057425
v 0.184315 -0.560961 0.104018
v 0.113570 -0.567436 0.063277
v 0.047421 -0.591337 -0.020457
v 0.066389 -0.580870 -0.133413
v 0.270483 -0.614388 -0.176117
v 0.157691 -0.631583 -0.194890
v 0.334341 -0.628776 -0.063354
v 0.282259 -0.637833 0.036872
v 0.189546 -0.643075 0.087311
v 0.123358 -0.644576 0.035326
v 0.061087 -0.648558 -0.038412
v 0.084992 -0.631708 -0.139178
v 0.256101 -0.398658 -0.162877
v 0.139796 -0.412403 -0.191024
v 0.319837 -0.391932 -0.033766
v 0.276046 -0.401278 0.093690
v 0.165763 -0.417177 0.125200
v 0.076943 -0.428669 0.076132
v 0.029127 -0.441200 -0.019027
v 0.056817 -0.428354 -0.128842
v 0.164414 0.003115 0.043665
v 0.096173 0.028798 0.102588
v -0.032581 0.027177 0.099386
vt 0.406551 0.113821
vt 0.407941 0.113902
vt 0.409366 0.121328
vt 0.405599 0.106678
vt 0.408981 0.107251
vt 0.395585 0.047802
vt 0.395187 0.041575
vt 0.398512 0.040893
vt 0.398998 0.047674
vt 0.406435 0.040569
vt 0.405965 0.047530
vt 0.401011 0.113127
vt 0.397693 0.107374
vt 0.404583 0.122495
vt 0.402896 0.086730
vt 0.401172 0.093378
vt 0.396273 0.092405
vt 0.398018 0.085823
vt 0.402911 0.098000
vt 0.395062 0.099456
vt 0.403155 0.105445
vt 0.394528 0.106054
vt 0.416078 0.039668
vt 0.413288 0.038945
vt 0.413800 0.037783
vt 0.418122 0.033000
vt 0.407680 0.037888
vt 0.408041 0.037082
vt 0.400867 0.036536
vt 0.401018 0.035430
vt 0.394862 0.034460
vt 0.396330 0.027454
vt 0.391352 0.113568
vt 0.390412 0.110747
vt 0.392227 0.122634
vt 0.402809 0.128454
vt 0.391990 0.129708
vt 0.384510 0.096687
vt 0.385247 0.089131
vt 0.398356 0.058056
vt 0.394432 0.062776
vt 0.387408 0.062596
vt 0.387928 0.058002
vt 0.392941 0.068571
vt 0.386990 0.068439
vt 0.394926 0.075427
vt 0.387877 0.074123
vt 0.320420 0.060611
vt 0.318447 0.052511
vt 0.325869 0.052230
vt 0.327274 0.057646
vt 0.334104 0.051067
vt 0.332995 0.044695
vt 0.341995 0.043509
vt 0.343218 0.050061
vt 0.383106 0.114336
vt 0.383884 0.122605
vt 0.374586 0.121931
vt 0.374066 0.114637
vt 0.383642 0.129495
vt 0.375278 0.127874
vt 0.376885 0.088606
vt 0.376251 0.095445
vt 0.367649 0.094496
vt 0.368569 0.088027
vt 0.379748 0.058494
vt 0.379246 0.062473
vt 0.371018 0.063144
vt 0.371254 0.059886
vt 0.378781 0.068625
vt 0.369857 0.068890
vt 0.379820 0.074629
vt 0.370768 0.075190
vt 0.335307 0.056612
vt 0.344338 0.055586
vt 0.345565 0.043122
vt 0.346871 0.049415
vt 0.370005 0.121785
vt 0.370467 0.114393
vt 0.369713 0.126993
vt 0.363017 0.094233
vt 0.363051 0.088194
vt 0.366749 0.064748
vt 0.366682 0.060944
vt 0.366722 0.069820
vt 0.367956 0.075420
vt 0.347101 0.054297
vt 0.324765 0.045812
vn 0.843022 0.018127 -0.537574
vn 0.824255 0.343365 -0.450228
vn 0.824255 0.343365 -0.450228
vn 0.430867 -0.076352 -0.899180
vn 0.689797 0.268872 -0.672226
vn 0.689797 0.268872 -0.672226
vn 0.843022 0.018127 -0.537574
vn 0.142984 0.246048 -0.958653
vn 0.142984 0.246048 -0.958653
vn 0.430867 -0.076352 -0.899180
vn 0.103514 -0.117976 -0.987607
vn 0.093210 -0.096823 -0.990928
vn 0.093210 -0.096823 -0.990928
vn 0.166414 -0.365817 -0.915688
vn 0.056061 -0.698239 -0.713666
vn 0.625612 0.096818 -0.774103
vn 0.625612 0.096818 -0.774103
vn 0.792045 -0.024032 -0.609990
vn 0.166414 -0.365817 -0.915688
vn 0.887097 0.216752 -0.407527
vn 0.990317 0.134581 0.034052
vn 0.792045 -0.024032 -0.609990
vn 0.887097 0.216752 -0.407527
vn 0.517006 0.499217 0.695333
vn 0.517006 0.499217 0.695333
vn 0.600674 0.157595 0.783807
vn 0.990317 0.134581 0.034052
vn 0.392486 0.410792 0.822925
vn 0.392486 0.410792 0.822925
vn -0.044073 -0.023511 0.998752
vn 0.600674 0.157595 0.783807
vn -0.087324 0.190654 0.977766
vn -0.060048 -0.300418 0.951916
vn -0.044073 -0.023511 0.998752
vn -0.087324 0.190654 0.977766
vn -0.060048 -0.300418 0.951916
vn -0.040733 -0.822664 0.567067
vn -0.465316 -0.579057 0.669458
vn -0.044073 -0.023511 0.998752
vn -0.465316 -0.579057 0.669458
vn -0.040733 -0.822664 0.567067
vn -0.017011 -0.998516 0.051729
vn -0.792119 -0.610004 0.021037
vn -0.017011 -0.998516 0.051729
vn 0.026168 -0.962536 -0.269887
vn -0.492695 -0.751552 -0.438657
vn -0.792119 -0.610004 0.021037
vn -0.492695 -0.751552 -0.438657
vn 0.026168 -0.962536 -0.269887
vn 0.056061 -0.698239 -0.713666
vn 0.166414 -0.365817 -0.915688
vn 0.166414 -0.365817 -0.915688
vn 0.792045 -0.024032 -0.609990
vn 0.669649 0.020297 -0.742400
vn -0.160997 -0.157238 -0.974349
vn 0.792045 -0.024032 -0.609990
vn 0.990317 0.134581 0.034052
vn 0.994907 0.094142 -0.036008
vn 0.669649 0.020297 -0.742400
vn 0.990317 0.134581 0.034052
vn 0.600674 0.157595 0.783807
vn 0.653028 0.043525 0.756082
vn 0.994907 0.094142 -0.036008
vn 0.600674 0.157595 0.783807
vn -0.044073 -0.023511 0.998752
vn -0.130921 -0.079121 0.988230
vn 0.653028 0.043525 0.756082
vn -0.044073 -0.023511 0.998752
vn -0.465316 -0.579057 0.669458
vn -0.726447 -0.207065 0.655285
vn -0.130921 -0.079121 0.988230
vn -0.465316 -0.579057 0.669458
vn -0.792119 -0.610004 0.021037
vn -0.971541 -0.231895 0.048305
vn -0.726447 -0.207065 0.655285
vn -0.792119 -0.610004 0.021037
vn -0.492695 -0.751552 -0.438657
vn -0.803094 -0.213013 -0.556476
vn -0.971541 -0.231895 0.048305
vn -0.492695 -0.751552 -0.438657
vn 0.166414 -0.365817 -0.915688
vn -0.160997 -0.157238 -0.974349
vn -0.803094 -0.213013 -0.556476
vn -0.208013 -0.001983 -0.978124
vn 0.629577 0.054780 -0.775004
vn 0.624199 0.100728 -0.774745
vn -0.221166 -0.004240 -0.975227
vn 0.629577 0.054780 -0.775004
vn 0.997653 0.043992 -0.052471
vn 0.997168 0.061099 -0.043847
vn 0.624199 0.100728 -0.774745
vn 0.997653 0.043992 -0.052471
vn 0.693654 -0.047247 0.718757
vn 0.744088 -0.092713 0.661617
vn 0.997168 0.061099 -0.043847
vn 0.693654 -0.047247 0.718757
vn -0.087759 -0.134974 0.986955
vn -0.036005 -0.221046 0.974599
vn 0.744088 -0.092713 0.661617
vn -0.087759 -0.134974 0.986955
vn -0.688655 -0.169158 0.705081
vn -0.632262 -0.245553 0.734812
vn -0.036005 -0.221046 0.974599
vn -0.688655 -0.169158 0.705081
vn -0.980816 -0.144024 0.131366
vn -0.938463 -0.244771 0.243670
vn -0.632262 -0.245553 0.734812
vn -0.980816 -0.144024 0.131366
vn -0.827157 -0.064310 -0.558280
vn -0.842749 -0.126047 -0.523342
vn -0.938463 -0.244771 0.243670
vn -0.827157 -0.064310 -0.558280
vn -0.208013 -0.001983 -0.978124
vn -0.221166 -0.004240 -0.975227
vn -0.842749 -0.126047 -0.523342
vn -0.221166 -0.004240 -0.975227
vn 0.624199 0.100728 -0.774745
vn 0.604459 0.172013 -0.777843
vn -0.264794 0.129946 -0.955509
vn 0.624199 0.100728 -0.774745
vn 0.997168 0.061099 -0.043847
vn 0.999928 0.011339 -0.003992
vn 0.604459 0.172013 -0.777843
vn 0.997168 0.061099 -0.043847
vn 0.744088 -0.092713 0.661617
vn 0.733391 -0.148069 0.663486
vn 0.999928 0.011339 -0.003992
vn 0.744088 -0.092713 0.661617
vn -0.036005 -0.221046 0.974599
vn -0.048936 -0.271408 0.961219
vn 0.733391 -0.148069 0.663486
vn -0.036005 -0.221046 0.974599
vn -0.632262 -0.245553 0.734812
vn -0.650476 -0.291193 0.701490
vn -0.048936 -0.271408 0.961219
vn -0.632262 -0.245553 0.734812
vn -0.938463 -0.244771 0.243670
vn -0.937210 -0.260878 0.231473
vn -0.650476 -0.291193 0.701490
vn -0.938463 -0.244771 0.243670
vn -0.842749 -0.126047 -0.523342
vn -0.828720 -0.067728 -0.555550
vn -0.937210 -0.260878 0.231473
vn -0.842749 -0.126047 -0.523342
vn -0.221166 -0.004240 -0.975227
vn -0.264794 0.129946 -0.955509
vn -0.828720 -0.067728 -0.555550
vn 0.669649 0.020297 -0.742400
vn 0.629577 0.054780 -0.775004
vn -0.208013 -0.001983 -0.978124
vn -0.160997 -0.157238 -0.974349
vn 0.994907 0.094142 -0.036008
vn 0.997653 0.043992 -0.052471
vn 0.629577 0.054780 -0.775004
vn 0.669649 0.020297 -0.742400
vn 0.653028 0.043525 0.756082
vn 0.693654 -0.047247 0.718757
vn 0.997653 0.043992 -0.052471
vn 0.994907 0.094142 -0.036008
vn -0.130921 -0.079121 0.988230
vn -0.087759 -0.134974 0.986955
vn 0.693654 -0.047247 0.718757
vn 0.653028 0.043525 0.756082
vn -0.726447 -0.207065 0.655285
vn -0.688655 -0.169158 0.705081
vn -0.087759 -0.134974 0.986955
vn -0.130921 -0.079121 0.988230
vn -0.971541 -0.231895 0.048305
vn -0.980816 -0.144024 0.131366
vn -0.688655 -0.169158 0.705081
vn -0.726447 -0.207065 0.655285
vn -0.803094 -0.213013 -0.556476
vn -0.827157 -0.064310 -0.558280
vn -0.980816 -0.144024 0.131366
vn -0.971541 -0.231895 0.048305
vn -0.160997 -0.157238 -0.974349
vn -0.208013 -0.001983 -0.978124
vn -0.827157 -0.064310 -0.558280
vn -0.803094 -0.213013 -0.556476
s off
g Left_Thigh
usemtl lambert2SG
f 3/1/1 4/2/2 5/3/3
f 2/4/4 6/5/5 4/2/6 3/1/7
f 7/6/8 6/7/9 2/8/10 1/9/11
f 1/9/12 2/8/13 8/10/14 9/11/15
f 2/4/16 3/1/17 10/12/18 8/13/19
f 5/3/20 11/14/21 10/12/22 3/1/23
f 5/15/24 53/16/25 12/17/26 11/18/27
f 53/16/28 54/19/29 13/20/30 12/17/31
f 55/21/32 14/22/33 13/20/34 54/19/35
f 14/23/36 15/24/37 16/25/38 13/26/39
f 16/25/40 15/24/41 17/27/42 18/28/43
f 17/27/44 19/29/45 20/30/46 18/28/47
f 20/30/48 19/29/49 9/31/50 8/32/51
f 8/13/52 10/12/53 21/33/54 22/34/55
f 10/12/56 11/14/57 23/35/58 21/33/59
f 11/14/60 12/36/61 24/37/62 23/35/63
f 12/17/64 13/20/65 25/38/66 24/39/67
f 13/40/68 16/41/69 26/42/70 25/43/71
f 16/41/72 18/44/73 27/45/74 26/42/75
f 18/44/76 20/46/77 28/47/78 27/45/79
f 20/48/80 8/49/81 22/50/82 28/51/83
f 46/52/84 45/53/85 29/54/86 30/55/87
f 45/56/88 47/57/89 31/58/90 29/59/91
f 47/57/92 48/60/93 32/61/94 31/58/95
f 48/62/96 49/63/97 33/64/98 32/65/99
f 49/66/100 50/67/101 34/68/102 33/69/103
f 50/67/104 51/70/105 35/71/106 34/68/107
f 51/70/108 52/72/109 36/73/110 35/71/111
f 52/74/112 46/52/113 30/55/114 36/75/115
f 30/55/116 29/54/117 37/76/118 38/77/119
f 29/59/120 31/58/121 39/78/122 37/79/123
f 31/58/124 32/61/125 40/80/126 39/78/127
f 32/65/128 33/64/129 41/81/130 40/82/131
f 33/69/132 34/68/133 42/83/134 41/84/135
f 34/68/136 35/71/137 43/85/138 42/83/139
f 35/71/140 36/73/141 44/86/142 43/85/143
f 36/75/144 30/55/145 38/77/146 44/87/147
f 21/88/148 45/53/149 46/52/150 22/50/151
f 23/35/152 47/57/153 45/56/154 21/33/155
f 24/37/156 48/60/157 47/57/158 23/35/159
f 25/38/160 49/63/161 48/62/162 24/39/163
f 26/42/164 50/67/165 49/66/166 25/43/167
f 27/45/168 51/70/169 50/67/170 26/42/171
f 28/47/172 52/72/173 51/70/174 27/45/175
f 22/50/176 46/52/177 52/74/178 28/51/179
