# This file uses centimeters as units for non-parametric coordinates.

mtllib human_rightthigh.mtl
g default
v -0.108842 -1.396947 -0.274355
v -0.229990 -1.389471 -0.198467
v -0.004739 -1.394950 -0.265522
v -0.001071 -1.337512 -0.250481
v -0.109165 -1.338919 -0.258858
v -0.223257 -1.350273 -0.198319
v -0.299833 -1.347394 -0.068480
v -0.115840 -1.523584 -0.251354
v -0.242142 -1.474363 -0.199574
v -0.323223 -1.431213 -0.040922
v -0.282669 -1.447730 0.080580
v -0.127195 -1.506555 0.125690
v -0.030936 -1.553463 0.078551
v -0.022209 -1.578590 -0.019439
v -0.029759 -1.548036 -0.139925
v -0.145725 -1.635304 -0.229312
v -0.265943 -1.635361 -0.197868
v -0.326536 -1.647939 -0.052579
v -0.276562 -1.666006 0.075337
v -0.151766 -1.675342 0.098431
v -0.054107 -1.674685 0.040973
v -0.023559 -1.671547 -0.058213
v -0.064244 -1.652398 -0.164673
v -0.145932 -1.931289 -0.254948
v -0.263695 -1.929658 -0.229111
v -0.313351 -1.940209 -0.114463
v -0.277886 -1.938520 -0.001325
v -0.174334 -1.949034 0.026986
v -0.103005 -1.947999 -0.003985
v -0.038278 -1.958971 -0.091663
v -0.063559 -1.942251 -0.198508
v -0.148712 -2.004602 -0.266512
v -0.257502 -1.999693 -0.240638
v -0.301513 -2.022067 -0.134582
v -0.257209 -2.029263 -0.043367
v -0.171061 -2.028851 -0.000294
v -0.106476 -2.026249 -0.039442
v -0.045187 -2.020460 -0.114417
v -0.067487 -2.000277 -0.215864
v -0.149330 -1.775537 -0.238564
v -0.266031 -1.775245 -0.207269
v -0.324588 -1.786618 -0.076387
v -0.278037 -1.804361 0.048540
v -0.165374 -1.813913 0.076156
v -0.078421 -1.812054 0.022839
v -0.031124 -1.810399 -0.072435
v -0.063451 -1.789768 -0.179648
v -0.269097 -1.341676 0.038537
v -0.159546 -1.353317 0.087322
v -0.003693 -1.512129 -0.246522
v -0.012263 -1.549442 -0.131390
v -0.016018 -1.571676 -0.014627
v -0.019440 -1.549423 0.082728
v -0.023823 -1.495827 0.131442
v -0.038005 -1.349009 0.108164
vt 0.875875 0.059490
vt 0.875847 0.062927
vt 0.869864 0.063046
vt 0.869652 0.059574
vt 0.861829 0.062599
vt 0.862221 0.060253
vt 0.891483 0.147347
vt 0.884836 0.147174
vt 0.884743 0.144829
vt 0.892805 0.142331
vt 0.900421 0.141343
vt 0.898129 0.147689
vt 0.908060 0.142065
vt 0.902255 0.142761
vt 0.900937 0.136415
vt 0.909477 0.132895
vt 0.915456 0.133537
vt 0.914915 0.142322
vt 0.947646 0.158642
vt 0.946783 0.161439
vt 0.940804 0.159816
vt 0.947025 0.158254
vt 0.948755 0.152627
vt 0.949057 0.152986
vt 0.950729 0.146198
vt 0.949811 0.145481
vt 0.946158 0.137888
vt 0.952663 0.139566
vt 0.869168 0.070624
vt 0.867145 0.077309
vt 0.859717 0.077312
vt 0.861132 0.067679
vt 0.884527 0.139749
vt 0.884331 0.130115
vt 0.892081 0.129363
vt 0.900190 0.128281
vt 0.901360 0.123354
vt 0.908377 0.122795
vt 0.914808 0.122835
vt 0.915697 0.130088
vt 0.916184 0.135915
vt 0.918672 0.128661
vt 0.924097 0.128849
vt 0.921811 0.134411
vt 0.930835 0.129995
vt 0.928957 0.136239
vt 0.935631 0.131018
vt 0.936550 0.137703
vt 0.867049 0.085700
vt 0.867451 0.095020
vt 0.860237 0.094923
vt 0.859829 0.085683
vt 0.883780 0.121745
vt 0.882531 0.112505
vt 0.888623 0.111874
vt 0.890712 0.121064
vt 0.895687 0.111975
vt 0.898603 0.120002
vt 0.901607 0.115075
vt 0.902236 0.107047
vt 0.907945 0.106418
vt 0.907858 0.114503
vt 0.912505 0.106480
vt 0.913611 0.114615
vt 0.920036 0.120441
vt 0.921912 0.112306
vt 0.926238 0.111650
vt 0.925024 0.120540
vt 0.932807 0.112650
vt 0.931701 0.121775
vt 0.937135 0.113306
vt 0.936218 0.122626
vt 0.867362 0.098961
vt 0.860662 0.098697
vt 0.882129 0.108730
vt 0.887716 0.107564
vt 0.893636 0.107113
vt 0.897248 0.107110
vt 0.898632 0.111345
vt 0.908434 0.102183
vt 0.912645 0.102310
vt 0.923817 0.108137
vt 0.927417 0.108462
vt 0.933896 0.109647
vt 0.937674 0.109366
vt 0.875672 0.069938
vn 0.074178 0.252977 -0.964624
vn 0.074178 0.252977 -0.964624
vn -0.205932 -0.107994 -0.972589
vn 0.074178 0.252977 -0.964624
vn -0.205932 -0.107994 -0.972589
vn -0.713668 -0.041911 -0.699229
vn -0.496500 0.169731 -0.851281
vn -0.496500 0.169731 -0.851281
vn -0.850427 0.147997 -0.504848
vn -0.850427 0.147997 -0.504848
vn -0.713668 -0.041911 -0.699229
vn -0.910709 0.286386 0.297645
vn -0.996207 0.083195 -0.025486
vn -0.667603 0.094462 0.738500
vn -0.910709 0.286386 0.297645
vn -0.257239 0.269190 0.928097
vn -0.257239 0.269190 0.928097
vn -0.667603 0.094462 0.738500
vn -0.068736 -0.092147 0.993370
vn -0.127391 0.180614 0.975269
vn -0.127391 0.180614 0.975269
vn -0.127391 0.180614 0.975269
vn -0.068736 -0.092147 0.993370
vn 0.023568 -0.677518 0.735128
vn 0.023568 -0.677518 0.735128
vn -0.068736 -0.092147 0.993370
vn 0.447725 -0.622021 0.642364
vn 0.447725 -0.622021 0.642364
vn 0.838544 -0.544834 0.000213
vn 0.420834 -0.875235 0.238458
vn 0.420834 -0.875235 0.238458
vn 0.332097 -0.919589 -0.209921
vn 0.332097 -0.919589 -0.209921
vn 0.838544 -0.544834 0.000213
vn 0.581539 -0.695597 -0.421850
vn 0.581539 -0.695597 -0.421850
vn 0.006410 -0.332627 -0.943036
vn 0.104010 -0.949956 -0.294561
vn 0.104010 -0.949956 -0.294561
vn 0.006410 -0.332627 -0.943036
vn 0.177214 -0.027792 -0.983780
vn -0.673722 0.047811 -0.737437
vn -0.707089 -0.033890 -0.706312
vn -0.707089 -0.033890 -0.706312
vn -0.673722 0.047811 -0.737437
vn -0.999726 0.007202 -0.022267
vn -0.996207 0.083195 -0.025486
vn -0.996207 0.083195 -0.025486
vn -0.999726 0.007202 -0.022267
vn -0.649836 -0.089304 0.754810
vn -0.667603 0.094462 0.738500
vn -0.667603 0.094462 0.738500
vn -0.649836 -0.089304 0.754810
vn 0.114473 -0.180802 0.976835
vn -0.068736 -0.092147 0.993370
vn -0.068736 -0.092147 0.993370
vn 0.114473 -0.180802 0.976835
vn 0.766120 -0.213929 0.606049
vn 0.447725 -0.622021 0.642364
vn 0.447725 -0.622021 0.642364
vn 0.766120 -0.213929 0.606049
vn 0.994255 -0.106264 -0.012828
vn 0.838544 -0.544834 0.000213
vn 0.838544 -0.544834 0.000213
vn 0.994255 -0.106264 -0.012828
vn 0.827316 -0.061510 -0.558359
vn 0.581539 -0.695597 -0.421850
vn 0.581539 -0.695597 -0.421850
vn 0.827316 -0.061510 -0.558359
vn 0.177214 -0.027792 -0.983780
vn 0.006410 -0.332627 -0.943036
vn 0.183956 0.094934 -0.978339
vn 0.186410 0.133764 -0.973324
vn -0.647061 0.060675 -0.760020
vn -0.653896 0.071749 -0.753175
vn -0.653896 0.071749 -0.753175
vn -0.647061 0.060675 -0.760020
vn -0.990908 -0.128773 -0.038973
vn -0.999051 -0.034523 -0.026551
vn -0.999051 -0.034523 -0.026551
vn -0.990908 -0.128773 -0.038973
vn -0.686982 -0.311796 0.656384
vn -0.656651 -0.193887 0.728847
vn -0.656651 -0.193887 0.728847
vn -0.686982 -0.311796 0.656384
vn 0.064311 -0.367352 0.927856
vn 0.122320 -0.258432 0.958254
vn 0.122320 -0.258432 0.958254
vn 0.064311 -0.367352 0.927856
vn 0.626768 -0.283364 0.725856
vn 0.708850 -0.211127 0.673021
vn 0.708850 -0.211127 0.673021
vn 0.626768 -0.283364 0.725856
vn 0.967863 -0.148123 0.203225
vn 0.992558 -0.084004 0.088165
vn 0.992558 -0.084004 0.088165
vn 0.967863 -0.148123 0.203225
vn 0.832481 0.062665 -0.550499
vn 0.814718 0.048513 -0.577825
vn 0.814718 0.048513 -0.577825
vn 0.832481 0.062665 -0.550499
vn 0.186410 0.133764 -0.973324
vn 0.183956 0.094934 -0.978339
vn 0.186410 0.133764 -0.973324
vn 0.200576 0.228673 -0.952616
vn -0.661127 0.161789 -0.732622
vn -0.647061 0.060675 -0.760020
vn -0.647061 0.060675 -0.760020
vn -0.661127 0.161789 -0.732622
vn -0.996401 -0.083860 0.012392
vn -0.990908 -0.128773 -0.038973
vn -0.990908 -0.128773 -0.038973
vn -0.996401 -0.083860 0.012392
vn -0.677045 -0.301158 0.671501
vn -0.686982 -0.311796 0.656384
vn -0.686982 -0.311796 0.656384
vn -0.677045 -0.301158 0.671501
vn 0.056965 -0.366411 0.928708
vn 0.064311 -0.367352 0.927856
vn 0.064311 -0.367352 0.927856
vn 0.056965 -0.366411 0.928708
vn 0.630187 -0.301247 0.715622
vn 0.626768 -0.283364 0.725856
vn 0.626768 -0.283364 0.725856
vn 0.630187 -0.301247 0.715622
vn 0.964525 -0.166318 0.205012
vn 0.967863 -0.148123 0.203225
vn 0.967863 -0.148123 0.203225
vn 0.964525 -0.166318 0.205012
vn 0.806012 0.081069 -0.586321
vn 0.832481 0.062665 -0.550499
vn 0.832481 0.062665 -0.550499
vn 0.806012 0.081069 -0.586321
vn 0.200576 0.228673 -0.952616
vn 0.186410 0.133764 -0.973324
vn 0.072733 -0.171041 -0.982576
vn 0.072733 -0.171041 -0.982576
vn 0.006410 -0.332627 -0.943036
vn 0.072733 -0.171041 -0.982576
vn -0.466822 -0.049131 -0.882986
vn 0.006410 -0.332627 -0.943036
vn -0.707089 -0.033890 -0.706312
vn -0.466822 -0.049131 -0.882986
vn -0.867818 0.106736 -0.485283
vn -0.707089 -0.033890 -0.706312
vn -0.996207 0.083195 -0.025486
vn -0.867818 0.106736 -0.485283
vn 0.177214 -0.027792 -0.983780
vn 0.183956 0.094934 -0.978339
vn -0.653896 0.071749 -0.753175
vn -0.673722 0.047811 -0.737437
vn -0.673722 0.047811 -0.737437
vn -0.653896 0.071749 -0.753175
vn -0.999051 -0.034523 -0.026551
vn -0.999726 0.007202 -0.022267
vn -0.999726 0.007202 -0.022267
vn -0.999051 -0.034523 -0.026551
vn -0.656651 -0.193887 0.728847
vn -0.649836 -0.089304 0.754810
vn -0.649836 -0.089304 0.754810
vn -0.656651 -0.193887 0.728847
vn 0.122320 -0.258432 0.958254
vn 0.114473 -0.180802 0.976835
vn 0.114473 -0.180802 0.976835
vn 0.122320 -0.258432 0.958254
vn 0.708850 -0.211127 0.673021
vn 0.766120 -0.213929 0.606049
vn 0.766120 -0.213929 0.606049
vn 0.708850 -0.211127 0.673021
vn 0.992558 -0.084004 0.088165
vn 0.994255 -0.106264 -0.012828
vn 0.994255 -0.106264 -0.012828
vn 0.992558 -0.084004 0.088165
vn 0.814718 0.048513 -0.577825
vn 0.827316 -0.061510 -0.558359
vn 0.827316 -0.061510 -0.558359
vn 0.814718 0.048513 -0.577825
vn 0.183956 0.094934 -0.978339
vn 0.177214 -0.027792 -0.983780
s off
g Right_Thigh
usemtl lambert2SG
f 4/1/1 3/2/2 1/3/3 5/4/4
f 1/3/5 2/5/6 6/6/7 5/4/8
f 7/7/9 6/8/10 2/9/11
f 7/7/12 10/10/13 11/11/14 48/12/15
f 49/13/16 48/14/17 11/15/18 12/16/19
f 54/17/20 55/18/21 49/13/22 12/16/23
f 53/19/24 54/20/25 12/21/26 13/22/27
f 13/22/28 14/23/29 52/24/30 53/19/31
f 51/25/32 52/24/33 14/23/34 15/26/35
f 15/26/36 8/27/37 50/28/38 51/25/39
f 8/29/40 16/30/41 17/31/42 9/32/43
f 9/33/44 17/34/45 18/35/46 10/10/47
f 10/10/48 18/35/49 19/36/50 11/11/51
f 11/15/52 19/37/53 20/38/54 12/16/55
f 12/16/56 20/38/57 21/39/58 13/40/59
f 13/41/60 21/42/61 22/43/62 14/44/63
f 14/44/64 22/43/65 23/45/66 15/46/67
f 15/46/68 23/45/69 16/47/70 8/48/71
f 40/49/72 24/50/73 25/51/74 41/52/75
f 41/53/76 25/54/77 26/55/78 42/56/79
f 42/56/80 26/55/81 27/57/82 43/58/83
f 43/59/84 27/60/85 28/61/86 44/62/87
f 44/62/88 28/61/89 29/63/90 45/64/91
f 45/65/92 29/66/93 30/67/94 46/68/95
f 46/68/96 30/67/97 31/69/98 47/70/99
f 47/70/100 31/69/101 24/71/102 40/72/103
f 24/50/104 32/73/105 33/74/106 25/51/107
f 25/54/108 33/75/109 34/76/110 26/55/111
f 26/55/112 34/76/113 35/77/114 27/57/115
f 27/57/116 35/77/117 36/78/118 28/79/119
f 28/61/120 36/80/121 37/81/122 29/63/123
f 29/66/124 37/82/125 38/83/126 30/67/127
f 30/67/128 38/83/129 39/84/130 31/69/131
f 31/69/132 39/84/133 32/85/134 24/71/135
f 3/2/136 50/86/137 8/29/138 1/3/139
f 1/3/140 8/29/141 9/32/142 2/5/143
f 2/9/144 9/33/145 10/10/146 7/7/147
f 16/30/148 40/49/149 41/52/150 17/31/151
f 17/34/152 41/53/153 42/56/154 18/35/155
f 18/35/156 42/56/157 43/58/158 19/36/159
f 19/37/160 43/59/161 44/62/162 20/38/163
f 20/38/164 44/62/165 45/64/166 21/39/167
f 21/42/168 45/65/169 46/68/170 22/43/171
f 22/43/172 46/68/173 47/70/174 23/45/175
f 23/45/176 47/70/177 40/72/178 16/47/179
