# This file uses centimeters as units for non-parametric coordinates.

mtllib human_rightshoe.mtl
g default
v -0.206267 -2.700410 -0.092200
v -0.271890 -2.728742 -0.132308
v -0.119362 -2.719925 -0.129144
v -0.274251 -2.798109 -0.188883
v -0.267948 -2.800314 -0.301133
v -0.196975 -2.811768 -0.351700
v -0.132700 -2.808555 -0.176252
v -0.161904 -2.771251 0.005986
v -0.156580 -2.756074 -0.051235
v -0.135714 -2.806884 -0.061502
v -0.134903 -2.807678 -0.001412
v -0.220793 -2.767689 0.010373
v -0.212342 -2.747421 -0.052163
v -0.262148 -2.760684 -0.065352
v -0.299228 -2.796476 -0.079151
v -0.270468 -2.804632 0.093542
v -0.300687 -2.816353 0.051952
v -0.307544 -2.802330 -0.020091
v -0.274605 -2.780786 -0.007661
v -0.226594 -2.790805 0.106142
v -0.178849 -2.792784 0.100840
v -0.147368 -2.812968 0.072215
v -0.150794 -2.845033 0.066003
v -0.179885 -2.829465 0.112069
v -0.224266 -2.828792 0.118758
v -0.261467 -2.842013 0.097281
v -0.293395 -2.849304 0.053849
v -0.314158 -2.857366 -0.032587
v -0.135861 -2.859191 -0.012330
v -0.269969 -2.867853 -0.193521
v -0.298193 -2.865421 -0.086359
v -0.147274 -2.865414 -0.067275
v -0.157556 -2.882389 -0.286563
v -0.153913 -2.873489 -0.177140
v -0.243494 -2.875327 -0.293364
v -0.193554 -2.877237 -0.313600
v -0.281743 -2.775321 -0.198969
v -0.111859 -2.774431 -0.205999
v -0.129919 -2.814982 -0.302941
vt 0.254075 0.092647
vt 0.252372 0.096230
vt 0.243675 0.085958
vt 0.268059 0.095853
vt 0.238101 0.096631
vt 0.233790 0.091322
vt 0.266097 0.107481
vt 0.253282 0.106916
vt 0.239556 0.107169
vt 0.230179 0.097893
vt 0.226397 0.094752
vt 0.229007 0.089500
vt 0.234052 0.082039
vt 0.232722 0.106242
vt 0.211881 0.099082
vt 0.219605 0.100533
vt 0.219154 0.105622
vt 0.211102 0.104868
vt 0.205846 0.103074
vt 0.207512 0.097155
vt 0.219564 0.127241
vt 0.218843 0.121671
vt 0.227473 0.121398
vt 0.227540 0.129211
vt 0.208996 0.121306
vt 0.206825 0.124510
vt 0.220095 0.113690
vt 0.228539 0.112347
vt 0.243675 0.120402
vt 0.236819 0.134348
vt 0.209851 0.116335
vt 0.244543 0.110374
vt 0.246987 0.125499
vt 0.261562 0.118597
vt 0.260308 0.108285
vt 0.266234 0.108807
vt 0.272325 0.118600
vt 0.266319 0.069255
vt 0.265955 0.064339
vt 0.271922 0.060962
vt 0.272960 0.066557
vt 0.279024 0.060333
vt 0.279669 0.066147
vt 0.267525 0.079693
vt 0.268725 0.069568
vt 0.277009 0.069484
vt 0.280589 0.080859
vt 0.287429 0.044214
vt 0.278896 0.047302
vt 0.274552 0.039614
vt 0.282311 0.035978
vt 0.287237 0.059535
vt 0.294264 0.057276
vt 0.264435 0.031032
vt 0.278942 0.030747
vt 0.288465 0.030997
vt 0.293839 0.038302
vt 0.299623 0.052751
vt 0.251755 0.080633
vt 0.260629 0.060512
vt 0.264635 0.073820
vt 0.238156 0.079342
vt 0.249988 0.054437
vt 0.265874 0.067036
vt 0.259659 0.078157
vt 0.231136 0.074342
vt 0.241433 0.053357
vt 0.225133 0.048846
vt 0.216967 0.064898
vt 0.203323 0.047806
vt 0.209047 0.043922
vt 0.203775 0.056073
vn -0.973111 -0.225885 0.045071
vn -0.993286 -0.098776 -0.060217
vn -0.842856 0.316247 0.435409
vn -0.822084 -0.193107 -0.535618
vn -0.993286 -0.098776 -0.060217
vn -0.973111 -0.225885 0.045071
vn 0.510722 0.826094 0.238186
vn 0.964922 0.236910 0.113131
vn 0.998567 0.010240 0.052521
vn 0.670097 0.636540 0.381820
vn -0.121149 0.959885 0.252873
vn 0.510722 0.826094 0.238186
vn 0.670097 0.636540 0.381820
vn -0.110764 0.882488 0.457106
vn -0.842856 0.316247 0.435409
vn -0.631676 0.737877 0.237745
vn -0.110764 0.882488 0.457106
vn -0.105555 0.609652 0.785610
vn -0.993286 -0.098776 -0.060217
vn -0.942574 0.315923 -0.108384
vn -0.631676 0.737877 0.237745
vn -0.842856 0.316247 0.435409
vn -0.620777 0.475304 0.623476
vn -0.486165 0.854019 0.185189
vn -0.896987 0.437895 0.060518
vn -0.879600 0.321957 0.350211
vn -0.159634 0.696638 0.699438
vn -0.121149 0.959885 0.252873
vn -0.486165 0.854019 0.185189
vn -0.620777 0.475304 0.623476
vn 0.451948 0.615424 0.645752
vn 0.510722 0.826094 0.238186
vn -0.121149 0.959885 0.252873
vn -0.159634 0.696638 0.699438
vn 0.887681 0.243888 0.390565
vn 0.964922 0.236910 0.113131
vn 0.510722 0.826094 0.238186
vn 0.451948 0.615424 0.645752
vn 0.929028 -0.057947 0.365444
vn 0.887681 0.243888 0.390565
vn 0.451948 0.615424 0.645752
vn 0.487637 0.164872 0.857337
vn -0.159634 0.696638 0.699438
vn -0.156214 0.225791 0.961569
vn 0.487637 0.164872 0.857337
vn 0.451948 0.615424 0.645752
vn -0.620777 0.475304 0.623476
vn -0.623960 0.000672 0.781456
vn -0.156214 0.225791 0.961569
vn -0.159634 0.696638 0.699438
vn -0.623960 0.000672 0.781456
vn -0.620777 0.475304 0.623476
vn -0.879600 0.321957 0.350211
vn -0.911078 -0.084372 0.403507
vn 0.025703 -0.987333 0.156568
vn 0.002441 -0.978380 0.206802
vn 0.049933 -0.962104 0.268073
vn -0.896987 0.437895 0.060518
vn -0.997457 0.036344 -0.061303
vn -0.911078 -0.084372 0.403507
vn -0.879600 0.321957 0.350211
vn 0.049933 -0.962104 0.268073
vn 0.002441 -0.978380 0.206802
vn 0.037133 -0.939365 0.340903
vn 0.995450 -0.094884 0.008791
vn 0.964922 0.236910 0.113131
vn 0.887681 0.243888 0.390565
vn 0.929028 -0.057947 0.365444
vn -0.013936 -0.991226 0.131442
vn -0.012797 -0.991196 0.131787
vn 0.002441 -0.978380 0.206802
vn 0.025703 -0.987333 0.156568
vn -0.975803 -0.113997 -0.186585
vn -0.973714 0.024457 -0.226459
vn -0.942574 0.315923 -0.108384
vn -0.993286 -0.098776 -0.060217
vn 0.995450 -0.094884 0.008791
vn 0.980974 -0.188572 -0.046152
vn 0.998567 0.010240 0.052521
vn 0.964922 0.236910 0.113131
vn -0.051363 -0.997522 0.048089
vn -0.023559 -0.995283 0.094115
vn -0.023759 -0.995528 0.091429
vn -0.035324 -0.998252 0.047390
vn -0.822084 -0.193107 -0.535618
vn -0.779245 -0.311134 -0.544033
vn -0.975803 -0.113997 -0.186585
vn -0.993286 -0.098776 -0.060217
vn -0.010480 -0.247727 -0.968773
vn 0.064596 -0.444231 -0.893581
vn -0.779245 -0.311134 -0.544033
vn -0.822084 -0.193107 -0.535618
vn -0.087863 -0.993997 0.065200
vn -0.051363 -0.997522 0.048089
vn -0.035324 -0.998252 0.047390
vn 0.817453 -0.415473 -0.398939
vn 0.064596 -0.444231 -0.893581
vn -0.010480 -0.247727 -0.968773
vn 0.812421 -0.309052 -0.494428
vn -0.051363 -0.997522 0.048089
vn -0.087863 -0.993997 0.065200
vn -0.204229 -0.975128 0.086115
vn -0.087863 -0.993997 0.065200
vn -0.035324 -0.998252 0.047390
vn -0.008853 -0.997343 0.072314
vn 0.025703 -0.987333 0.156568
vn 0.049933 -0.962104 0.268073
vn 0.405266 -0.902391 -0.146457
vn 0.670097 0.636540 0.381820
vn 0.998567 0.010240 0.052521
vn 0.952591 -0.286834 0.101472
vn 0.840066 0.113393 0.530501
vn -0.110764 0.882488 0.457106
vn 0.670097 0.636540 0.381820
vn 0.840066 0.113393 0.530501
vn -0.105555 0.609652 0.785610
vn -0.110764 0.882488 0.457106
vn -0.631676 0.737877 0.237745
vn -0.486165 0.854019 0.185189
vn -0.121149 0.959885 0.252873
vn -0.631676 0.737877 0.237745
vn -0.942574 0.315923 -0.108384
vn -0.896987 0.437895 0.060518
vn -0.486165 0.854019 0.185189
vn -0.942574 0.315923 -0.108384
vn -0.973714 0.024457 -0.226459
vn -0.997457 0.036344 -0.061303
vn -0.896987 0.437895 0.060518
vn 0.998567 0.010240 0.052521
vn 0.980974 -0.188572 -0.046152
vn 0.952808 -0.303468 0.007984
vn 0.952591 -0.286834 0.101472
vn -0.023759 -0.995528 0.091429
vn -0.023559 -0.995283 0.094115
vn -0.012797 -0.991196 0.131787
vn -0.013936 -0.991226 0.131442
vn 0.840066 0.113393 0.530501
vn 0.952591 -0.286834 0.101472
vn 0.948043 -0.310140 0.070909
vn 0.948043 -0.310140 0.070909
vn 0.952591 -0.286834 0.101472
vn 0.812421 -0.309052 -0.494428
vn 0.812421 -0.309052 -0.494428
vn 0.952591 -0.286834 0.101472
vn 0.952808 -0.303468 0.007984
vn 0.817453 -0.415473 -0.398939
s off
g Right_Shoe
usemtl lambert2SG
f 37/1/1 4/2/2 2/3/3
f 5/4/4 4/2/5 37/1/6
f 8/21/7 11/22/8 10/23/9 9/24/10
f 12/48/11 8/49/12 9/50/13 13/51/14
f 2/3/15 14/6/16 13/12/17 1/13/18
f 4/2/19 15/5/20 14/6/21 2/3/22
f 16/15/23 19/11/24 18/10/25 17/16/26
f 20/53/27 12/48/28 19/57/29 16/58/30
f 21/52/31 8/49/32 12/48/33 20/53/34
f 22/25/35 11/22/36 8/21/37 21/26/38
f 23/38/39 22/39/40 21/40/41 24/41/42
f 20/42/43 25/43/44 24/41/45 21/40/46
f 16/15/47 26/18/48 25/19/49 20/20/50
f 26/18/51 16/15/52 17/16/53 27/17/54
f 27/59/55 23/60/56 25/61/57
f 18/10/58 28/14/59 27/17/60 17/16/61
f 25/61/62 23/60/63 24/64/64
f 29/27/65 11/22/66 22/25/67 23/31/68
f 28/62/69 29/63/70 23/60/71 27/59/72
f 30/8/73 31/9/74 15/5/75 4/2/76
f 29/27/77 32/28/78 10/23/79 11/22/80
f 34/68/81 32/67/82 31/66/83 30/69/84
f 5/4/85 35/7/86 30/8/87 4/2/88
f 6/44/89 36/45/90 35/46/91 5/47/92
f 36/70/93 34/68/94 30/69/95
f 33/35/96 36/36/97 6/37/98 39/34/99
f 34/68/100 36/70/101 33/71/102
f 36/70/103 30/69/104 35/72/105
f 27/59/106 25/61/107 26/65/108
f 9/24/109 10/23/110 7/29/111 3/30/112
f 13/51/113 9/50/114 3/54/115 1/55/116
f 13/51/117 14/56/118 19/57/119 12/48/120
f 14/6/121 15/5/122 18/10/123 19/11/124
f 15/5/125 31/9/126 28/14/127 18/10/128
f 10/23/129 32/28/130 34/32/131 7/29/132
f 31/66/133 32/67/134 29/63/135 28/62/136
f 3/30/137 7/29/138 38/33/139
f 38/33/140 7/29/141 39/34/142
f 39/34/143 7/29/144 34/32/145 33/35/146
