# This file uses centimeters as units for non-parametric coordinates.

mtllib human_rightcalve.mtl
g default
v -0.144145 -0.688797 -0.291654
v -0.252227 -0.679717 -0.269353
v -0.310394 -0.725785 -0.150010
v -0.252053 -0.730214 -0.066026
v -0.170288 -0.725999 -0.024660
v -0.099381 -0.719503 -0.070893
v -0.051538 -0.710801 -0.146666
v -0.070194 -0.687589 -0.211797
v -0.149736 -0.843098 -0.326674
v -0.257697 -0.858349 -0.320788
v -0.067990 -0.869115 -0.258793
v -0.149953 -0.980891 -0.347513
v -0.255061 -0.978091 -0.335101
v -0.310599 -0.954226 -0.197140
v -0.246441 -0.960975 -0.107758
v -0.181466 -0.946888 -0.092672
v -0.112136 -0.945540 -0.130993
v -0.070252 -0.939705 -0.190658
v -0.073144 -0.973217 -0.274980
v -0.159595 -1.289532 -0.347697
v -0.245287 -1.288504 -0.320456
v -0.306422 -1.284226 -0.218364
v -0.242137 -1.272404 -0.138517
v -0.182915 -1.265616 -0.118604
v -0.113870 -1.275939 -0.136312
v -0.070280 -1.294095 -0.219490
v -0.097732 -1.291992 -0.301049
v -0.152211 -1.135714 -0.352223
v -0.248827 -1.133220 -0.321295
v -0.296456 -1.116019 -0.208630
v -0.234673 -1.112979 -0.135255
v -0.183996 -1.108349 -0.123972
v -0.125242 -1.108549 -0.151818
v -0.100400 -1.107775 -0.201458
v -0.083907 -1.132937 -0.285034
v -0.280840 -1.365198 -0.140059
v -0.221364 -1.336177 -0.088397
v -0.127303 -1.356167 -0.110953
v -0.106668 -1.411999 -0.187312
v -0.108443 -1.453535 -0.288305
v -0.167897 -1.450244 -0.348949
v -0.248179 -1.438511 -0.309925
v -0.279468 -1.412910 -0.209070
v -0.257209 -0.652140 -0.043367
v -0.301513 -0.644943 -0.134582
v -0.257502 -0.622570 -0.240638
v -0.148712 -0.627479 -0.266512
v -0.067487 -0.623154 -0.215864
v -0.045187 -0.643336 -0.114417
v -0.106476 -0.649125 -0.039442
v -0.171061 -0.651728 -0.000294
vt 0.867433 0.099407
vt 0.868013 0.103076
vt 0.861409 0.102533
vt 0.860743 0.099113
vt 0.881933 0.108314
vt 0.880318 0.104895
vt 0.886580 0.102138
vt 0.887593 0.106975
vt 0.892221 0.101873
vt 0.893483 0.106545
vt 0.897076 0.106569
vt 0.895659 0.102125
vt 0.908476 0.101642
vt 0.908824 0.097198
vt 0.913549 0.097586
vt 0.912743 0.101798
vt 0.924030 0.107624
vt 0.925783 0.103413
vt 0.929623 0.103933
vt 0.927656 0.107970
vt 0.933667 0.105322
vt 0.933871 0.109178
vt 0.939261 0.105250
vt 0.937846 0.108919
vt 0.868121 0.112309
vt 0.861729 0.113222
vt 0.877239 0.094205
vt 0.883818 0.088468
vt 0.889848 0.088064
vt 0.891539 0.088907
vt 0.909016 0.083980
vt 0.913550 0.084061
vt 0.929459 0.089887
vt 0.932430 0.090236
vt 0.936390 0.094460
vt 0.941380 0.096017
vt 0.868368 0.120555
vt 0.862061 0.120387
vt 0.876434 0.087040
vt 0.937402 0.088231
vt 0.942603 0.087772
vt 0.868294 0.129819
vt 0.862254 0.129670
vt 0.877320 0.077758
vt 0.883322 0.078787
vt 0.888385 0.078969
vt 0.905400 0.083137
vt 0.906431 0.074042
vt 0.909257 0.074319
vt 0.913042 0.074307
vt 0.930841 0.080133
vt 0.933437 0.080179
vt 0.938124 0.078674
vt 0.942906 0.078507
vt 0.887529 0.063877
vt 0.891293 0.065613
vt 0.890003 0.069835
vt 0.888101 0.069429
vt 0.906627 0.060686
vt 0.912414 0.059490
vt 0.913515 0.064290
vt 0.909254 0.064908
vt 0.867335 0.148640
vt 0.862151 0.147938
vt 0.862451 0.138962
vt 0.867805 0.139023
vt 0.938621 0.059490
vt 0.942910 0.059687
vt 0.942733 0.069303
vt 0.939233 0.069156
vt 0.877993 0.059490
vt 0.883507 0.061022
vt 0.882628 0.068722
vt 0.877413 0.068466
vt 0.928475 0.065316
vt 0.932687 0.061975
vt 0.934118 0.069030
vt 0.929792 0.070117
vt 0.906035 0.064502
vn -0.174799 0.395418 -0.901715
vn 0.289021 0.259458 -0.921493
vn -0.593226 0.266568 -0.759622
vn -0.174799 0.395418 -0.901715
vn -0.917032 0.143062 -0.372272
vn -0.593226 0.266568 -0.759622
vn -0.995511 0.005466 0.094486
vn -0.917032 0.143062 -0.372272
vn -0.861422 -0.099188 0.498110
vn -0.995511 0.005466 0.094486
vn -0.641843 -0.186476 0.743817
vn -0.861422 -0.099188 0.498110
vn -0.424812 -0.282058 0.860220
vn -0.424812 -0.282058 0.860220
vn -0.641843 -0.186476 0.743817
vn 0.083504 -0.295937 0.951551
vn 0.525051 -0.281384 0.803209
vn 0.083504 -0.295937 0.951551
vn 0.685349 -0.249303 0.684211
vn 0.525051 -0.281384 0.803209
vn 0.795440 -0.250685 0.551754
vn 0.685349 -0.249303 0.684211
vn 0.979446 -0.114860 0.165810
vn 0.795440 -0.250685 0.551754
vn 0.970070 -0.014833 -0.242374
vn 0.979446 -0.114860 0.165810
vn 0.879553 0.065998 -0.471202
vn 0.970070 -0.014833 -0.242374
vn 0.634730 0.136840 -0.760521
vn 0.879553 0.065998 -0.471202
vn 0.289021 0.259458 -0.921493
vn 0.634730 0.136840 -0.760521
vn 0.289021 0.259458 -0.921493
vn 0.304959 0.184036 -0.934415
vn -0.596607 0.153953 -0.787629
vn -0.593226 0.266568 -0.759622
vn -0.593226 0.266568 -0.759622
vn -0.596607 0.153953 -0.787629
vn -0.992872 -0.061773 0.101928
vn -0.995511 0.005466 0.094486
vn -0.995511 0.005466 0.094486
vn -0.992872 -0.061773 0.101928
vn -0.560717 -0.174686 0.809371
vn -0.641843 -0.186476 0.743817
vn -0.641843 -0.186476 0.743817
vn -0.560717 -0.174686 0.809371
vn 0.113250 -0.227884 0.967080
vn 0.083504 -0.295937 0.951551
vn 0.083504 -0.295937 0.951551
vn 0.113250 -0.227884 0.967080
vn 0.686728 -0.195888 0.700023
vn 0.685349 -0.249303 0.684211
vn 0.685349 -0.249303 0.684211
vn 0.686728 -0.195888 0.700023
vn 0.958551 -0.120004 0.258415
vn 0.979446 -0.114860 0.165810
vn 0.979446 -0.114860 0.165810
vn 0.958551 -0.120004 0.258415
vn 0.893701 0.059228 -0.444737
vn 0.879553 0.065998 -0.471202
vn 0.879553 0.065998 -0.471202
vn 0.893701 0.059228 -0.444737
vn 0.304959 0.184036 -0.934415
vn 0.289021 0.259458 -0.921493
vn 0.304959 0.184036 -0.934415
vn 0.291184 0.054203 -0.955130
vn -0.607254 0.018803 -0.794285
vn -0.596607 0.153953 -0.787629
vn -0.596607 0.153953 -0.787629
vn -0.607254 0.018803 -0.794285
vn -0.992872 -0.061773 0.101928
vn 0.958551 -0.120004 0.258415
vn 0.926707 -0.023113 -0.375074
vn 0.893701 0.059228 -0.444737
vn 0.893701 0.059228 -0.444737
vn 0.926707 -0.023113 -0.375074
vn 0.291184 0.054203 -0.955130
vn 0.304959 0.184036 -0.934415
vn 0.291184 0.054203 -0.955130
vn 0.241174 -0.016153 -0.970347
vn -0.648845 -0.019448 -0.760672
vn -0.607254 0.018803 -0.794285
vn -0.607254 0.018803 -0.794285
vn -0.648845 -0.019448 -0.760672
vn -0.990891 -0.047221 0.126117
vn -0.992872 -0.061773 0.101928
vn -0.992872 -0.061773 0.101928
vn -0.990891 -0.047221 0.126117
vn -0.535934 -0.078679 0.840586
vn -0.560717 -0.174686 0.809371
vn -0.560717 -0.174686 0.809371
vn -0.535934 -0.078679 0.840586
vn 0.090284 -0.074913 0.993095
vn 0.113250 -0.227884 0.967080
vn 0.113250 -0.227884 0.967080
vn 0.090284 -0.074913 0.993095
vn 0.677967 -0.038874 0.734064
vn 0.686728 -0.195888 0.700023
vn 0.686728 -0.195888 0.700023
vn 0.677967 -0.038874 0.734064
vn 0.958682 -0.043125 0.281192
vn 0.958551 -0.120004 0.258415
vn 0.958551 -0.120004 0.258415
vn 0.958682 -0.043125 0.281192
vn 0.917831 -0.012553 -0.396773
vn 0.926707 -0.023113 -0.375074
vn 0.926707 -0.023113 -0.375074
vn 0.917831 -0.012553 -0.396773
vn 0.241174 -0.016153 -0.970347
vn 0.291184 0.054203 -0.955130
vn -0.558895 0.392170 0.730643
vn -0.558895 0.392170 0.730643
vn 0.013428 0.189635 0.981763
vn -0.618642 0.216185 0.755345
vn 0.275324 0.247581 0.928924
vn 0.275324 0.247581 0.928924
vn 0.690271 0.066648 0.720474
vn 0.013428 0.189635 0.981763
vn -0.371700 -0.014328 -0.928243
vn -0.371700 -0.014328 -0.928243
vn -0.663556 -0.040572 -0.747025
vn 0.188569 -0.044749 -0.981040
vn 0.659312 -0.065609 -0.749002
vn 0.659312 -0.065609 -0.749002
vn 0.188569 -0.044749 -0.981040
vn 0.877987 -0.072714 -0.473130
vn -0.910692 -0.107010 -0.398985
vn -0.910692 -0.107010 -0.398985
vn -0.999629 -0.003636 0.026994
vn -0.663556 -0.040572 -0.747025
vn 0.904089 -0.107202 0.413680
vn 0.904089 -0.107202 0.413680
vn 0.987432 -0.065376 0.143889
vn 0.690271 0.066648 0.720474
vn 0.976111 -0.183277 -0.116695
vn 0.976111 -0.183277 -0.116695
vn 0.877987 -0.072714 -0.473130
vn 0.987432 -0.065376 0.143889
vn 0.241174 -0.016153 -0.970347
vn 0.188569 -0.044749 -0.981040
vn -0.663556 -0.040572 -0.747025
vn -0.648845 -0.019448 -0.760672
vn -0.648845 -0.019448 -0.760672
vn -0.663556 -0.040572 -0.747025
vn -0.999629 -0.003636 0.026994
vn -0.990891 -0.047221 0.126117
vn -0.990891 -0.047221 0.126117
vn -0.999629 -0.003636 0.026994
vn -0.618642 0.216185 0.755345
vn -0.535934 -0.078679 0.840586
vn -0.535934 -0.078679 0.840586
vn -0.618642 0.216185 0.755345
vn 0.013428 0.189635 0.981763
vn 0.090284 -0.074913 0.993095
vn 0.090284 -0.074913 0.993095
vn 0.013428 0.189635 0.981763
vn 0.690271 0.066648 0.720474
vn 0.677967 -0.038874 0.734064
vn 0.677967 -0.038874 0.734064
vn 0.690271 0.066648 0.720474
vn 0.987432 -0.065376 0.143889
vn 0.958682 -0.043125 0.281192
vn 0.958682 -0.043125 0.281192
vn 0.987432 -0.065376 0.143889
vn 0.877987 -0.072714 -0.473130
vn 0.917831 -0.012553 -0.396773
vn 0.917831 -0.012553 -0.396773
vn 0.877987 -0.072714 -0.473130
vn 0.188569 -0.044749 -0.981040
vn 0.241174 -0.016153 -0.970347
vn -0.762696 0.308658 0.568353
vn -0.618642 0.216185 0.755345
vn -0.999629 -0.003636 0.026994
vn -0.973812 -0.195606 0.115880
vn -0.973812 -0.195606 0.115880
vn -0.999629 -0.003636 0.026994
s off
g Right_Calve
usemtl lambert2SG
f 47/1/1 1/2/2 2/3/3 46/4/4
f 46/5/5 2/6/6 3/7/7 45/8/8
f 45/8/9 3/7/10 4/9/11 44/10/12
f 51/11/13 44/10/14 4/9/15 5/12/16
f 51/13/17 5/14/18 6/15/19 50/16/20
f 50/17/21 6/18/22 7/19/23 49/20/24
f 49/20/25 7/19/26 8/21/27 48/22/28
f 48/22/29 8/21/30 1/23/31 47/24/32
f 1/2/33 9/25/34 10/26/35 2/3/36
f 2/6/37 10/27/38 14/28/39 3/7/40
f 3/7/41 14/28/42 15/29/43 4/9/44
f 4/9/45 15/29/46 16/30/47 5/12/48
f 5/14/49 16/31/50 17/32/51 6/15/52
f 6/18/53 17/33/54 18/34/55 7/19/56
f 7/19/57 18/34/58 11/35/59 8/21/60
f 8/21/61 11/35/62 9/36/63 1/23/64
f 9/25/65 12/37/66 13/38/67 10/26/68
f 10/27/69 13/39/70 14/28/71
f 18/34/72 19/40/73 11/35/74
f 11/35/75 19/40/76 12/41/77 9/36/78
f 12/37/79 28/42/80 29/43/81 13/38/82
f 13/39/83 29/44/84 30/45/85 14/28/86
f 14/28/87 30/45/88 31/46/89 15/29/90
f 15/47/91 31/48/92 32/49/93 16/31/94
f 16/31/95 32/49/96 33/50/97 17/32/98
f 17/33/99 33/51/100 34/52/101 18/34/102
f 18/34/103 34/52/104 35/53/105 19/40/106
f 19/40/107 35/53/108 28/54/109 12/41/110
f 36/55/111 37/56/112 24/57/113 23/58/114
f 37/59/115 38/60/116 25/61/117 24/62/118
f 41/63/119 42/64/120 21/65/121 20/66/122
f 40/67/123 41/68/124 20/69/125 27/70/126
f 42/71/127 43/72/128 22/73/129 21/74/130
f 38/75/131 39/76/132 26/77/133 25/78/134
f 39/76/135 40/67/136 27/70/137 26/77/138
f 28/42/139 20/66/140 21/65/141 29/43/142
f 29/44/143 21/74/144 22/73/145 30/45/146
f 30/45/147 22/73/148 23/58/149 31/46/150
f 31/48/151 23/79/152 24/62/153 32/49/154
f 32/49/155 24/62/156 25/61/157 33/50/158
f 33/51/159 25/78/160 26/77/161 34/52/162
f 34/52/163 26/77/164 27/70/165 35/53/166
f 35/53/167 27/70/168 20/69/169 28/54/170
f 36/55/171 23/58/172 22/73/173
f 43/72/174 36/55/175 22/73/176
