# This file uses centimeters as units for non-parametric coordinates.

mtllib human_leftshoe.mtl
g default
v 0.358024 -1.405607 -0.113213
v 0.337609 -1.349257 -0.029975
v 0.357071 -1.420222 -0.229892
v 0.208463 -1.420350 0.064440
v 0.188635 -1.458647 0.051093
v 0.196694 -1.449672 -0.008281
v 0.210195 -1.398374 0.008821
v 0.262242 -1.409333 0.076044
v 0.263606 -1.383789 0.015599
v 0.315848 -1.390043 0.007647
v 0.259907 -1.337512 -0.006537
v 0.358842 -1.419908 -0.004648
v 0.308353 -1.444350 0.161698
v 0.321757 -1.411961 0.063970
v 0.359729 -1.428225 0.053997
v 0.345447 -1.447038 0.123247
v 0.261247 -1.441111 0.169525
v 0.216309 -1.452305 0.158614
v 0.193034 -1.472634 0.124890
v 0.202889 -1.503030 0.116790
v 0.224423 -1.487807 0.165454
v 0.265823 -1.479929 0.179051
v 0.307047 -1.483056 0.161293
v 0.344725 -1.480773 0.121903
v 0.375758 -1.481294 0.038001
v 0.198141 -1.508167 0.036305
v 0.350619 -1.483920 -0.127426
v 0.366830 -1.487631 -0.017830
v 0.216078 -1.506036 -0.017119
v 0.235251 -1.502039 -0.125915
v 0.336624 -1.483931 -0.230296
v 0.290025 -1.430257 -0.286339
v 0.289737 -1.489398 -0.255807
v 0.251350 -1.500349 -0.234431
v 0.216559 -1.435140 -0.243357
v 0.207353 -1.440047 -0.122764
v 0.180241 -1.373176 -0.045981
v 0.189165 -1.422707 -0.140257
vt 0.100336 0.065012
vt 0.109229 0.061021
vt 0.112396 0.069246
vt 0.102795 0.071149
vt 0.117965 0.056510
vt 0.130965 0.066828
vt 0.105570 0.079103
vt 0.114254 0.078358
vt 0.090882 0.073975
vt 0.085240 0.070916
vt 0.133685 0.063874
vt 0.131940 0.076898
vt 0.092427 0.078864
vt 0.084390 0.076747
vt 0.150565 0.065132
vt 0.149596 0.075817
vt 0.114514 0.117829
vt 0.127649 0.108035
vt 0.134079 0.114396
vt 0.132299 0.119351
vt 0.143412 0.117547
vt 0.141910 0.120269
vt 0.112782 0.130686
vt 0.130656 0.130476
vt 0.139699 0.129029
vt 0.095624 0.121076
vt 0.096032 0.131453
vt 0.153326 0.122817
vt 0.153358 0.128320
vt 0.086508 0.123130
vt 0.091919 0.132533
vt 0.159788 0.128399
vt 0.159566 0.122094
vt 0.165427 0.052508
vt 0.175259 0.051837
vt 0.176760 0.060483
vt 0.167717 0.061179
vt 0.166951 0.042728
vt 0.176166 0.043271
vt 0.178891 0.052274
vt 0.185906 0.064953
vt 0.152324 0.060601
vt 0.150213 0.053365
vt 0.151137 0.045637
vt 0.182130 0.039448
vt 0.157122 0.039311
vt 0.168292 0.036470
vt 0.146297 0.082793
vt 0.156189 0.095215
vt 0.146519 0.105926
vt 0.152991 0.088635
vt 0.154283 0.102058
vt 0.132404 0.078363
vt 0.133449 0.107298
vt 0.123379 0.080232
vt 0.124616 0.104774
vt 0.106758 0.102461
vt 0.105654 0.083687
vt 0.085203 0.094554
vt 0.089008 0.086730
vt 0.088969 0.100646
vt 0.158503 0.066589
vt 0.165904 0.068077
vt 0.164846 0.073918
vt 0.158047 0.072943
vt 0.150857 0.067466
vt 0.151357 0.073759
vt 0.161736 0.074444
vt 0.167886 0.084804
vt 0.155960 0.086145
vt 0.155567 0.076513
vn -0.658830 0.713055 0.239782
vn -0.776284 0.499745 0.384236
vn -0.991135 -0.110435 -0.073859
vn -0.995410 0.095570 0.004990
vn -0.078439 0.934524 0.347150
vn -0.083391 0.780196 0.619951
vn -0.776284 0.499745 0.384236
vn -0.658830 0.713055 0.239782
vn 0.709231 0.381698 0.592704
vn -0.110143 0.496118 0.861240
vn -0.083391 0.780196 0.619951
vn 0.491583 0.721475 0.487667
vn 0.999831 -0.004547 0.017798
vn 0.709231 0.381698 0.592704
vn 0.491583 0.721475 0.487667
vn 0.922966 0.375959 0.082399
vn 0.441249 0.525689 0.727290
vn 0.762664 0.433769 0.479780
vn 0.809736 0.549990 0.204545
vn 0.318167 0.896432 0.308510
vn -0.059208 0.636142 0.769297
vn 0.441249 0.525689 0.727290
vn 0.318167 0.896432 0.308510
vn -0.078439 0.934524 0.347150
vn -0.630119 0.433066 0.644518
vn -0.059208 0.636142 0.769297
vn -0.078439 0.934524 0.347150
vn -0.658830 0.713055 0.239782
vn -0.952665 0.047693 0.300257
vn -0.630119 0.433066 0.644518
vn -0.658830 0.713055 0.239782
vn -0.995410 0.095570 0.004990
vn -0.936495 -0.248861 0.247072
vn -0.593270 -0.035841 0.804205
vn -0.630119 0.433066 0.644518
vn -0.952665 0.047693 0.300257
vn -0.059208 0.636142 0.769297
vn -0.630119 0.433066 0.644518
vn -0.593270 -0.035841 0.804205
vn -0.000827 0.145748 0.989321
vn 0.441249 0.525689 0.727290
vn -0.059208 0.636142 0.769297
vn -0.000827 0.145748 0.989321
vn 0.520107 0.045519 0.852887
vn 0.520107 0.045519 0.852887
vn 0.860763 0.037209 0.507644
vn 0.762664 0.433769 0.479780
vn 0.441249 0.525689 0.727290
vn 0.128487 -0.988600 0.078497
vn 0.107440 -0.977162 0.183332
vn 0.142535 -0.981792 0.125573
vn 0.809736 0.549990 0.204545
vn 0.762664 0.433769 0.479780
vn 0.860763 0.037209 0.507644
vn 0.982221 0.175844 0.065736
vn 0.107440 -0.977162 0.183332
vn 0.098479 -0.961340 0.257152
vn 0.142535 -0.981792 0.125573
vn -0.966116 -0.224276 -0.127748
vn -0.936495 -0.248861 0.247072
vn -0.952665 0.047693 0.300257
vn -0.995410 0.095570 0.004990
vn 0.142988 -0.988281 0.053426
vn 0.128487 -0.988600 0.078497
vn 0.142535 -0.981792 0.125573
vn 0.144038 -0.988094 0.054067
vn 0.993295 -0.095968 -0.064465
vn 0.999831 -0.004547 0.017798
vn 0.922966 0.375959 0.082399
vn 0.991658 0.102477 -0.078185
vn -0.966116 -0.224276 -0.127748
vn -0.995410 0.095570 0.004990
vn -0.991135 -0.110435 -0.073859
vn -0.938537 -0.290098 -0.187062
vn 0.155241 -0.987495 -0.027449
vn 0.141477 -0.989461 -0.030830
vn 0.136101 -0.990622 0.012052
vn 0.136119 -0.990586 0.014549
vn 0.876022 -0.110660 -0.469405
vn 0.999831 -0.004547 0.017798
vn 0.993295 -0.095968 -0.064465
vn 0.829610 -0.264412 -0.491766
vn 0.116599 -0.200110 -0.972811
vn 0.876022 -0.110660 -0.469405
vn 0.829610 -0.264412 -0.491766
vn 0.043957 -0.388791 -0.920277
vn 0.188332 -0.982068 -0.008550
vn 0.141477 -0.989461 -0.030830
vn 0.155241 -0.987495 -0.027449
vn -0.719838 -0.453915 -0.525161
vn -0.728743 -0.368622 -0.577107
vn 0.116599 -0.200110 -0.972811
vn 0.043957 -0.388791 -0.920277
vn 0.155241 -0.987495 -0.027449
vn 0.288578 -0.957049 0.027912
vn 0.188332 -0.982068 -0.008550
vn 0.188332 -0.982068 -0.008550
vn 0.124853 -0.992032 -0.016878
vn 0.141477 -0.989461 -0.030830
vn 0.128487 -0.988600 0.078497
vn -0.165076 -0.962852 -0.213695
vn 0.107440 -0.977162 0.183332
vn -0.776284 0.499745 0.384236
vn -0.902825 0.041844 0.427967
vn -0.874765 -0.484396 -0.012077
vn -0.991135 -0.110435 -0.073859
vn -0.083391 0.780196 0.619951
vn -0.110143 0.496118 0.861240
vn -0.902825 0.041844 0.427967
vn -0.776284 0.499745 0.384236
vn -0.083391 0.780196 0.619951
vn -0.078439 0.934524 0.347150
vn 0.318167 0.896432 0.308510
vn 0.491583 0.721475 0.487667
vn 0.491583 0.721475 0.487667
vn 0.318167 0.896432 0.308510
vn 0.809736 0.549990 0.204545
vn 0.922966 0.375959 0.082399
vn 0.922966 0.375959 0.082399
vn 0.809736 0.549990 0.204545
vn 0.982221 0.175844 0.065736
vn 0.991658 0.102477 -0.078185
vn -0.991135 -0.110435 -0.073859
vn -0.874765 -0.484396 -0.012077
vn -0.906814 -0.401869 -0.127238
vn -0.938537 -0.290098 -0.187062
vn 0.136101 -0.990622 0.012052
vn 0.142988 -0.988281 0.053426
vn 0.144038 -0.988094 0.054067
vn 0.136119 -0.990586 0.014549
vn -0.902825 0.041844 0.427967
vn -0.860631 -0.509198 -0.005565
vn -0.874765 -0.484396 -0.012077
vn -0.860631 -0.509198 -0.005565
vn -0.728743 -0.368622 -0.577107
vn -0.874765 -0.484396 -0.012077
vn -0.728743 -0.368622 -0.577107
vn -0.719838 -0.453915 -0.525161
vn -0.906814 -0.401869 -0.127238
vn -0.874765 -0.484396 -0.012077
s off
g Left_Shoe
usemtl lambert2SG
f 4/1/1 7/2/2 6/3/3 5/4/4
f 8/34/5 9/35/6 7/36/7 4/37/8
f 2/45/9 11/40/10 9/35/11 10/39/12
f 1/17/13 2/18/14 10/19/15 12/20/16
f 13/44/17 16/46/18 15/47/19 14/38/20
f 17/43/21 13/44/22 14/38/23 8/34/24
f 18/42/25 17/43/26 8/34/27 4/37/28
f 19/9/29 18/10/30 4/1/31 5/4/32
f 20/13/33 21/14/34 18/10/35 19/9/36
f 17/62/37 18/63/38 21/64/39 22/65/40
f 13/66/41 17/62/42 22/65/43 23/67/44
f 23/32/45 24/29/46 16/28/47 13/33/48
f 24/48/49 22/49/50 20/50/51
f 15/22/52 16/28/53 24/29/54 25/25/55
f 22/49/56 21/52/57 20/50/58
f 26/7/59 20/13/60 19/9/61 5/4/62
f 25/53/63 24/48/64 20/50/65 26/54/66
f 27/23/67 1/17/68 12/20/69 28/24/70
f 26/7/71 5/4/72 6/3/73 29/8/74
f 30/57/75 27/58/76 28/55/77 29/56/78
f 3/26/79 1/17/80 27/23/81 31/27/82
f 32/30/83 3/26/84 31/27/85 33/31/86
f 33/59/87 27/58/88 30/57/89
f 34/68/90 35/69/91 32/70/92 33/71/93
f 30/57/94 34/61/95 33/59/96
f 33/59/97 31/60/98 27/58/99
f 24/48/100 23/51/101 22/49/102
f 7/2/103 37/5/104 36/6/105 6/3/106
f 9/35/107 11/40/108 37/41/109 7/36/110
f 9/35/111 8/34/112 14/38/113 10/39/114
f 10/19/115 14/21/116 15/22/117 12/20/118
f 12/20/119 15/22/120 25/25/121 28/24/122
f 6/3/123 36/6/124 30/12/125 29/8/126
f 28/55/127 25/53/128 26/54/129 29/56/130
f 37/5/131 38/11/132 36/6/133
f 38/11/134 35/15/135 36/6/136
f 35/15/137 34/16/138 30/12/139 36/6/140
