# This file uses centimeters as units for non-parametric coordinates.

mtllib Ramp1.mtl
g default
v 286.298401 -1.986731 -26.005142
v -288.160645 -0.173750 -22.764793
v -286.910828 -0.173750 25.959667
v 288.164001 -1.986731 22.719276
v 286.298401 1.986761 -26.005142
v 288.164001 1.986761 22.719276
v -288.160645 0.479631 -22.764793
v -286.910828 0.479631 25.959667
v -287.902405 -0.173742 23.748772
v 287.172333 -1.986723 20.508419
v 287.271606 -1.986723 -23.547615
v -287.803101 -0.173742 -20.307247
v -287.803101 -0.173750 -20.307247
v 287.271606 -1.986731 -23.547615
v -287.902405 0.479631 23.748772
v -287.803101 0.479631 -20.307247
v 287.271606 1.986761 -23.547615
v 287.172333 1.986761 20.508419
v -287.803101 0.479631 -20.307247
v -287.902405 0.479631 23.748772
vt 0.715922 0.038680
vt 0.720631 0.038680
vt 0.723022 0.993699
vt 0.722247 0.993699
vt 0.812431 0.006302
vt 0.813721 0.004093
vt 0.808289 0.959112
vt 0.806999 0.961321
vt 0.784927 0.038680
vt 0.789636 0.038680
vt 0.783312 0.993700
vt 0.782537 0.993700
vt 0.855826 0.014426
vt 0.855826 0.012995
vt 0.856600 0.012995
vt 0.856600 0.014426
vt 0.801298 0.004093
vt 0.441254 0.032315
vt 0.446907 0.501261
vt 0.795867 0.959112
vt 0.130281 0.019551
vt 0.164821 0.003294
vt 0.164821 0.012995
vt 0.441254 0.032315
vt 0.123244 0.046380
vt 0.446907 0.501261
vt 0.934663 0.651649
vt 0.934903 0.651649
vt 0.743621 0.345345
vt 0.732939 0.350373
vt 0.007672 0.998008
vt 0.002240 0.042989
vt 0.011941 0.038679
vt 0.017373 0.993699
vn -0.005641 0.000000 -0.999984
vn -0.005641 0.000000 -0.999984
vn -0.005641 0.000000 -0.999984
vn -0.005641 0.000000 -0.999984
vn -0.003145 -0.999994 0.001407
vn -0.003145 -0.999994 0.001407
vn -0.003145 -0.999994 0.001407
vn -0.003145 -0.999994 0.001407
vn 0.005635 0.000000 0.999984
vn 0.005635 0.000000 0.999984
vn 0.005635 0.000000 0.999984
vn 0.005635 0.000000 0.999984
vn -0.989582 0.000000 0.143972
vn -0.999985 0.000000 0.005552
vn -0.999985 0.000000 0.005552
vn -0.989582 0.000000 0.143972
vn -0.003149 -0.999995 0.000853
vn -0.003149 -0.999995 0.000853
vn -0.003149 -0.999995 0.000853
vn -0.003149 -0.999995 0.000853
vn -0.999998 0.000000 -0.002254
vn -0.999998 0.000000 -0.002254
vn -0.003153 -0.999995 -0.000007
vn -0.003153 -0.999995 -0.000007
vn -0.003153 -0.999995 -0.000007
vn -0.003153 -0.999995 -0.000007
vn -0.912435 0.000000 0.409223
vn -0.912435 0.000000 0.409223
vn -0.912435 0.000000 0.409223
vn -0.912435 0.000000 0.409223
vn -0.002621 0.999997 -0.000006
vn -0.002621 0.999997 -0.000006
vn -0.002621 0.999997 -0.000006
vn -0.002621 0.999997 -0.000006
s off
g polySurface73
usemtl lambert4SG
f 5/1/1 1/2/2 2/3/3 7/4/4
f 10/5/5 4/6/6 3/7/7 9/8/8
f 4/9/9 6/10/10 8/11/11 3/12/12
s 1
f 2/13/13 13/14/14 16/15/15 7/16/16
s off
f 1/17/17 14/18/18 13/19/19 2/20/20
s 1
f 13/19/14 9/21/21 15/22/22 16/23/15
s off
f 11/24/23 10/25/24 9/21/25 12/26/26
f 3/27/27 8/28/28 15/29/29 9/30/30
f 20/31/31 18/32/32 17/33/33 19/34/34
