# This file uses centimeters as units for non-parametric coordinates.

mtllib RampSupport.mtl
g default
v 5.737137 10.144735 -24.076508
v -7.602768 -13.474987 -24.647915
v 5.737137 -14.236916 -24.076508
v 7.602783 -14.236916 24.647888
v 7.602783 10.144735 24.647888
v -5.737183 -13.474987 24.076506
v 6.710449 -14.236916 -21.618999
v 6.710449 10.144735 -21.618999
v -6.629547 -13.474987 -22.190388
v 6.611160 -14.236916 22.437017
v 6.611160 10.144735 22.437017
v -6.728821 -13.474987 21.865643
v -7.602768 10.263424 -24.647915
v -7.602768 14.236916 -24.647915
v -6.728821 14.236916 21.865643
v -6.629547 14.236916 -22.190388
v -5.737183 14.236916 24.076506
v -5.737183 10.263424 24.076506
v -6.728821 10.263424 21.865643
v -6.629547 10.263424 -22.190388
vt 0.028852 0.038680
vt 0.028994 0.001992
vt 0.057886 0.001992
vt 0.056982 0.038680
vt 0.819486 0.001992
vt 0.820776 0.001992
vt 0.820776 0.030885
vt 0.819486 0.030885
vt 0.065018 0.038680
vt 0.064115 0.001992
vt 0.093008 0.001992
vt 0.093148 0.038680
vt 0.692120 0.004092
vt 0.693410 0.006301
vt 0.694019 0.042989
vt 0.692729 0.040780
vt 0.028852 0.038680
vt 0.024143 0.038680
vt 0.093148 0.038680
vt 0.097857 0.038680
vt 0.830477 0.001992
vt 0.831908 0.001992
vt 0.831908 0.030885
vt 0.830477 0.030885
vt 0.703720 0.038679
vt 0.703111 0.001992
vt 0.704542 0.004092
vt 0.705151 0.040780
vt 0.145877 0.001992
vt 0.147309 0.001992
vt 0.147309 0.030122
vt 0.145877 0.030122
vt 0.128997 0.001992
vt 0.138699 0.001992
vt 0.138699 0.030885
vt 0.128997 0.030885
vt 0.002240 0.042989
vt 0.001631 0.006301
vt 0.011332 0.001992
vt 0.011941 0.038679
vt 0.157009 0.001992
vt 0.123244 0.046380
vt 0.441254 0.032315
vn 0.042795 0.000000 -0.999084
vn 0.042795 0.000000 -0.999084
vn 0.042795 0.000000 -0.999084
vn 0.042795 0.000000 -0.999084
vn 0.912426 0.000000 -0.409243
vn 0.999814 0.000000 -0.019283
vn 0.999814 0.000000 -0.019283
vn 0.912426 0.000000 -0.409243
vn -0.042793 0.000000 0.999084
vn -0.042793 0.000000 0.999084
vn -0.042793 0.000000 0.999084
vn -0.042793 0.000000 0.999084
vn 0.295869 0.945966 -0.132705
vn 0.293558 0.955912 -0.007526
vn 0.293420 0.955976 -0.003833
vn 0.295869 0.945965 -0.132705
vn 0.042795 0.000000 -0.999084
vn 0.042795 0.000000 -0.999084
vn 0.042795 0.000000 -0.999084
vn -0.042793 0.000000 0.999084
vn -0.042793 0.000000 0.999084
vn -0.042793 0.000000 0.999084
vn 0.999824 0.000000 -0.018787
vn 0.929736 0.000000 -0.368228
vn 0.929736 0.000000 -0.368228
vn 0.999824 0.000000 -0.018787
vn 0.293545 0.955918 -0.007168
vn 0.293422 0.955975 -0.003894
vn 0.295836 0.948026 -0.117162
vn 0.295836 0.948026 -0.117162
vn -0.929749 0.000000 0.368195
vn -0.999824 0.000000 0.018786
vn -0.999824 0.000000 0.018786
vn -0.929749 0.000000 0.368195
vn -0.999997 0.000000 -0.002253
vn -0.999997 0.000000 -0.002253
vn -0.912423 0.000000 0.409249
vn -0.912423 0.000000 0.409249
vn -0.912423 0.000000 0.409249
vn -0.912423 0.000000 0.409249
s off
g polySurface91
usemtl lambert4SG
f 13/1/1 1/2/2 3/3/3 2/4/4
s 1
f 4/5/5 10/6/6 11/7/7 5/8/8
s off
f 6/9/9 4/10/10 5/11/11 18/12/12
s 2
f 5/13/13 11/14/14 15/15/15 17/16/16
s off
f 1/2/17 13/17/18 14/18/19
f 18/19/20 5/11/21 17/20/22
s 1
f 7/21/23 3/22/24 1/23/25 8/24/26
s 2
f 16/25/27 8/26/28 1/27/29 14/28/30
s 3
f 2/29/31 9/30/32 20/31/33 13/32/34
s 1
f 10/33/6 7/34/23 8/35/26 11/36/7
s 2
f 15/37/15 11/38/14 8/39/28 16/40/27
s 3
f 9/30/32 12/41/35 19/42/36 20/43/33
s off
f 6/9/37 18/12/38 19/42/39 12/41/40
