# This file uses centimeters as units for non-parametric coordinates.

mtllib Ramp1BarrierLeft.mtl
g default
v -411.185425 -4.049309 -4.371149
v 410.925476 -4.049309 -4.371149
v -411.185425 4.049309 -4.371149
v -411.185425 3.165104 -4.371149
v 410.925476 4.049309 -4.371149
v 410.925476 3.165104 -4.371149
v -386.776733 4.049309 4.371161
v 386.532196 4.049309 4.371161
v 462.323608 4.049309 -4.371149
v 462.323608 3.165104 -4.371149
v 434.879272 4.049309 4.371161
v 434.879272 -3.165105 4.371161
v 462.323608 -4.049309 -4.371149
v -462.323608 4.049309 -4.371149
v -462.323608 3.165104 -4.371149
v -434.879272 4.049309 4.371161
v -462.323608 -4.049309 -4.371149
v 386.532196 -3.165105 4.371161
v -386.776733 -3.165105 4.371161
v -434.879272 -3.165105 4.371161
vt 1.860797 0.107598
vt 1.869537 0.107643
vt 1.868723 0.265500
vt 1.859983 0.265455
vt 2.009880 0.108366
vt 2.009066 0.266224
vt 1.860797 0.107598
vt 1.869537 0.107643
vt 2.009880 0.108366
vt 2.018654 0.108412
vt 2.018654 0.108412
vt 1.868723 0.265500
vt 1.859983 0.265455
vt 2.017840 0.266269
vt 2.009066 0.266224
vt 2.017840 0.266269
vt 1.860797 0.107598
vt 1.869537 0.107643
vt 2.009880 0.108366
vt 2.018654 0.108412
vt 2.009880 0.108366
vn 0.000000 0.000000 -1.000000
vn 0.000000 0.000000 -1.000000
vn 0.000000 0.000000 -1.000000
vn 0.000000 0.000000 -1.000000
vn 0.000000 0.000000 -1.000000
vn 0.000000 0.000000 -1.000000
vn 0.000000 0.000000 -1.000000
vn 0.000000 0.000000 -1.000000
vn 0.000000 1.000000 0.000000
vn 0.000000 1.000000 0.000000
vn 0.000000 1.000000 0.000000
vn 0.000000 1.000000 0.000000
vn 0.000000 1.000000 0.000000
vn 0.000000 1.000000 0.000000
vn 0.000000 1.000000 0.000000
vn 0.000000 1.000000 0.000000
vn 0.000000 1.000000 -0.000000
vn 0.000000 1.000000 -0.000000
vn 0.000000 1.000000 -0.000000
vn 0.000000 1.000000 -0.000000
vn 0.000000 0.000000 -1.000000
vn 0.000000 0.000000 -1.000000
vn 0.000000 0.000000 -1.000000
vn 0.000000 0.000000 -1.000000
vn 0.000000 0.000000 -1.000000
vn 0.000000 0.000000 -1.000000
vn 0.000000 0.000000 -1.000000
vn 0.000000 0.000000 -1.000000
vn 0.000000 0.000000 -1.000000
vn 0.000000 0.000000 -1.000000
vn 0.000000 0.000000 -1.000000
vn 0.000000 0.000000 -1.000000
vn 0.000000 0.000000 1.000000
vn 0.000000 0.000000 1.000000
vn 0.000000 0.000000 1.000000
vn 0.000000 0.000000 1.000000
vn 0.000000 0.000000 1.000000
vn 0.000000 0.000000 1.000000
vn 0.000000 0.000000 1.000000
vn 0.000000 0.000000 1.000000
vn 0.000000 0.000000 1.000000
vn 0.000000 0.000000 1.000000
vn 0.000000 0.000000 1.000000
vn 0.000000 0.000000 1.000000
s off
g polySurface85 LeftOuter
usemtl initialShadingGroup
f 14/1/1 3/2/2 4/3/3 15/4/4
f 4/3/5 3/2/6 5/5/7 6/6/8
f 16/7/9 7/8/10 3/2/11 14/1/12
f 8/9/13 11/10/14 9/11/15 5/5/16
f 7/8/17 8/9/18 5/5/19 3/2/20
f 1/12/21 17/13/22 15/4/23 4/3/24
f 13/14/25 2/15/26 6/6/27 10/16/28
f 2/15/29 1/12/30 4/3/31 6/6/32
f 20/17/33 19/18/34 7/8/35 16/7/36
f 18/19/37 12/20/38 11/10/39 8/9/40
f 19/18/41 18/21/42 8/9/43 7/8/44
