# This file uses centimeters as units for non-parametric coordinates.

mtllib Ramp.mtl
g default
v 286.296722 -2.041556 -24.252468
v -288.162323 -0.125546 -21.227873
v -286.912506 -0.125546 24.252468
v 288.162323 -1.931935 21.227816
v -287.904083 -0.125539 22.188780
v 287.170654 -1.938519 19.164170
v 287.269928 -1.938519 -21.958559
v -287.804779 -0.125539 -18.933949
v -287.804779 -0.125546 -18.933949
v 287.269928 -1.938527 -21.958559
v -287.904083 0.527835 22.188780
v -287.804779 0.527835 -18.933949
v 286.296722 1.931935 -24.252468
v -288.162323 0.527835 -21.227873
v 287.269928 2.034965 -21.958559
v 288.162323 2.041556 21.227816
v -286.912506 0.527835 24.252468
v 287.170654 2.034965 19.164170
v 287.170654 2.034965 19.164170
v -287.904083 0.527835 22.188780
v 287.269928 2.034965 -21.958559
v -287.804779 0.527835 -18.933949
vt 0.238165 0.086236
vt 0.238165 0.081987
vt 0.239295 0.081987
vt 0.239295 0.086236
vt 0.238165 0.005815
vt 0.239295 0.005815
vt 0.238165 0.001992
vt 0.239295 0.001992
vt 0.245585 0.078165
vt 0.245585 0.001992
vt 0.252455 0.001992
vt 0.252455 0.078165
vt 0.856392 0.002170
vt 0.860641 0.001992
vt 0.860641 0.008862
vt 0.856392 0.009040
vt 0.867522 0.002003
vt 0.871345 0.001992
vt 0.871345 0.008862
vt 0.867522 0.008874
vt 0.000546 0.003707
vt 0.004369 0.001992
vt 0.009971 0.996294
vt 0.006149 0.998008
vt 0.017426 0.003675
vt 0.021675 0.001992
vt 0.027278 0.996293
vt 0.023029 0.996912
vt 0.034121 0.001992
vt 0.110293 0.002164
vt 0.115896 0.996465
vt 0.039723 0.996293
vt 0.123158 0.996465
vt 0.128761 0.002164
vt 0.204933 0.001992
vt 0.199331 0.996293
vt 0.225180 0.001992
vt 0.232051 0.001992
vt 0.228738 0.995229
vt 0.227608 0.995229
vt 0.212196 0.001992
vt 0.219066 0.001992
vt 0.216449 0.996293
vt 0.215319 0.996293
vn -0.005265 0.000000 -0.999986
vn -0.005265 0.000000 -0.999986
vn -0.005265 0.000000 -0.999986
vn -0.005265 0.000000 -0.999986
vn -0.003131 -0.999990 0.003098
vn -0.003131 -0.999990 0.003098
vn -0.003131 -0.999990 0.003098
vn -0.003131 -0.999990 0.003098
vn 0.005260 0.000000 0.999986
vn 0.005260 0.000000 0.999986
vn 0.005260 0.000000 0.999986
vn 0.005260 0.000000 0.999986
vn -0.988070 0.000000 0.154006
vn -0.999982 0.000000 0.005948
vn -0.999982 0.000000 0.005948
vn -0.988070 0.000000 0.154006
vn -0.003120 -0.999722 0.023356
vn -0.003120 -0.999722 0.023356
vn -0.003120 -0.999722 0.023356
vn -0.003120 -0.999722 0.023356
vn -0.999997 0.000000 -0.002415
vn -0.999997 0.000000 -0.002415
vn -0.003153 -0.999995 -0.000008
vn -0.003153 -0.999995 -0.000008
vn -0.003153 -0.999995 -0.000008
vn -0.003153 -0.999995 -0.000008
vn -0.901351 0.000000 0.433089
vn -0.901351 0.000000 0.433089
vn -0.901351 0.000000 0.433089
vn -0.901351 0.000000 0.433089
vn -0.002621 0.999997 -0.000006
vn -0.002621 0.999997 -0.000006
vn -0.002621 0.999997 -0.000006
vn -0.002621 0.999997 -0.000006
vn 0.999997 0.000000 0.002414
vn 0.999997 0.000000 0.002414
vn 0.999997 0.000000 0.002414
vn 0.999997 0.000000 0.002414
vn 0.920577 0.000000 -0.390561
vn 0.920577 0.000000 -0.390561
vn 0.920577 0.000000 -0.390561
vn 0.920577 0.000000 -0.390561
vn 0.901332 0.000000 -0.433128
vn 0.901332 0.000000 -0.433128
vn 0.901332 0.000000 -0.433128
vn 0.901332 0.000000 -0.433128
s off
g polySurface98 polySurface73
usemtl lambert7SG
f 13/37/1 1/38/2 2/39/3 14/40/4
f 6/21/5 4/22/6 3/23/7 5/24/8
f 4/41/9 16/42/10 17/43/11 3/44/12
s 1
f 2/1/13 9/2/14 12/3/15 14/4/16
s off
f 1/25/17 10/26/18 9/27/19 2/28/20
s 1
f 9/2/14 5/5/21 11/6/22 12/3/15
s off
f 7/29/23 6/30/24 5/31/25 8/32/26
f 3/7/27 17/8/28 11/6/29 5/5/30
f 20/33/31 19/34/32 21/35/33 22/36/34
f 6/9/35 7/10/36 21/11/37 19/12/38
f 10/13/39 1/14/40 13/15/41 15/16/42
f 4/17/43 6/18/44 18/19/45 16/20/46
