# This file uses centimeters as units for non-parametric coordinates.

mtllib Ramp1.mtl
g default
v 163.906883 7.678364 -30.017771
v 177.252542 7.559666 -30.521557
v 163.906883 -16.060055 -30.017771
v 177.252544 -16.821985 -30.521544
v 163.906883 11.651856 -30.017771
v -180.591203 5.661262 4.735955
v -180.591203 6.314644 4.735955
v 180.710301 -16.821985 -4.751936
v 180.710301 7.559666 -4.751936
v 167.364648 11.651856 -4.248101
v -177.133400 6.314644 30.505645
v -177.133400 5.661262 30.505645
v 167.364648 7.678364 -4.248101
v 167.364648 -16.060055 -4.248101
v 178.405133 -16.821985 -27.653734
v 178.405133 7.559666 -27.653734
v 165.059474 11.651856 -27.149949
v -179.438646 6.314644 7.603782
v -179.438646 5.661262 7.603782
v 165.059474 7.678364 -27.149949
v 165.059474 -16.060055 -27.149949
v 179.557702 -16.821985 -7.321551
v 179.557702 7.559666 -7.321551
v 166.212064 11.651856 -6.817731
v -178.285968 6.314644 27.936001
v -178.285968 5.661262 27.936001
v 166.212064 7.678364 -6.817731
v 166.212064 -16.060055 -6.817731
v 167.288020 16.821965 -4.213739
v -177.210045 11.484753 30.540010
v 166.135436 16.821965 -6.783369
v -178.362647 11.484753 27.970369
v 164.982493 16.821985 -27.118992
v -179.515575 11.484773 7.634732
v 163.829902 16.821985 -29.986814
v -180.668166 11.484773 4.766910
vt 0.204322 0.001992
vt 0.214023 0.001992
vt 0.214023 0.030884
vt 0.204322 0.030884
vt 0.215456 0.001992
vt 0.215456 0.030884
vt 0.203033 0.001992
vt 0.203033 0.030884
vt 0.239826 0.012995
vt 0.239826 0.003294
vt 0.240601 0.003294
vt 0.240601 0.012995
vt 0.239826 0.002003
vt 0.240601 0.002003
vt 0.239826 0.014426
vt 0.937235 0.029404
vt 0.246728 0.001992
vt 0.246728 0.003282
vt 0.943362 0.027962
vt 0.943362 0.029394
vt 0.222861 0.001992
vt 0.232562 0.001992
vt 0.232562 0.030122
vt 0.222861 0.030122
vt 0.233852 0.001992
vt 0.233852 0.030122
vt 0.221430 0.001992
vt 0.221430 0.030122
vt 0.885395 0.971988
vt 0.879962 0.016970
vt 0.881253 0.019178
vt 0.886683 0.974197
vt 0.133137 0.006302
vt 0.134426 0.004093
vt 0.128995 0.959111
vt 0.127704 0.961320
vt 0.123435 0.001992
vt 0.118003 0.957011
vt 0.122004 0.004093
vt 0.116572 0.959111
vt 0.000492 0.004092
vt 0.001781 0.006301
vt 0.002392 0.042989
vt 0.001101 0.040779
vt 0.011482 0.001992
vt 0.012093 0.038680
vt 0.012915 0.004092
vt 0.013523 0.040779
vt 0.007822 0.998008
vt 0.017523 0.993698
vt 0.898272 0.971988
vt 0.892839 0.016970
vt 0.894270 0.019069
vt 0.899702 0.974088
vt 0.035426 0.038679
vt 0.035566 0.001992
vt 0.064459 0.001992
vt 0.063555 0.038679
vt 0.820888 0.015715
vt 0.037814 0.993698
vt 0.037040 0.993698
vt 0.821084 0.970955
vt 0.814762 0.015939
vt 0.943651 0.047851
vt 0.937525 0.048075
vt 0.099615 0.038680
vt 0.104323 0.038680
vt 0.839508 0.970735
vt 0.097225 0.993698
vt 0.099474 0.001992
vt 0.851959 0.015939
vt 0.845635 0.970958
vt 0.071484 0.038680
vt 0.070582 0.001992
vt 0.867692 0.019181
vt 0.874015 0.974197
vt 0.867889 0.974420
vt 0.861566 0.019401
vt 0.867692 0.016970
vt 0.861566 0.017193
vt 0.905716 0.971988
vt 0.912041 0.016970
vt 0.918168 0.017191
vt 0.911843 0.972210
vt 0.937525 0.050176
vt 0.240601 0.014426
vt 0.827210 0.970735
vt 0.030717 0.038679
vt 0.943651 0.049952
vt 0.937235 0.027972
vt 0.861566 0.019401
vt 0.240601 0.003294
vt 0.867692 0.019181
vt 0.097999 0.993698
vt 0.240601 0.002003
vt 0.845832 0.015717
vn -0.037722 -0.000000 -0.999288
vn -0.037722 -0.000000 -0.999288
vn -0.037722 -0.000000 -0.999288
vn -0.037722 -0.000000 -0.999288
vn -0.100419 0.003069 -0.994940
vn -0.100373 0.000000 -0.994950
vn -0.100373 0.000000 -0.994950
vn -0.100420 0.003096 -0.994940
vn 0.912416 0.000000 -0.409264
vn 0.994973 0.000000 -0.100148
vn 0.994973 0.000000 -0.100148
vn 0.912416 0.000000 -0.409264
vn -0.014820 0.999868 0.006647
vn -0.014820 0.999868 0.006647
vn -0.014820 0.999868 0.006647
vn -0.014820 0.999868 0.006647
vn -0.994972 0.000000 0.100151
vn -0.912422 0.000000 0.409251
vn -0.912325 -0.014394 0.409213
vn -0.966381 -0.008177 0.256985
vn 0.005789 -0.999983 -0.000653
vn 0.005602 -0.999981 -0.002513
vn 0.005602 -0.999981 -0.002513
vn 0.005809 -0.999983 -0.000452
vn -0.994973 0.000000 0.100148
vn -0.912419 0.000000 0.409257
vn -0.912419 0.000000 0.409257
vn -0.994973 0.000000 0.100148
vn 0.100373 0.000000 0.994950
vn 0.100426 -0.003524 0.994938
vn 0.100427 -0.003556 0.994938
vn 0.100373 0.000000 0.994950
vn 0.037726 0.000000 0.999288
vn 0.037726 0.000000 0.999288
vn 0.037726 0.000000 0.999288
vn 0.037726 0.000000 0.999288
vn 0.286297 0.949496 -0.128417
vn 0.291861 0.955892 -0.032983
vn 0.292299 0.956057 -0.022724
vn 0.286297 0.949496 -0.128417
vn -0.037722 0.000000 -0.999288
vn -0.037722 0.000000 -0.999288
vn -0.037722 0.000000 -0.999288
vn 0.037726 0.000000 0.999288
vn 0.037726 0.000000 0.999288
vn 0.037726 0.000000 0.999288
vn 0.995100 -0.000000 -0.098873
vn 0.927866 -0.000000 -0.372914
vn 0.927866 -0.000000 -0.372914
vn 0.995100 -0.000000 -0.098873
vn 0.291900 0.955910 -0.032099
vn 0.292275 0.956050 -0.023301
vn 0.287213 0.950886 -0.115432
vn 0.287213 0.950886 -0.115432
vn -0.014887 0.999871 0.005983
vn -0.014887 0.999871 0.005983
vn -0.014887 0.999871 0.005983
vn -0.014887 0.999871 0.005983
vn -0.927870 0.000000 0.372904
vn -0.995100 0.000000 0.098876
vn -0.970667 -0.008219 0.240288
vn -0.927774 -0.014267 0.372870
vn 0.005627 -0.999982 -0.002261
vn 0.005808 -0.999983 -0.000464
vn 0.005791 -0.999983 -0.000635
vn 0.005627 -0.999982 -0.002261
vn -0.927866 0.000000 0.372914
vn -0.995100 0.000000 0.098874
vn -0.995100 0.000000 0.098874
vn -0.927866 0.000000 0.372914
vn -0.015403 0.999881 0.000873
vn -0.015403 0.999881 0.000873
vn -0.015403 0.999881 0.000873
vn -0.015403 0.999881 0.000873
vn 0.100450 -0.005124 0.994929
vn 0.100450 -0.005124 0.994929
vn 0.912299 0.016241 -0.409203
vn 0.912299 0.016241 -0.409203
vn 0.912299 0.016241 -0.409203
vn 0.912299 0.016241 -0.409203
vn -0.100450 0.005124 -0.994929
vn -0.100450 0.005124 -0.994929
vn -0.100450 0.005124 -0.994929
vn -0.100450 0.005124 -0.994929
vn -0.912299 -0.016249 0.409202
vn -0.912299 -0.016249 0.409202
vn 0.100440 -0.004462 0.994933
vn 0.100440 -0.004462 0.994933
vn 0.100440 -0.004462 0.994933
vn 0.100440 -0.004462 0.994933
vn 0.927747 0.016046 -0.372866
vn 0.927747 0.016046 -0.372866
vn 0.927747 0.016046 -0.372866
vn 0.927747 0.016046 -0.372866
vn -0.100440 0.004462 -0.994933
vn -0.100440 0.004462 -0.994933
vn -0.927749 -0.016037 0.372861
vn -0.927749 -0.016037 0.372861
s off
g polySurface4
usemtl lambert4SG
f 1/55/1 2/56/2 4/57/3 3/58/4
s 1
f 5/88/5 1/55/6 6/60/7 7/61/8
s 2
f 8/7/9 22/1/10 23/4/11 9/8/12
s off
f 30/29/13 29/30/14 31/31/15 32/32/16
s 3
f 26/10/17 12/13/18 11/14/19 25/92/20
s 4
f 27/33/21 13/34/22 12/35/23 26/36/24
s 5
f 28/22/25 14/25/26 13/26/27 27/23/28
s 6
f 13/66/29 10/67/30 11/94/31 12/69/32
s off
f 14/73/33 8/74/34 9/70/35 13/66/36
s 7
f 9/41/37 23/42/38 24/43/39 10/44/40
s off
f 2/56/41 1/55/42 5/88/43
f 13/66/44 9/70/45 10/67/46
s 2
f 15/2/47 4/5/48 2/6/49 16/3/50
s 7
f 17/46/51 16/45/52 2/47/53 5/48/54
s off
f 34/51/55 33/52/56 35/53/57 36/54/58
s 3
f 6/15/59 19/9/60 18/12/61 7/86/62
s 4
f 1/39/63 20/37/64 19/38/65 6/40/66
s 5
f 3/27/67 21/21/68 20/24/69 1/28/70
s 2
f 22/1/10 15/2/47 16/3/50 23/4/11
s 7
f 24/43/39 23/42/38 16/45/52 17/46/51
s off
f 25/49/71 24/43/72 17/46/73 18/50/74
s 3
f 19/9/60 26/10/17 25/92/20 18/12/61
s 4
f 20/37/64 27/33/21 26/36/24 19/38/65
s 5
f 21/21/68 28/22/25 27/23/28 20/24/69
s 6
f 11/68/31 10/96/30 29/71/75 30/72/76
s off
f 10/79/77 24/93/78 31/91/79 29/80/80
f 24/75/81 25/76/82 32/77/83 31/78/84
s 3
f 25/11/20 11/95/19 30/17/85 32/18/86
s off
f 18/81/87 17/82/88 33/83/89 34/84/90
f 17/64/91 5/89/92 35/85/93 33/65/94
s 1
f 5/59/5 7/87/8 36/62/95 35/63/96
s 3
f 7/16/62 18/90/61 34/19/97 36/20/98
