# This file uses centimeters as units for non-parametric coordinates.

mtllib rightOuter1.mtl
g default
v 179.828674 4.049309 4.371155
v 155.435394 4.049309 -4.371155
v -231.226791 4.049309 4.371155
v -231.219086 4.049309 -4.371155
v 231.226807 -4.049309 4.371155
v 231.226807 3.165105 4.371155
v 231.226807 4.049309 4.371155
v 179.828674 3.165105 4.371155
v 203.782471 4.049309 -4.371155
v 179.828674 4.049309 4.371155
v 155.435394 4.049309 -4.371155
v 155.435394 -3.165105 -4.371155
v 203.782471 -3.165105 -4.371155
v 179.828674 -4.049309 4.371155
v -231.226791 -4.049309 4.371155
v -231.226791 3.165105 4.371155
v -231.226791 4.049309 4.371155
v -231.219086 -3.165105 -4.371155
v -231.219086 4.049309 -4.371155
vt 2.008558 0.265863
vt 1.938374 0.265863
vt 1.938374 0.265863
vt 2.008558 0.265863
vt 2.008558 0.265863
vt 2.008558 0.107987
vt 2.017332 0.107987
vt 2.017332 0.265863
vt 2.017332 0.265863
vt 2.008558 0.265863
vt 2.008558 0.265863
vt 2.008558 0.107987
vt 2.017332 0.107987
vt 2.017332 0.265863
vt 2.008558 0.265863
vt 2.008558 0.265863
vt 1.938374 0.265863
vt 1.938374 0.265863
vt 1.938374 0.107987
vt 2.008558 0.107987
vt 1.938374 0.107987
vt 1.938374 0.265863
vn 0.000000 1.000000 -0.000000
vn 0.000000 1.000000 -0.000000
vn 0.000000 1.000000 -0.000000
vn 0.000000 1.000000 -0.000000
vn 0.000000 0.000000 1.000000
vn 0.000000 0.000000 1.000000
vn 0.000000 0.000000 1.000000
vn 0.000000 0.000000 1.000000
vn 0.000000 1.000000 0.000000
vn 0.000000 1.000000 0.000000
vn 0.000000 1.000000 0.000000
vn 0.000000 1.000000 0.000000
vn 0.000000 0.000000 1.000000
vn 0.000000 0.000000 1.000000
vn 0.000000 0.000000 1.000000
vn 0.000000 0.000000 1.000000
vn 0.000000 0.000000 -1.000000
vn 0.000000 0.000000 -1.000000
vn 0.000000 0.000000 -1.000000
vn 0.000000 0.000000 -1.000000
vn 0.000000 0.000000 -1.000000
vn 0.000000 0.000000 -1.000000
vn 0.000000 0.000000 -1.000000
vn 0.000000 0.000000 -1.000000
vn 0.000000 0.000000 1.000000
vn 0.000000 0.000000 1.000000
vn 0.000000 0.000000 1.000000
vn 0.000000 0.000000 1.000000
vn 0.000000 0.000000 1.000000
vn 0.000000 0.000000 1.000000
s off
g polySurface93
usemtl lambert3SG
f 2/1/1 4/2/2 3/3/3 1/4/4
s 1
f 10/5/5 8/6/6 6/7/7 7/8/8
s off
f 9/9/9 11/10/10 10/11/11 7/8/12
f 14/12/13 5/13/14 6/7/15 8/6/16
f 13/14/17 12/15/18 11/16/19 9/9/20
f 12/15/21 18/17/22 19/18/23 11/10/24
f 15/19/25 14/20/26 8/6/27 16/21/28
s 1
f 17/22/29 16/21/30 8/6/6 10/11/5
