# This file uses centimeters as units for non-parametric coordinates.

mtllib smallobstacle.mtl
g default
v -0.983230 1.644529 7.452675
v -0.491675 1.644529 7.944239
v -0.491675 2.136095 7.452675
v 0.491645 2.136095 7.452675
v 0.491645 1.644529 7.944239
v 0.983230 1.644529 7.452675
v -0.983230 1.644529 -7.452672
v -0.491675 2.136095 -7.452672
v -0.491675 1.644529 -7.944239
v 0.491645 1.644529 -7.944239
v 0.491645 2.136095 -7.452672
v 0.983230 1.644529 -7.452672
v -0.491675 -2.136095 7.944239
v -0.983230 -2.136095 7.452675
v 0.983230 -2.136095 7.452675
v 0.491645 -2.136095 7.944239
v -0.983230 -2.136095 -7.452672
v -0.491675 -2.136095 -7.944239
v 0.491645 -2.136095 -7.944239
v 0.983230 -2.136095 -7.452672
vt 0.651609 0.991868
vt 0.002427 0.991868
vt 0.002427 0.303670
vt 0.651609 0.303670
vt 0.652985 0.994338
vt 0.003804 0.994338
vt 0.003804 0.306140
vt 0.652985 0.306140
vt 0.670157 0.995297
vt 0.670157 0.909379
vt 0.992605 0.909379
vt 0.992605 0.995297
vt 0.670157 0.737505
vt 0.992605 0.737505
vt 0.670157 0.651581
vt 0.992605 0.651581
vt 0.744525 0.309904
vt 0.658607 0.309904
vt 0.658607 0.005736
vt 0.744525 0.005736
vt 0.744525 0.349452
vt 0.916399 0.005736
vt 0.916399 0.309904
vt 0.916399 0.349452
vt 1.002323 0.309904
vt 1.002323 0.005736
vt 0.658640 0.311000
vt 0.744559 0.311000
vt 0.744559 0.006832
vt 0.658640 0.006832
vt 0.744559 0.350548
vt 0.916432 0.311000
vt 0.916432 0.006832
vt 0.916432 0.350548
vt 1.002356 0.311000
vt 1.002356 0.006832
vn -0.707115 0.707099 0.000000
vn -0.707115 0.707099 0.000000
vn -0.707115 0.707099 0.000000
vn -0.707115 0.707099 0.000000
vn -0.707113 0.000000 0.707101
vn -0.707113 0.000000 0.707101
vn -0.707113 0.000000 0.707101
vn -0.707113 0.000000 0.707101
vn 0.000000 0.707105 0.707109
vn 0.000000 0.707105 0.707109
vn 0.000000 0.707105 0.707109
vn 0.000000 0.707105 0.707109
vn 0.707093 0.707120 0.000000
vn 0.707093 0.707120 0.000000
vn 0.707093 0.707120 0.000000
vn 0.707093 0.707120 0.000000
vn 0.707091 0.000000 0.707122
vn 0.707091 0.000000 0.707122
vn 0.707091 0.000000 0.707122
vn 0.707091 0.000000 0.707122
vn -0.707116 0.000000 -0.707098
vn -0.707116 0.000000 -0.707098
vn -0.707116 0.000000 -0.707098
vn -0.707116 0.000000 -0.707098
vn 0.000000 0.707108 -0.707106
vn 0.000000 0.707108 -0.707106
vn 0.000000 0.707108 -0.707106
vn 0.000000 0.707108 -0.707106
vn 0.707094 0.000000 -0.707120
vn 0.707094 0.000000 -0.707120
vn 0.707094 0.000000 -0.707120
vn 0.707094 0.000000 -0.707120
vn 0.000000 0.000000 1.000000
vn 0.000000 0.000000 1.000000
vn 0.000000 0.000000 1.000000
vn 0.000000 0.000000 1.000000
vn 0.000000 1.000000 0.000000
vn 0.000000 1.000000 0.000000
vn 0.000000 1.000000 0.000000
vn 0.000000 1.000000 0.000000
vn 0.000000 0.000000 -1.000000
vn 0.000000 0.000000 -1.000000
vn 0.000000 0.000000 -1.000000
vn 0.000000 0.000000 -1.000000
vn 1.000000 0.000000 0.000000
vn 1.000000 0.000000 0.000000
vn 1.000000 0.000000 0.000000
vn 1.000000 0.000000 0.000000
vn -1.000000 0.000000 0.000000
vn -1.000000 0.000000 0.000000
vn -1.000000 0.000000 0.000000
vn -1.000000 0.000000 0.000000
vn -0.577358 0.577345 0.577348
vn -0.577358 0.577345 0.577348
vn -0.577358 0.577345 0.577348
vn 0.577335 0.577357 0.577360
vn 0.577335 0.577357 0.577360
vn 0.577335 0.577357 0.577360
vn -0.577360 0.577346 -0.577345
vn -0.577360 0.577346 -0.577345
vn -0.577360 0.577346 -0.577345
vn 0.577336 0.577358 -0.577357
vn 0.577336 0.577358 -0.577357
vn 0.577336 0.577358 -0.577357
s off
g pCube15
usemtl lambert6SG
f 1/9/1 3/10/2 8/11/3 7/12/4
f 2/17/5 1/18/6 14/19/7 13/20/8
f 3/21/9 2/17/10 5/23/11 4/24/12
f 4/13/13 6/15/14 12/16/15 11/14/16
f 6/25/17 5/23/18 16/22/19 15/26/20
f 7/27/21 9/28/22 18/29/23 17/30/24
f 9/28/25 8/31/26 11/34/27 10/32/28
f 10/32/29 12/35/30 20/36/31 19/33/32
f 2/17/33 13/20/34 16/22/35 5/23/36
f 3/10/37 4/13/38 11/14/39 8/11/40
f 9/28/41 10/32/42 19/33/43 18/29/44
f 6/1/45 15/2/46 20/3/47 12/4/48
f 7/5/49 17/6/50 14/7/51 1/8/52
f 1/18/53 2/17/54 3/21/55
f 4/24/56 5/23/57 6/25/58
f 7/27/59 8/31/60 9/28/61
f 10/32/62 11/34/63 12/35/64
