# This file uses centimeters as units for non-parametric coordinates.

mtllib Toolbox.mtl
g default
v 0.095683 0.783107 0.091385
v 0.084448 0.817675 0.074889
v 0.067235 0.843333 0.049617
v 0.046120 0.856985 0.018616
v 0.023649 0.856985 -0.014375
v 0.002534 0.843333 -0.045376
v -0.014679 0.817675 -0.070648
v -0.025915 0.783107 -0.087143
v -0.029817 0.743797 -0.092872
v 0.099585 0.743797 0.097113
v 0.084557 0.784239 0.102729
v 0.072998 0.819804 0.085759
v 0.055288 0.846201 0.059758
v 0.033564 0.860247 0.027864
v 0.010446 0.860247 -0.006078
v -0.011277 0.846201 -0.037972
v -0.028987 0.819804 -0.063973
v -0.040546 0.784240 -0.080943
v -0.044560 0.743797 -0.086837
v 0.088571 0.743797 0.108623
v 0.078858 0.787442 0.117257
v 0.066384 0.825823 0.098942
v 0.047272 0.854310 0.070883
v 0.023828 0.869468 0.036463
v -0.001121 0.869468 -0.000166
v -0.024565 0.854310 -0.034586
v -0.043677 0.825823 -0.062646
v -0.056151 0.787442 -0.080960
v -0.060484 0.743797 -0.087321
v 0.083190 0.743797 0.123618
v 0.079573 0.792161 0.132456
v 0.065750 0.834691 0.112161
v 0.044572 0.866259 0.081068
v 0.018593 0.883055 0.042927
v -0.009053 0.883055 0.002338
v -0.035032 0.866259 -0.035804
v -0.056210 0.834691 -0.066897
v -0.070033 0.792161 -0.087192
v -0.074834 0.743797 -0.094240
v 0.084373 0.743797 0.139505
v 0.086578 0.797580 0.145698
v 0.071206 0.844875 0.123130
v 0.047655 0.879979 0.088553
v 0.018765 0.898658 0.046138
v -0.011978 0.898658 0.001002
v -0.040868 0.879980 -0.041413
v -0.064418 0.844875 -0.075990
v -0.079790 0.797580 -0.098559
v -0.085129 0.743797 -0.106397
v 0.091916 0.743797 0.153536
v 0.098661 0.802761 0.154694
v 0.081808 0.854614 0.129951
v 0.055988 0.893101 0.092043
v 0.024315 0.913579 0.045541
v -0.009390 0.913579 -0.003944
v -0.041063 0.893101 -0.050446
v -0.066883 0.854614 -0.088355
v -0.083736 0.802762 -0.113098
v -0.089589 0.743797 -0.121691
v 0.104514 0.743797 0.163288
v 0.113734 0.806811 0.157888
v 0.095724 0.862224 0.131446
v 0.068131 0.903353 0.090935
v 0.034283 0.925238 0.041240
v -0.001737 0.925238 -0.011644
v -0.035585 0.903353 -0.061339
v -0.063178 0.862224 -0.101851
v -0.081189 0.806811 -0.128293
v -0.087443 0.743797 -0.137476
v 0.119989 0.743797 0.167071
v 0.129190 0.809027 0.154728
v 0.110546 0.866389 0.127356
v 0.081983 0.908965 0.085420
v 0.046944 0.931619 0.033977
v 0.009658 0.931619 -0.020767
v -0.025381 0.908965 -0.072210
v -0.053944 0.866389 -0.114146
v -0.072588 0.809027 -0.141518
v -0.079063 0.743797 -0.151024
v 0.135665 0.743797 0.164234
v 0.142357 0.809027 0.145760
v 0.123713 0.866389 0.118388
v 0.095150 0.908965 0.076452
v 0.060111 0.931619 0.025009
v 0.022824 0.931619 -0.029735
v -0.012214 0.908965 -0.081178
v -0.040778 0.866389 -0.123114
v -0.059421 0.809027 -0.150486
v -0.065896 0.743797 -0.159992
v 0.148831 0.743797 0.155266
v 0.150957 0.806811 0.132535
v 0.132947 0.862224 0.106093
v 0.105354 0.903353 0.065581
v 0.071506 0.925238 0.015886
v 0.035486 0.925238 -0.036998
v 0.001638 0.903353 -0.086693
v -0.025955 0.862224 -0.127204
v -0.043965 0.806811 -0.153646
v -0.050220 0.743797 -0.162829
v 0.157212 0.743797 0.141718
v 0.153505 0.802761 0.117339
v 0.136652 0.854614 0.092596
v 0.110832 0.893101 0.054688
v 0.079159 0.913579 0.008186
v 0.045454 0.913579 -0.041300
v 0.013781 0.893101 -0.087801
v -0.012039 0.854614 -0.125709
v -0.028892 0.802762 -0.150452
v -0.034745 0.743797 -0.159046
v 0.159358 0.743797 0.125932
v 0.149559 0.797580 0.102801
v 0.134187 0.844875 0.080232
v 0.110636 0.879979 0.045655
v 0.081747 0.898658 0.003241
v 0.051003 0.898658 -0.041896
v 0.022114 0.879980 -0.084311
v -0.001437 0.844875 -0.118888
v -0.016808 0.797580 -0.141457
v -0.022147 0.743797 -0.149294
v 0.154897 0.743797 0.110639
v 0.139802 0.792161 0.091433
v 0.125979 0.834691 0.071139
v 0.104801 0.866259 0.040046
v 0.078822 0.883055 0.001904
v 0.051176 0.883055 -0.038685
v 0.025197 0.866259 -0.076826
v 0.004019 0.834691 -0.107920
v -0.009804 0.792161 -0.128214
v -0.014604 0.743797 -0.135263
v 0.144602 0.743797 0.098481
v 0.125920 0.787442 0.085202
v 0.113446 0.825823 0.066888
v 0.094334 0.854310 0.038828
v 0.070890 0.869468 0.004408
v 0.045941 0.869468 -0.032221
v 0.022497 0.854310 -0.066641
v 0.003385 0.825823 -0.094701
v -0.009089 0.787442 -0.113015
v -0.013421 0.743797 -0.119376
v 0.130252 0.743797 0.091563
v 0.110315 0.784239 0.085185
v 0.098756 0.819804 0.068214
v 0.081046 0.846201 0.042214
v 0.059322 0.860247 0.010319
v 0.036204 0.860247 -0.023622
v 0.014481 0.846201 -0.055516
v -0.003229 0.819804 -0.081517
v -0.014788 0.784240 -0.098487
v -0.018802 0.743797 -0.104382
v 0.114329 0.743797 0.091079
v -0.529346 -0.708336 -0.392148
v 0.198226 -0.708336 0.676410
v -0.529346 -0.220019 -0.392148
v 0.198226 -0.220019 0.676410
v -0.529346 0.268298 -0.392148
v 0.198226 0.268298 0.676410
v -0.529346 0.756615 -0.392148
v 0.198226 0.756615 0.676410
v -0.111861 0.756615 -0.676410
v 0.615711 0.756615 0.392148
v -0.111861 0.268298 -0.676410
v 0.615711 0.268298 0.392148
v -0.111861 -0.220019 -0.676410
v 0.615711 -0.220019 0.392148
v -0.111861 -0.708336 -0.676410
v 0.615711 -0.708336 0.392148
vt 0.599420 0.845068
vt 0.609723 0.870985
vt 0.599727 0.872695
vt 0.589127 0.846032
vt 0.625288 0.890135
vt 0.615741 0.892398
vt 0.588946 0.877343
vt 0.577506 0.848568
vt 0.595620 0.815513
vt 0.585218 0.815624
vt 0.606227 0.898605
vt 0.579242 0.884124
vt 0.566566 0.852238
vt 0.573287 0.815752
vt 0.602695 0.815437
vt 0.606604 0.845844
vt 0.635236 0.902763
vt 0.627266 0.909792
vt 0.598392 0.907685
vt 0.572295 0.891866
vt 0.558198 0.856408
vt 0.561891 0.815875
vt 0.621706 0.920081
vt 0.593591 0.918068
vt 0.553000 0.815970
vt 0.649525 0.909553
vt 0.646371 0.919816
vt 0.619516 0.931852
vt 0.646945 0.931558
vt 0.621077 0.943070
vt 0.592653 0.927957
vt 0.669413 0.906922
vt 0.672569 0.917219
vt 0.651148 0.942747
vt 0.688053 0.882955
vt 0.693297 0.890566
vt 0.679241 0.927027
vt 0.700041 0.850805
vt 0.706629 0.854814
vt 0.701966 0.897806
vt 0.688275 0.934649
vt 0.658253 0.951448
vt 0.703933 0.814349
vt 0.710957 0.814273
vt 0.716582 0.858608
vt 0.712560 0.903421
vt 0.698108 0.938768
vt 0.667031 0.956158
vt 0.721328 0.814162
vt 0.728180 0.861532
vt 0.723248 0.906442
vt 0.733251 0.814034
vt 0.739418 0.863080
vt 0.744667 0.813911
vt 0.748352 0.862984
vt 0.732182 0.906346
vt 0.753601 0.813815
vt 0.529646 0.795662
vt 0.513476 0.839025
vt 0.502788 0.836004
vt 0.518409 0.794115
vt 0.538580 0.795566
vt 0.522410 0.838929
vt 0.488337 0.871350
vt 0.478503 0.867231
vt 0.492194 0.830388
vt 0.506810 0.791191
vt 0.534895 0.746494
vt 0.523479 0.746616
vt 0.543829 0.746398
vt 0.457259 0.888741
vt 0.448481 0.884031
vt 0.469469 0.859609
vt 0.483525 0.823148
vt 0.496857 0.787396
vt 0.511555 0.746744
vt 0.441376 0.875329
vt 0.462797 0.849802
vt 0.478281 0.815537
vt 0.490270 0.783387
vt 0.501185 0.746856
vt 0.437173 0.864140
vt 0.459641 0.839505
vt 0.494162 0.746931
vt 0.411305 0.875652
vt 0.409745 0.864434
vt 0.436599 0.852399
vt 0.382881 0.860539
vt 0.383819 0.850650
vt 0.411934 0.852664
vt 0.388620 0.840268
vt 0.417494 0.842374
vt 0.439753 0.842135
vt 0.362523 0.824448
vt 0.369470 0.816706
vt 0.396455 0.831188
vt 0.348426 0.788990
vt 0.356793 0.784821
vt 0.379173 0.809925
vt 0.405969 0.824980
vt 0.425464 0.835346
vt 0.343228 0.748553
vt 0.352119 0.748457
vt 0.367734 0.781150
vt 0.389955 0.805277
vt 0.363515 0.748335
vt 0.379354 0.778614
vt 0.399951 0.803567
vt 0.415516 0.822718
vt 0.375446 0.748207
vt 0.389648 0.777651
vt 0.385848 0.748095
vt 0.392923 0.748019
vt 0.396832 0.778426
vt 0.359158 0.719380
vt 0.335643 0.693124
vt 0.345512 0.682195
vt 0.369705 0.709209
vt 0.347889 0.728747
vt 0.323697 0.701733
vt 0.316473 0.671720
vt 0.325790 0.660175
vt 0.351599 0.670839
vt 0.377707 0.699990
vt 0.384182 0.747321
vt 0.395450 0.737955
vt 0.373635 0.757493
vt 0.330315 0.647074
vt 0.405492 0.731013
vt 0.407697 0.773578
vt 0.419643 0.764968
vt 0.365632 0.766711
vt 0.337848 0.735688
vt 0.397828 0.784506
vt 0.391741 0.795863
vt 0.417549 0.806527
vt 0.426866 0.794981
vt 0.413025 0.819628
vt 0.155657 0.762615
vt 0.195771 0.717825
vt 0.206664 0.726161
vt 0.165139 0.772527
vt 0.149484 0.754493
vt 0.187021 0.712582
vt 0.217816 0.736149
vt 0.176291 0.782514
vt 0.117963 0.804704
vt 0.126119 0.816096
vt 0.114212 0.793878
vt 0.245684 0.682592
vt 0.256836 0.692580
vt 0.227297 0.746060
vt 0.187183 0.790850
vt 0.137270 0.826083
vt 0.087233 0.839015
vt 0.094309 0.851614
vt 0.085457 0.825984
vt 0.277494 0.647074
vt 0.288645 0.657062
vt 0.264993 0.703972
vt 0.233470 0.754182
vt 0.195934 0.796094
vt 0.105461 0.861601
vt 0.295721 0.669660
vt 0.268743 0.714797
vt 0.297497 0.682692
vt 0.798949 0.455487
vt 0.800428 0.028520
vt 0.982971 0.029048
vt 0.981493 0.456015
vt 0.800804 0.028214
vt 0.799326 0.455182
vt 0.981869 0.455709
vt 0.983347 0.028742
vt 0.709234 0.716497
vt 0.723206 0.684013
vt 0.735153 0.685078
vt 0.720780 0.718498
vt 0.749393 0.688087
vt 0.733881 0.724153
vt 0.740145 0.647074
vt 0.754779 0.647074
vt 0.763461 0.692521
vt 0.746273 0.732487
vt 0.769431 0.647074
vt 0.710116 0.750923
vt 0.719939 0.762151
vt 0.680965 0.765167
vt 0.687635 0.777934
vt 0.512889 0.742057
vt 0.542174 0.775044
vt 0.533785 0.787374
vt 0.501678 0.751208
vt 0.493775 0.697613
vt 0.480722 0.702483
vt 0.488647 0.758359
vt 0.466253 0.706288
vt 0.487137 0.647074
vt 0.473445 0.647074
vt 0.476049 0.762273
vt 0.452866 0.708370
vt 0.458475 0.647074
vt 0.444815 0.647074
vt 0.629015 0.672175
vt 0.652198 0.726078
vt 0.638812 0.728160
vt 0.616417 0.676089
vt 0.660249 0.787374
vt 0.646589 0.787374
vt 0.624341 0.731965
vt 0.603386 0.683240
vt 0.631619 0.787374
vt 0.611289 0.736834
vt 0.592175 0.692391
vt 0.617928 0.787374
vt 0.571280 0.647074
vt 0.562890 0.659404
vt 0.838264 0.662858
vt 0.870567 0.647074
vt 0.877238 0.659842
vt 0.848086 0.674085
vt 0.811930 0.692521
vt 0.824322 0.700855
vt 0.794742 0.732487
vt 0.808810 0.736921
vt 0.837423 0.706511
vt 0.823050 0.739930
vt 0.788772 0.777934
vt 0.803423 0.777934
vt 0.848968 0.708511
vt 0.834997 0.740995
vt 0.818058 0.777934
vt 0.260256 0.423934
vt 0.028351 0.423934
vt 0.028351 0.303922
vt 0.260256 0.303922
vt 0.129549 0.303922
vt 0.129549 0.423934
vt 0.028351 0.183910
vt 0.260256 0.183910
vt 0.361454 0.303922
vt 0.361454 0.423934
vt 0.129549 0.183910
vt 0.028351 0.063899
vt 0.260256 0.063899
vt 0.361454 0.183910
vt 0.129549 0.063899
vt 0.361454 0.063899
vt 0.430381 0.000956
vt 0.775616 0.000956
vt 0.775616 0.179616
vt 0.430381 0.179616
vt 0.775616 0.358276
vt 0.430381 0.358276
vt 0.775616 0.536936
vt 0.430381 0.536936
vn -0.431233 -0.642787 -0.633138
vn -0.528988 -0.342021 -0.776655
vn -0.827310 -0.310359 -0.468226
vn -0.738605 -0.583288 -0.337990
vn -0.281472 -0.866026 -0.413247
vn -0.602701 -0.785864 -0.138454
vn -0.097759 -0.984807 -0.143521
vn -0.435995 -0.893649 0.106306
vn 0.097755 -0.984808 0.143520
vn -0.258583 -0.893649 0.366777
vn 0.281475 -0.866024 0.413249
vn -0.091867 -0.785865 0.611536
vn 0.431243 -0.642790 0.633128
vn 0.044036 -0.583292 0.811068
vn 0.529000 -0.342027 0.776644
vn 0.132738 -0.310366 0.941304
vn 0.554395 -0.173657 0.813935
vn 0.161488 -0.158002 0.974144
vn -0.554390 -0.173651 -0.813939
vn -0.847341 -0.157999 -0.507000
vn -0.972046 -0.222085 -0.076183
vn -0.908572 -0.417382 0.017007
vn -0.811322 -0.562340 0.159783
vn -0.692025 -0.639472 0.334927
vn -0.565078 -0.639472 0.521308
vn -0.445787 -0.562347 0.696448
vn -0.348540 -0.417385 0.839231
vn -0.285063 -0.222081 0.932427
vn -0.261309 -0.113753 0.958529
vn -0.987639 -0.113751 -0.107847
vn -0.940902 -0.094992 0.325085
vn -0.913750 -0.178535 0.364946
vn -0.872155 -0.240538 0.426013
vn -0.821128 -0.273528 0.500931
vn -0.766825 -0.273534 0.580653
vn -0.715800 -0.240540 0.655569
vn -0.674200 -0.178535 0.716645
vn -0.647049 -0.094994 0.756508
vn -0.636856 -0.048910 0.769430
vn -0.949193 -0.048914 0.310868
vn -0.745850 0.047065 0.664449
vn -0.759299 0.088453 0.644702
vn -0.779904 0.119172 0.614449
vn -0.805185 0.135513 0.577333
vn -0.832086 0.135511 0.537838
vn -0.857369 0.119170 0.500717
vn -0.877978 0.088451 0.470458
vn -0.891428 0.047063 0.450712
vn -0.895835 0.024257 0.443724
vn -0.740960 0.024258 0.671111
vn -0.426302 0.179364 0.886620
vn -0.477567 0.337102 0.811352
vn -0.556107 0.454178 0.696037
vn -0.652451 0.516479 0.554579
vn -0.754981 0.516480 0.404046
vn -0.851334 0.454178 0.262588
vn -0.929878 0.337105 0.147269
vn -0.981143 0.179371 0.072000
vn -0.994704 0.092080 0.045663
vn -0.406759 0.092072 0.908884
vn -0.039144 0.280477 0.959062
vn -0.119310 0.527130 0.841368
vn -0.242130 0.710210 0.661040
vn -0.392788 0.807630 0.439831
vn -0.553116 0.807631 0.204436
vn -0.703783 0.710217 -0.016764
vn -0.826607 0.527139 -0.197093
vn -0.906773 0.280487 -0.314786
vn -0.924995 0.143118 -0.351997
vn -0.011185 0.143102 0.989645
vn 0.351747 0.335015 0.874093
vn 0.256000 0.629624 0.733510
vn 0.109297 0.848295 0.518122
vn -0.070656 0.964641 0.253921
vn -0.262156 0.964641 -0.027238
vn -0.442113 0.848290 -0.291444
vn -0.588817 0.629618 -0.506828
vn -0.684571 0.335012 -0.647403
vn -0.707358 0.170195 -0.686060
vn 0.379383 0.170192 0.909452
vn 0.684572 0.335017 0.647399
vn 0.588817 0.629626 0.506820
vn 0.442111 0.848292 0.291442
vn 0.262160 0.964640 0.027241
vn 0.070658 0.964640 -0.253923
vn -0.109295 0.848290 -0.518130
vn -0.255993 0.629620 -0.733516
vn -0.351743 0.335010 -0.874097
vn -0.379380 0.170190 -0.909454
vn 0.707355 0.170195 0.686063
vn 0.906776 0.280483 0.314780
vn 0.826610 0.527137 0.197086
vn 0.703783 0.710217 0.016765
vn 0.553114 0.807634 -0.204434
vn 0.392788 0.807628 -0.439834
vn 0.242129 0.710209 -0.661043
vn 0.119308 0.527138 -0.841363
vn 0.039142 0.280483 -0.959061
vn 0.011186 0.143106 -0.989644
vn 0.924995 0.143113 0.351999
vn 0.981144 0.179368 -0.072002
vn 0.929878 0.337104 -0.147268
vn 0.851333 0.454180 -0.262590
vn 0.754981 0.516479 -0.404047
vn 0.652451 0.516476 -0.554582
vn 0.556102 0.454177 -0.696041
vn 0.477560 0.337108 -0.811354
vn 0.426294 0.179369 -0.886623
vn 0.406751 0.092076 -0.908887
vn 0.994704 0.092078 -0.045673
vn 0.891427 0.047063 -0.450713
vn 0.877977 0.088454 -0.470461
vn 0.857366 0.119172 -0.500721
vn 0.832087 0.135507 -0.537838
vn 0.805184 0.135514 -0.577334
vn 0.779903 0.119178 -0.614449
vn 0.759298 0.088449 -0.644704
vn 0.745848 0.047059 -0.664452
vn 0.740955 0.024257 -0.671116
vn 0.895834 0.024257 -0.443727
vn 0.647051 -0.094989 -0.756507
vn 0.674198 -0.178537 -0.716646
vn 0.715799 -0.240545 -0.655568
vn 0.766828 -0.273529 -0.580652
vn 0.821130 -0.273525 -0.500929
vn 0.872156 -0.240537 -0.426012
vn 0.913753 -0.178536 -0.364940
vn 0.940903 -0.094994 -0.325081
vn 0.949194 -0.048913 -0.310868
vn 0.636862 -0.048906 -0.769425
vn 0.285063 -0.222081 -0.932427
vn 0.348536 -0.417387 -0.839232
vn 0.445789 -0.562345 -0.696449
vn 0.565084 -0.639465 -0.521310
vn 0.692028 -0.639470 -0.334926
vn 0.811318 -0.562345 -0.159785
vn 0.908570 -0.417386 -0.017001
vn 0.972046 -0.222085 0.076193
vn 0.987639 -0.113752 0.107846
vn 0.261313 -0.113749 -0.958529
vn -0.132739 -0.310366 -0.941304
vn -0.044034 -0.583288 -0.811071
vn 0.091871 -0.785863 -0.611538
vn 0.258583 -0.893650 -0.366777
vn 0.435993 -0.893649 -0.106311
vn 0.602705 -0.785861 0.138452
vn 0.738607 -0.583286 0.337989
vn 0.827311 -0.310366 0.468219
vn 0.847345 -0.158003 0.506992
vn -0.161491 -0.157998 -0.974144
vn -0.826584 0.000000 0.562814
vn -0.826584 0.000000 0.562814
vn -0.826584 0.000000 0.562814
vn -0.826584 0.000000 0.562814
vn -0.826584 0.000000 0.562814
vn -0.826584 0.000000 0.562814
vn -0.826584 0.000000 0.562813
vn -0.826584 0.000000 0.562813
vn 0.000000 1.000000 0.000000
vn 0.000000 1.000000 0.000000
vn 0.000000 1.000000 0.000000
vn 0.000000 1.000000 0.000000
vn 0.826584 0.000000 -0.562814
vn 0.826584 0.000000 -0.562814
vn 0.826584 0.000000 -0.562814
vn 0.826584 0.000000 -0.562814
vn 0.826584 0.000000 -0.562814
vn 0.826584 0.000000 -0.562814
vn 0.826584 0.000000 -0.562814
vn 0.826584 0.000000 -0.562814
vn -0.000000 -1.000000 -0.000000
vn -0.000000 -1.000000 -0.000000
vn -0.000000 -1.000000 -0.000000
vn -0.000000 -1.000000 -0.000000
vn 0.562814 0.000000 0.826584
vn 0.562814 0.000000 0.826584
vn 0.562814 0.000000 0.826584
vn 0.562814 0.000000 0.826584
vn 0.562814 0.000000 0.826584
vn 0.562814 0.000000 0.826584
vn 0.562814 0.000000 0.826584
vn 0.562814 0.000000 0.826584
vn -0.562814 0.000000 -0.826584
vn -0.562814 0.000000 -0.826584
vn -0.562814 0.000000 -0.826584
vn -0.562814 0.000000 -0.826584
vn -0.562814 0.000000 -0.826584
vn -0.562814 0.000000 -0.826584
vn -0.562814 0.000000 -0.826583
vn -0.562814 0.000000 -0.826583
s 1
g pTorus2
usemtl lambert5SG
f 2/175/1 1/176/2 11/177/3 12/178/4
f 3/116/5 2/121/1 12/122/4 13/117/6
f 4/115/7 3/116/5 13/117/6 14/118/8
f 5/125/9 4/115/7 14/118/8 15/126/10
f 6/130/11 5/125/9 15/126/10 16/131/12
f 7/2/13 6/5/11 16/6/12 17/3/14
f 8/1/15 7/2/13 17/3/14 18/4/16
f 9/9/17 8/1/15 18/4/16 19/10/18
f 1/111/2 10/112/19 20/113/20 11/114/3
f 12/178/4 11/177/3 21/179/21 22/180/22
f 13/117/6 12/122/4 22/128/22 23/123/23
f 14/118/8 13/117/6 23/123/23 24/124/24
f 15/126/10 14/118/8 24/124/24 25/129/25
f 16/6/12 15/17/10 25/18/25 26/11/26
f 17/3/14 16/6/12 26/11/26 27/7/27
f 18/4/16 17/3/14 27/7/27 28/8/28
f 19/10/18 18/4/16 28/8/28 29/14/29
f 11/177/3 20/181/20 30/182/30 21/179/21
f 22/180/22 21/179/21 31/183/31 32/184/32
f 23/186/23 22/180/22 32/184/32 33/187/33
f 24/188/24 23/186/23 33/187/33 34/189/34
f 25/18/25 24/26/24 34/27/34 35/23/35
f 26/11/26 25/18/25 35/23/35 36/19/36
f 27/7/27 26/11/26 36/19/36 37/12/37
f 28/8/28 27/7/27 37/12/37 38/13/38
f 29/14/29 28/8/28 38/13/38 39/22/39
f 21/179/21 30/182/30 40/185/40 31/183/31
f 32/35/32 31/38/31 41/39/41 42/36/42
f 33/32/33 32/35/32 42/36/42 43/33/43
f 34/27/34 33/32/33 43/33/43 44/29/44
f 35/23/35 34/27/34 44/29/44 45/28/45
f 36/19/36 35/23/35 45/28/45 46/24/46
f 37/12/37 36/19/36 46/24/46 47/20/47
f 38/13/38 37/12/37 47/20/47 48/21/48
f 39/22/39 38/13/38 48/21/48 49/25/49
f 31/38/31 40/43/40 50/44/50 41/39/41
f 42/36/42 41/39/41 51/45/51 52/40/52
f 43/33/43 42/36/42 52/40/52 53/37/53
f 44/29/44 43/33/43 53/37/53 54/34/54
f 45/28/45 44/29/44 54/34/54 55/30/55
f 46/24/46 45/28/45 55/30/55 56/31/56
f 47/190/47 46/191/46 56/192/56 57/193/57
f 48/194/48 47/190/47 57/193/57 58/195/58
f 49/198/49 48/194/48 58/195/58 59/199/59
f 41/39/41 50/44/50 60/49/60 51/45/51
f 52/40/52 51/45/51 61/50/61 62/46/62
f 53/37/53 52/40/52 62/46/62 63/41/63
f 54/34/54 53/37/53 63/41/63 64/42/64
f 55/143/55 54/144/54 64/140/64 65/139/65
f 56/149/56 55/143/55 65/139/65 66/147/66
f 57/157/57 56/149/56 66/147/66 67/155/67
f 58/195/58 57/193/57 67/196/67 68/197/68
f 59/199/59 58/195/58 68/197/68 69/202/69
f 51/45/51 60/49/60 70/52/70 61/50/61
f 62/46/62 61/50/61 71/53/71 72/51/72
f 63/41/63 62/46/62 72/51/72 73/47/73
f 64/42/64 63/41/63 73/47/73 74/48/74
f 65/139/65 64/140/64 74/141/74 75/142/75
f 66/147/66 65/139/65 75/142/75 76/148/76
f 67/155/67 66/147/66 76/148/76 77/156/77
f 68/197/68 67/196/67 77/200/77 78/201/78
f 69/202/69 68/197/68 78/201/78 79/203/79
f 61/50/61 70/52/70 80/54/80 71/53/71
f 72/51/72 71/53/71 81/55/81 82/56/82
f 73/150/73 72/158/72 82/159/82 83/151/83
f 74/141/74 73/150/73 83/151/83 84/145/84
f 75/142/75 74/141/74 84/145/84 85/146/85
f 76/148/76 75/142/75 85/146/85 86/154/86
f 77/156/77 76/148/76 86/154/86 87/163/87
f 78/62/78 77/63/77 87/59/87 88/58/88
f 79/70/79 78/62/78 88/58/88 89/68/89
f 71/53/71 80/54/80 90/57/90 81/55/81
f 82/204/82 81/205/81 91/206/91 92/207/92
f 83/151/83 82/159/82 92/164/92 93/160/93
f 84/145/84 83/151/83 93/160/93 94/152/94
f 85/146/85 84/145/84 94/152/94 95/153/95
f 86/64/86 85/71/85 95/72/95 96/65/96
f 87/59/87 86/64/86 96/65/96 97/60/97
f 88/58/88 87/59/87 97/60/97 98/61/98
f 89/68/89 88/58/88 98/61/98 99/69/99
f 81/205/81 90/208/90 100/209/100 91/206/91
f 92/207/92 91/206/91 101/210/101 102/211/102
f 93/160/93 92/164/92 102/166/102 103/165/103
f 94/152/94 93/160/93 103/165/103 104/161/104
f 95/153/95 94/152/94 104/161/104 105/162/105
f 96/65/96 95/72/95 105/77/105 106/73/106
f 97/60/97 96/65/96 106/73/106 107/66/107
f 98/61/98 97/60/97 107/66/107 108/67/108
f 99/69/99 98/61/98 108/67/108 109/76/109
f 91/206/91 100/209/100 110/212/110 101/210/101
f 102/211/102 101/210/101 111/213/111 112/214/112
f 103/216/103 102/211/102 112/214/112 113/217/113
f 104/85/104 103/88/103 113/89/113 114/86/114
f 105/77/105 104/85/104 114/86/114 115/82/115
f 106/73/106 105/77/105 115/82/115 116/78/116
f 107/66/107 106/73/106 116/78/116 117/74/117
f 108/67/108 107/66/107 117/74/117 118/75/118
f 109/76/109 108/67/108 118/75/118 119/81/119
f 101/210/101 110/212/110 120/215/120 111/213/111
f 112/94/112 111/97/111 121/98/121 122/95/122
f 113/89/113 112/94/112 122/95/122 123/91/123
f 114/86/114 113/89/113 123/91/123 124/90/124
f 115/82/115 114/86/114 124/90/124 125/87/125
f 116/78/116 115/82/115 125/87/125 126/83/126
f 117/74/117 116/78/116 126/83/126 127/79/127
f 118/75/118 117/74/117 127/79/127 128/80/128
f 119/81/119 118/75/118 128/80/128 129/84/129
f 111/97/111 120/102/120 130/103/130 121/98/121
f 122/95/122 121/98/121 131/104/131 132/99/132
f 123/91/123 122/95/122 132/99/132 133/96/133
f 124/90/124 123/91/123 133/96/133 134/92/134
f 125/87/125 124/90/124 134/92/134 135/93/135
f 126/218/126 125/219/125 135/220/135 136/221/136
f 127/222/127 126/218/126 136/221/136 137/223/137
f 128/224/128 127/222/127 137/223/137 138/225/138
f 129/228/129 128/224/128 138/225/138 139/229/139
f 121/98/121 130/103/130 140/106/140 131/104/131
f 132/99/132 131/104/131 141/107/141 142/105/142
f 133/96/133 132/99/132 142/105/142 143/100/143
f 134/92/134 133/96/133 143/100/143 144/101/144
f 135/132/135 134/133/134 144/119/144 145/127/145
f 136/135/136 135/132/135 145/127/145 146/134/146
f 137/138/137 136/135/136 146/134/146 147/136/147
f 138/225/138 137/223/137 147/226/147 148/227/148
f 139/229/139 138/225/138 148/227/148 149/232/149
f 131/104/131 140/106/140 150/110/150 141/107/141
f 142/105/142 141/107/141 1/111/2 2/108/1
f 143/100/143 142/105/142 2/108/1 3/109/5
f 144/119/144 143/120/143 3/116/5 4/115/7
f 145/127/145 144/119/144 4/115/7 5/125/9
f 146/134/146 145/127/145 5/125/9 6/130/11
f 147/136/147 146/134/146 6/130/11 7/137/13
f 148/227/148 147/226/147 7/230/13 8/231/15
f 149/15/149 148/16/148 8/1/15 9/9/17
f 141/107/141 150/110/150 10/112/19 1/111/2
s 2
f 151/249/151 152/250/152 154/251/153 153/252/154
f 153/252/154 154/251/153 156/253/155 155/254/156
f 155/254/156 156/253/155 158/255/157 157/256/158
s off
f 157/167/159 158/168/160 160/169/161 159/170/162
s 3
f 159/233/163 160/234/164 162/235/165 161/236/166
f 161/236/166 162/235/165 164/239/167 163/240/168
f 163/240/168 164/239/167 166/244/169 165/245/170
s off
f 165/171/171 166/172/172 152/173/173 151/174/174
s 4
f 152/247/175 166/244/176 164/239/177 154/243/178
f 154/243/178 164/239/177 162/235/179 156/237/180
f 156/237/180 162/235/179 160/234/181 158/238/182
s 5
f 165/245/183 151/248/184 153/246/185 163/240/186
f 163/240/186 153/246/185 155/241/187 161/236/188
f 161/236/188 155/241/187 157/242/189 159/233/190
