# This file uses centimeters as units for non-parametric coordinates.

mtllib track3.mtl
g default
v 50.119957 -0.500000 191.267761
v 79.751366 -0.500000 191.267761
v 50.119957 0.500000 191.267761
v 79.751366 0.500000 191.267761
v 50.119957 0.500000 87.960434
v 79.751366 0.500000 87.960434
v 50.119957 -0.500000 87.960434
v 79.751366 -0.500000 87.960434
v -6.314784 0.500000 17.671486
v -6.314840 0.500000 -11.959919
v -6.314840 -0.500000 -11.959919
v -6.314784 -0.500000 17.671486
v 23.734068 0.500000 25.102934
v 34.698677 0.500000 0.746082
v 34.698677 -0.500000 0.746082
v 23.734068 -0.500000 25.102934
v 44.270260 0.500000 50.680588
v 67.749329 0.500000 39.580311
v 67.749329 -0.500000 39.580311
v 44.270260 -0.500000 50.680588
v -30.534082 0.500000 17.671486
v -30.534140 0.500000 -11.959919
v -30.534140 -0.500000 -11.959919
v -30.534082 -0.500000 17.671486
v -6.314840 0.500000 -131.035904
v -30.534140 0.500000 -131.035904
vt 0.375000 0.000000
vt 0.625000 0.000000
vt 0.375000 0.250000
vt 0.625000 0.250000
vt 0.375000 0.500000
vt 0.625000 0.500000
vt 0.375000 0.750000
vt 0.625000 0.750000
vt 0.375000 1.000000
vt 0.625000 1.000000
vt 0.875000 0.000000
vt 0.875000 0.250000
vt 0.125000 0.000000
vt 0.125000 0.250000
vt 0.375000 0.500000
vt 0.625000 0.500000
vt 0.625000 0.750000
vt 0.375000 0.750000
vt 0.375000 0.500000
vt 0.625000 0.500000
vt 0.625000 0.750000
vt 0.375000 0.750000
vt 0.375000 0.500000
vt 0.625000 0.500000
vt 0.625000 0.750000
vt 0.375000 0.750000
vt 0.375000 0.500000
vt 0.625000 0.500000
vt 0.625000 0.750000
vt 0.375000 0.750000
vt 0.625000 0.625000
vt 0.625000 0.625000
vn 0.000000 0.000000 1.000000
vn 0.000000 0.000000 1.000000
vn 0.000000 0.000000 1.000000
vn 0.000000 0.000000 1.000000
vn 0.000000 1.000000 0.000000
vn 0.000000 1.000000 0.000000
vn 0.000000 1.000000 0.000000
vn 0.000000 1.000000 0.000000
vn -1.000000 0.000000 0.000002
vn -1.000000 0.000000 0.000002
vn -1.000000 0.000000 0.000002
vn -1.000000 0.000000 0.000002
vn 0.000000 -1.000000 0.000000
vn 0.000000 -1.000000 0.000000
vn 0.000000 -1.000000 0.000000
vn 0.000000 -1.000000 0.000000
vn 1.000000 0.000000 0.000000
vn 1.000000 0.000000 0.000000
vn 1.000000 0.000000 0.000000
vn 1.000000 0.000000 0.000000
vn -1.000000 0.000000 0.000000
vn -1.000000 0.000000 0.000000
vn -1.000000 0.000000 0.000000
vn -1.000000 0.000000 0.000000
vn 0.000000 1.000000 0.000000
vn 0.000000 1.000000 0.000000
vn 0.000000 1.000000 0.000000
vn 0.000000 1.000000 0.000000
vn 0.571194 0.000000 -0.820815
vn 0.571194 0.000000 -0.820815
vn 0.295925 0.000000 -0.955211
vn 0.295925 0.000000 -0.955211
vn 0.000000 -1.000000 0.000000
vn 0.000000 -1.000000 0.000000
vn 0.000000 -1.000000 0.000000
vn 0.000000 -1.000000 0.000000
vn -0.546487 0.000000 0.837468
vn -0.546487 0.000000 0.837468
vn -0.240079 0.000000 0.970753
vn -0.240079 0.000000 0.970753
vn 0.000000 1.000000 0.000000
vn 0.000000 1.000000 0.000000
vn 0.888459 0.000000 -0.458955
vn 0.888459 0.000000 -0.458955
vn 0.000000 -1.000000 0.000000
vn 0.000000 -1.000000 0.000000
vn -0.922057 0.000000 0.387055
vn -0.922057 0.000000 0.387055
vn 0.000000 1.000000 0.000000
vn 0.000000 1.000000 0.000000
vn 0.970580 0.000000 -0.240779
vn 0.970580 0.000000 -0.240779
vn 0.000000 -1.000000 0.000000
vn 0.000000 -1.000000 0.000000
vn -0.987912 0.000000 0.155016
vn -0.987912 0.000000 0.155016
vn 0.000000 1.000000 0.000000
vn 0.000000 1.000000 0.000000
vn 0.000000 1.000000 0.000000
vn 0.000000 1.000000 0.000000
vn 0.000000 -1.000000 0.000000
vn 0.000000 -1.000000 0.000000
vn 0.000000 -1.000000 0.000000
vn 0.000000 -1.000000 0.000000
vn 0.000000 0.000000 1.000000
vn 0.000000 0.000000 1.000000
vn 0.000000 0.000000 1.000000
vn 0.000000 0.000000 1.000000
vn 1.000000 0.000000 0.000000
vn 1.000000 0.000000 0.000000
vn 1.000000 0.000000 0.000000
vn 0.000000 -0.999965 -0.008398
vn 0.000000 -0.999965 -0.008398
vn 0.000000 -0.999965 -0.008398
vn 0.000000 -0.999965 -0.008398
vn -1.000000 0.000000 0.000000
vn -1.000000 0.000000 0.000000
vn -1.000000 0.000000 0.000000
vn 0.000000 1.000000 0.000000
vn 0.000000 1.000000 0.000000
vn 0.000000 1.000000 0.000000
vn 0.000000 1.000000 0.000000
s off
g pCube28
usemtl initialShadingGroup
f 1/1/1 2/2/2 4/4/3 3/3/4
f 3/3/5 4/4/6 6/6/7 5/5/8
f 21/27/9 22/28/10 23/29/11 24/30/12
f 7/7/13 8/8/14 2/10/15 1/9/16
f 2/2/17 8/11/18 6/12/19 4/4/20
f 7/13/21 1/1/22 3/3/23 5/14/24
s 1
f 13/19/25 14/20/26 10/16/27 9/15/28
s 2
f 14/20/29 15/21/30 11/17/31 10/16/32
s 3
f 15/21/33 16/22/34 12/18/35 11/17/36
s 4
f 16/22/37 13/19/38 9/15/39 12/18/40
s 1
f 17/23/41 18/24/42 14/20/26 13/19/25
s 2
f 18/24/43 19/25/44 15/21/30 14/20/29
s 3
f 19/25/45 20/26/46 16/22/34 15/21/33
s 4
f 20/26/47 17/23/48 13/19/38 16/22/37
s 1
f 5/5/49 6/6/50 18/24/42 17/23/41
s 2
f 6/6/51 8/8/52 19/25/44 18/24/43
s 3
f 8/8/53 7/7/54 20/26/46 19/25/45
s 4
f 7/7/55 5/5/56 17/23/48 20/26/47
s off
f 9/15/57 10/16/58 22/28/59 21/27/60
f 11/17/61 12/18/62 24/30/63 23/29/64
f 12/18/65 9/15/66 21/27/67 24/30/68
f 10/16/69 11/17/70 25/31/71
f 11/17/72 23/29/73 26/32/74 25/31/75
f 23/29/76 22/28/77 26/32/78
f 22/28/79 10/16/80 25/31/81 26/32/82
