# This file uses centimeters as units for non-parametric coordinates.

mtllib track2.mtl
g default
v -42.324974 -0.500010 340.464722
v 78.307091 -0.500010 340.464722
v -42.324974 0.499990 340.464722
v 78.307091 0.499990 340.464722
v -42.324974 0.499990 280.009766
v 78.307091 0.499990 280.009766
v -42.324974 -0.500010 280.009766
v 78.307091 -0.500010 280.009766
v 0.262268 -0.500010 279.883972
v 34.304451 -0.500010 279.883972
v 0.262268 0.499990 279.883972
v 34.304451 0.499990 279.883972
v 0.262268 0.499990 138.972473
v 34.304451 0.499990 138.972473
v 0.262268 -0.500010 138.972473
v 34.304451 -0.500010 138.972473
v -93.046967 -0.500010 111.727905
v -3.863964 -0.500010 136.379089
v -93.046967 0.499990 111.727905
v -3.863964 0.499990 136.379089
v -85.914757 0.499990 82.202545
v 17.277500 0.499990 106.960144
v -85.914757 -0.500010 82.202545
v 17.277500 -0.500010 106.960144
v 34.337410 -0.500010 138.960388
v 0.310524 -0.500010 138.997253
v 34.337410 0.499990 138.960388
v 0.310524 0.499990 138.997253
v -59.195770 -0.500010 54.249756
v 82.354614 -0.500010 54.043945
v -59.195770 0.499990 54.249756
v 82.354614 0.499990 54.043945
v -61.791092 0.499990 24.835938
v 82.528702 0.499990 24.835938
v -61.791092 -0.500010 24.835938
v 82.528702 -0.500010 24.835938
v -112.876099 -0.500010 45.734985
v -85.735184 -0.500010 63.326324
v -85.735184 0.499990 63.326324
v -112.876099 0.499990 45.734985
v -126.041290 -0.500011 80.506958
v -89.873566 -0.500010 75.444092
v -89.873566 0.499990 75.444092
v -126.041290 0.499990 80.507019
v -92.912933 -0.500011 111.774353
v -85.333740 -0.500010 82.325653
v -85.333740 0.499990 82.325653
v -92.912918 0.499990 111.774353
v 98.276123 -0.500010 21.861603
v 122.619705 -0.500010 36.803284
v 98.276123 0.499990 21.861603
v 122.619705 0.499990 36.803284
v -88.378296 -0.500010 29.456055
v -75.251053 -0.500010 56.167206
v -75.251053 0.499990 56.167206
v -88.378296 0.499990 29.456055
v 101.548615 -0.500010 10.144409
v 126.039963 -0.500010 11.031860
v 101.548615 0.499990 10.144409
v 126.039963 0.499990 11.031860
v 101.549179 -0.500010 10.144287
v 126.041290 -0.500010 11.032288
v 101.549179 0.499990 10.144287
v 126.041290 0.499990 11.032288
v 95.176315 0.499990 -1.355469
v 117.139267 0.499990 -10.184479
v 95.176315 -0.500010 -1.355469
v 117.139267 -0.500010 -10.184479
v 71.599655 0.499990 -12.432434
v 80.190971 0.499990 -32.433807
v 80.190971 -0.500010 -32.433807
v 71.599655 -0.500010 -12.432434
v 8.832382 0.499990 -31.816742
v 28.633133 0.499990 -50.122925
v 28.633133 -0.500010 -50.122925
v 8.832382 -0.500010 -31.816742
v -17.245483 0.499990 -62.371521
v 14.353851 0.499990 -63.051544
v 14.353851 -0.500010 -63.051544
v -17.245483 -0.500010 -62.371521
v -17.245483 0.499990 -163.185333
v 14.353851 0.499990 -163.865356
v 14.353851 -0.500010 -163.865356
v -17.245483 -0.500010 -163.185333
v -17.245483 0.499990 -191.058258
v 14.353851 0.499990 -191.738281
v 14.353851 -0.500010 -191.738281
v -17.245483 -0.500010 -191.058258
v 62.865501 0.499990 -163.865356
v 62.865501 -0.500010 -163.865356
v 62.865501 -0.499998 -191.738281
v 62.865501 0.500002 -191.738281
v 92.015053 0.499990 -163.865356
v 92.015053 -0.500010 -163.865356
v 92.015053 -0.500010 -191.738281
v 92.015053 0.499990 -191.738281
v 62.865501 0.500011 -340.464722
v 62.865501 -0.499989 -340.464722
v 92.015053 0.500011 -340.464722
v 92.015053 -0.499989 -340.464722
vt 0.375000 0.000000
vt 0.625000 0.000000
vt 0.375000 0.250000
vt 0.625000 0.250000
vt 0.375000 0.500000
vt 0.625000 0.500000
vt 0.375000 0.750000
vt 0.625000 0.750000
vt 0.375000 1.000000
vt 0.625000 1.000000
vt 0.875000 0.000000
vt 0.875000 0.250000
vt 0.125000 0.000000
vt 0.125000 0.250000
vt 0.375000 0.000000
vt 0.625000 0.000000
vt 0.625000 0.250000
vt 0.375000 0.250000
vt 0.625000 0.500000
vt 0.375000 0.500000
vt 0.625000 0.750000
vt 0.375000 0.750000
vt 0.625000 1.000000
vt 0.375000 1.000000
vt 0.875000 0.000000
vt 0.875000 0.250000
vt 0.125000 0.000000
vt 0.125000 0.250000
vt 0.375000 0.000000
vt 0.625000 0.000000
vt 0.625000 0.250000
vt 0.375000 0.250000
vt 0.625000 0.500000
vt 0.375000 0.500000
vt 0.625000 0.750000
vt 0.375000 0.750000
vt 0.625000 1.000000
vt 0.375000 1.000000
vt 0.625000 0.000000
vt 0.875000 0.000000
vt 0.875000 0.250000
vt 0.625000 0.250000
vt 0.125000 0.000000
vt 0.125000 0.250000
vt 0.875000 0.000000
vt 0.875000 0.250000
vt 0.375000 0.000000
vt 0.625000 0.000000
vt 0.625000 0.250000
vt 0.375000 0.250000
vt 0.625000 0.500000
vt 0.375000 0.500000
vt 0.625000 0.750000
vt 0.375000 0.750000
vt 0.625000 1.000000
vt 0.375000 1.000000
vt 0.625000 0.000000
vt 0.875000 0.000000
vt 0.875000 0.250000
vt 0.625000 0.250000
vt 0.125000 0.000000
vt 0.375000 0.000000
vt 0.375000 0.250000
vt 0.125000 0.250000
vt 0.125000 0.000000
vt 0.375000 0.000000
vt 0.375000 0.000000
vt 0.125000 0.000000
vt 0.375000 0.250000
vt 0.375000 0.250000
vt 0.125000 0.250000
vt 0.125000 0.250000
vt 0.375000 0.000000
vt 0.125000 0.000000
vt 0.375000 0.250000
vt 0.125000 0.250000
vt 0.875000 0.000000
vt 0.875000 0.000000
vt 0.625000 0.000000
vt 0.875000 0.250000
vt 0.875000 0.250000
vt 0.625000 0.250000
vt 0.125000 0.000000
vt 0.125000 0.250000
vt 0.375000 0.000000
vt 0.625000 0.000000
vt 0.625000 0.250000
vt 0.375000 0.250000
vt 0.625000 0.500000
vt 0.375000 0.500000
vt 0.375000 0.500000
vt 0.625000 0.500000
vt 0.625000 0.750000
vt 0.375000 0.750000
vt 0.375000 0.750000
vt 0.625000 0.750000
vt 0.625000 1.000000
vt 0.375000 1.000000
vt 0.875000 0.000000
vt 0.875000 0.250000
vt 0.125000 0.000000
vt 0.125000 0.250000
vt 0.625000 0.500000
vt 0.375000 0.500000
vt 0.625000 0.750000
vt 0.375000 0.750000
vt 0.625000 0.500000
vt 0.375000 0.500000
vt 0.625000 0.750000
vt 0.375000 0.750000
vt 0.625000 0.500000
vt 0.375000 0.500000
vt 0.625000 0.750000
vt 0.375000 0.750000
vt 0.375000 0.500000
vt 0.625000 0.500000
vt 0.625000 0.750000
vt 0.375000 0.750000
vt 0.625000 0.500000
vt 0.625000 0.750000
vt 0.625000 0.750000
vt 0.625000 0.500000
vt 0.625000 0.500000
vt 0.625000 0.750000
vt 0.625000 0.750000
vt 0.625000 0.500000
vt 0.625000 0.750000
vt 0.625000 0.500000
vt 0.625000 0.500000
vt 0.625000 0.750000
vn 0.000000 0.000000 1.000000
vn 0.000000 0.000000 1.000000
vn 0.000000 0.000000 1.000000
vn 0.000000 0.000000 1.000000
vn 0.000000 1.000000 0.000000
vn 0.000000 1.000000 0.000000
vn 0.000000 1.000000 0.000000
vn 0.000000 1.000000 0.000000
vn 0.000000 0.000000 -1.000000
vn 0.000000 0.000000 -1.000000
vn 0.000000 0.000000 -1.000000
vn 0.000000 0.000000 -1.000000
vn 0.000000 -1.000000 0.000000
vn 0.000000 -1.000000 0.000000
vn 0.000000 -1.000000 0.000000
vn 0.000000 -1.000000 0.000000
vn 1.000000 0.000000 0.000000
vn 1.000000 0.000000 0.000000
vn 1.000000 0.000000 0.000000
vn 1.000000 0.000000 0.000000
vn -1.000000 0.000000 0.000000
vn -1.000000 0.000000 0.000000
vn -1.000000 0.000000 0.000000
vn -1.000000 0.000000 0.000000
vn 0.000000 0.000000 1.000000
vn 0.000000 0.000000 1.000000
vn 0.000000 0.000000 1.000000
vn 0.000000 0.000000 1.000000
vn 0.000000 1.000000 0.000000
vn 0.000000 1.000000 0.000000
vn 0.000000 1.000000 0.000000
vn 0.000000 1.000000 0.000000
vn 0.000000 0.000000 -1.000000
vn 0.000000 0.000000 -1.000000
vn 0.000000 0.000000 -1.000000
vn 0.000000 0.000000 -1.000000
vn 0.000000 -1.000000 0.000000
vn 0.000000 -1.000000 0.000000
vn 0.000000 -1.000000 0.000000
vn 0.000000 -1.000000 0.000000
vn 1.000000 0.000000 0.000000
vn 1.000000 0.000000 0.000000
vn 1.000000 0.000000 0.000000
vn 1.000000 0.000000 0.000000
vn -1.000000 0.000000 0.000000
vn -1.000000 0.000000 0.000000
vn -1.000000 0.000000 0.000000
vn -1.000000 0.000000 0.000000
vn -0.266421 0.000000 0.963857
vn -0.280380 0.000000 0.959889
vn -0.280380 0.000000 0.959889
vn -0.266421 0.000000 0.963857
vn 0.000000 1.000000 0.000000
vn 0.000000 1.000000 0.000000
vn 0.000000 1.000000 0.000000
vn 0.000000 1.000000 0.000000
vn 0.233297 0.000000 -0.972406
vn 0.426835 0.000000 -0.904330
vn 0.426835 0.000000 -0.904330
vn 0.233297 0.000000 -0.972406
vn 0.000000 -1.000000 0.000000
vn 0.000000 -1.000000 0.000000
vn 0.000000 -1.000000 0.000000
vn 0.000000 -1.000000 0.000000
vn 0.001083 0.000000 0.999999
vn 0.001083 0.000000 0.999999
vn 0.001083 0.000000 0.999999
vn 0.001083 0.000000 0.999999
vn -0.972042 0.000000 -0.234808
vn -0.972042 0.000000 -0.234808
vn -0.972042 0.000000 -0.234808
vn -0.972042 0.000000 -0.234808
vn 0.000000 -1.000000 0.000000
vn 0.000000 -1.000000 0.000000
vn 0.882432 0.000000 -0.470440
vn 0.882432 0.000000 -0.470440
vn 0.000000 1.000000 0.000000
vn 0.000000 1.000000 0.000000
vn -0.531328 0.000000 0.847166
vn -0.531328 0.000000 0.847166
vn 0.001454 0.000000 0.999999
vn 0.001454 0.000000 0.999999
vn 0.001454 0.000000 0.999999
vn 0.001454 0.000000 0.999999
vn 0.000000 1.000000 -0.000000
vn 0.000000 1.000000 -0.000000
vn 0.000000 1.000000 -0.000000
vn 0.000000 1.000000 -0.000000
vn 0.000000 0.000000 -1.000000
vn 0.000000 0.000000 -1.000000
vn 0.000000 0.000000 -1.000000
vn 0.000000 0.000000 -1.000000
vn 0.000000 -1.000000 0.000000
vn 0.000000 -1.000000 0.000000
vn 0.000000 -1.000000 0.000000
vn 0.000000 -1.000000 0.000000
vn 0.036212 0.000000 -0.999344
vn 0.036212 0.000000 -0.999344
vn 0.036212 0.000000 -0.999344
vn 0.036212 0.000000 -0.999344
vn 0.968440 -0.000008 0.249247
vn 0.968440 -0.000008 0.249247
vn 0.968440 -0.000008 0.249247
vn 0.968440 -0.000008 0.249247
vn 0.000000 -1.000000 -0.000000
vn 0.000000 -1.000000 -0.000000
vn 0.000000 -1.000000 0.000000
vn 0.000000 -1.000000 0.000000
vn 0.323601 0.000000 0.946194
vn 0.323601 0.000000 0.946194
vn 0.563920 0.000000 0.825830
vn 0.563920 0.000000 0.825830
vn 0.000000 1.000000 0.000000
vn 0.000000 1.000000 0.000000
vn 0.000000 1.000000 0.000000
vn 0.000000 1.000000 0.000000
vn -0.378643 0.000000 -0.925543
vn -0.378643 0.000000 -0.925543
vn -0.553454 0.000000 -0.832880
vn -0.553454 0.000000 -0.832880
vn 0.000000 -1.000000 -0.000000
vn 0.000000 -1.000000 -0.000000
vn 0.000000 -1.000000 -0.000000
vn 0.000000 -1.000000 -0.000000
vn 0.946335 0.000000 0.323186
vn 0.946335 0.000000 0.323186
vn 0.946335 0.000000 0.323186
vn 0.946335 0.000000 0.323186
vn 0.000000 1.000000 0.000000
vn 0.000000 1.000000 0.000000
vn 0.000000 1.000000 0.000000
vn 0.000000 1.000000 0.000000
vn -0.935213 0.000013 -0.354085
vn -0.935213 0.000013 -0.354085
vn -0.935213 0.000013 -0.354085
vn -0.935213 0.000013 -0.354085
vn 0.000000 -1.000000 -0.000000
vn 0.000000 -1.000000 -0.000000
vn 0.000000 -1.000000 -0.000000
vn 0.000000 -1.000000 -0.000000
vn 0.834721 0.000000 -0.550673
vn 0.834721 0.000000 -0.550673
vn 0.834721 0.000000 -0.550673
vn 0.834721 0.000000 -0.550673
vn 0.000000 1.000000 -0.000000
vn 0.000000 1.000000 -0.000000
vn 0.000000 1.000000 -0.000000
vn 0.000000 1.000000 -0.000000
vn -0.686385 -0.000016 0.727238
vn -0.686385 -0.000016 0.727238
vn -0.686385 -0.000016 0.727238
vn -0.686385 -0.000016 0.727238
vn 0.000000 -1.000000 0.000000
vn 0.000000 -1.000000 0.000000
vn 0.000000 -1.000000 0.000000
vn 0.000000 -1.000000 0.000000
vn -0.185596 0.000000 -0.982626
vn -0.185596 0.000000 -0.982626
vn -0.185596 0.000000 -0.982626
vn -0.185596 0.000000 -0.982626
vn 0.000000 1.000000 -0.000000
vn 0.000000 1.000000 -0.000000
vn 0.000000 1.000000 -0.000000
vn 0.000000 1.000000 -0.000000
vn 0.393614 0.000000 0.919276
vn 0.393614 0.000000 0.919276
vn 0.393614 0.000000 0.919276
vn 0.393614 0.000000 0.919276
vn 0.000000 -1.000000 -0.000000
vn 0.000000 -1.000000 -0.000000
vn 0.118585 0.000000 0.992944
vn 0.118585 0.000000 0.992944
vn 0.000000 1.000000 0.000000
vn 0.000000 1.000000 0.000000
vn -0.171207 0.000000 -0.985235
vn -0.171207 0.000000 -0.985235
vn 0.000000 -1.000000 -0.000000
vn 0.000000 -1.000000 -0.000000
vn 0.000000 -1.000000 -0.000000
vn 0.000000 -1.000000 -0.000000
vn -0.963141 0.000000 -0.268995
vn -0.963141 0.000000 -0.268995
vn -0.963141 0.000000 -0.268995
vn -0.963141 0.000000 -0.268995
vn 0.000000 1.000000 0.000000
vn 0.000000 1.000000 0.000000
vn 0.000000 1.000000 0.000000
vn 0.000000 1.000000 0.000000
vn 0.991308 0.000000 0.131562
vn 0.991308 0.000000 0.131562
vn 0.991308 0.000000 0.131562
vn 0.991308 0.000000 0.131562
vn -0.036233 0.000000 0.999343
vn -0.036233 0.000000 0.999343
vn -0.036233 0.000000 0.999343
vn -0.036233 0.000000 0.999343
vn 0.000000 1.000000 -0.000000
vn 0.000000 1.000000 -0.000000
vn 0.000000 1.000000 -0.000000
vn 0.000000 1.000000 -0.000000
vn -0.021515 0.000000 -0.999769
vn -0.021515 0.000000 -0.999769
vn -0.021515 0.000000 -0.999769
vn -0.021515 0.000000 -0.999769
vn 0.000000 -1.000000 0.000000
vn 0.000000 -1.000000 0.000000
vn 0.000000 -1.000000 0.000000
vn 0.000000 -1.000000 0.000000
vn 0.922122 0.000000 -0.386899
vn 0.922122 0.000000 -0.386899
vn 0.922122 0.000000 -0.386899
vn 0.922122 0.000000 -0.386899
vn -0.874670 0.000000 0.484719
vn -0.874670 0.000000 0.484719
vn -0.874670 0.000000 0.484719
vn -0.874670 0.000000 0.484719
vn 0.000000 1.000000 0.000000
vn 0.000000 1.000000 0.000000
vn 0.000000 1.000000 0.000000
vn 0.000000 1.000000 0.000000
vn 0.515865 0.000000 -0.856670
vn 0.515865 0.000000 -0.856670
vn 0.515865 0.000000 -0.856670
vn 0.515865 0.000000 -0.856670
vn 0.000000 -1.000000 0.000000
vn 0.000000 -1.000000 0.000000
vn 0.000000 -1.000000 0.000000
vn 0.000000 -1.000000 0.000000
vn -0.425233 0.000000 0.905084
vn -0.425233 0.000000 0.905084
vn -0.425233 0.000000 0.905084
vn -0.425233 0.000000 0.905084
vn 0.000000 1.000000 0.000000
vn 0.000000 1.000000 0.000000
vn 0.000000 1.000000 0.000000
vn 0.000000 1.000000 0.000000
vn 0.324524 0.000000 -0.945878
vn 0.324524 0.000000 -0.945878
vn 0.324524 0.000000 -0.945878
vn 0.324524 0.000000 -0.945878
vn 0.000000 -1.000000 0.000000
vn 0.000000 -1.000000 0.000000
vn 0.000000 -1.000000 0.000000
vn 0.000000 -1.000000 0.000000
vn -0.295077 0.000000 0.955473
vn -0.295077 0.000000 0.955473
vn -0.295077 0.000000 0.955473
vn -0.295077 0.000000 0.955473
vn 0.000000 1.000000 0.000000
vn 0.000000 1.000000 0.000000
vn 0.000000 1.000000 0.000000
vn 0.000000 1.000000 0.000000
vn 0.671178 0.000000 -0.741296
vn 0.671178 0.000000 -0.741296
vn 0.671178 0.000000 -0.741296
vn 0.671178 0.000000 -0.741296
vn 0.000000 -1.000000 -0.000000
vn 0.000000 -1.000000 -0.000000
vn 0.000000 -1.000000 -0.000000
vn 0.000000 -1.000000 -0.000000
vn -0.760632 0.000000 0.649183
vn -0.760632 0.000000 0.649183
vn -0.760632 0.000000 0.649183
vn -0.760632 0.000000 0.649183
vn 0.000000 1.000000 0.000000
vn 0.000000 1.000000 0.000000
vn 0.000000 1.000000 0.000000
vn 0.000000 1.000000 0.000000
vn 1.000000 0.000000 0.000000
vn 1.000000 0.000000 0.000000
vn 1.000000 0.000000 0.000000
vn 1.000000 0.000000 0.000000
vn 0.000000 -1.000000 0.000000
vn 0.000000 -1.000000 0.000000
vn 0.000000 -1.000000 0.000000
vn 0.000000 -1.000000 0.000000
vn -1.000000 0.000000 0.000000
vn -1.000000 0.000000 0.000000
vn -1.000000 0.000000 0.000000
vn -1.000000 0.000000 0.000000
vn 0.000000 1.000000 0.000000
vn 0.000000 1.000000 0.000000
vn 0.000000 1.000000 0.000000
vn 0.000000 1.000000 0.000000
vn 1.000000 0.000000 0.000000
vn 1.000000 0.000000 0.000000
vn 1.000000 0.000000 0.000000
vn 1.000000 0.000000 0.000000
vn 0.000000 -1.000000 0.000000
vn 0.000000 -1.000000 0.000000
vn 0.000000 -1.000000 0.000000
vn 0.000000 -1.000000 0.000000
vn -1.000000 0.000000 0.000000
vn -1.000000 0.000000 0.000000
vn -1.000000 0.000000 0.000000
vn -1.000000 0.000000 0.000000
vn 0.000000 0.000000 1.000000
vn 0.000000 0.000000 1.000000
vn 0.000000 0.000000 1.000000
vn 0.000000 0.000000 1.000000
vn 0.000000 -1.000000 -0.000000
vn 0.000000 -1.000000 -0.000000
vn 0.000000 -1.000000 -0.000000
vn 0.000000 -1.000000 -0.000000
vn -0.000000 0.000000 -1.000000
vn -0.000000 0.000000 -1.000000
vn -0.000000 0.000000 -1.000000
vn -0.000000 0.000000 -1.000000
vn -0.000000 1.000000 0.000000
vn -0.000000 1.000000 0.000000
vn -0.000000 1.000000 0.000000
vn -0.000000 1.000000 0.000000
vn 0.000000 0.000000 1.000000
vn 0.000000 0.000000 1.000000
vn 0.000000 0.000000 1.000000
vn 0.000000 0.000000 1.000000
vn -0.000000 -1.000000 -0.000000
vn -0.000000 -1.000000 -0.000000
vn -0.000000 -1.000000 -0.000000
vn -0.000000 -1.000000 -0.000000
vn 0.000000 1.000000 0.000000
vn 0.000000 1.000000 0.000000
vn 0.000000 1.000000 0.000000
vn 0.000000 1.000000 0.000000
vn -1.000000 0.000000 0.000000
vn -1.000000 0.000000 0.000000
vn -1.000000 0.000000 0.000000
vn -1.000000 0.000000 0.000000
vn 0.000000 1.000000 0.000000
vn 0.000000 1.000000 0.000000
vn 0.000000 1.000000 0.000000
vn 0.000000 1.000000 0.000000
vn 1.000000 0.000000 0.000000
vn 1.000000 0.000000 0.000000
vn 1.000000 0.000000 0.000000
vn 1.000000 0.000000 0.000000
vn -0.000000 -1.000000 -0.000000
vn -0.000000 -1.000000 -0.000000
vn -0.000000 -1.000000 -0.000000
vn -0.000000 -1.000000 -0.000000
s off
g polySurface6
usemtl initialShadingGroup
f 1/1/1 2/2/2 4/4/3 3/3/4
f 3/3/5 4/4/6 6/6/7 5/5/8
f 5/5/9 6/6/10 8/8/11 7/7/12
f 7/7/13 8/8/14 2/10/15 1/9/16
f 2/2/17 8/11/18 6/12/19 4/4/20
f 7/13/21 1/1/22 3/3/23 5/14/24
f 9/15/25 10/16/26 12/17/27 11/18/28
f 11/18/29 12/17/30 14/19/31 13/20/32
f 13/20/33 14/19/34 16/21/35 15/22/36
f 15/22/37 16/21/38 10/23/39 9/24/40
f 10/16/41 16/25/42 14/26/43 12/17/44
f 15/27/45 9/15/46 11/18/47 13/28/48
s 1
f 17/29/49 18/30/50 20/31/51 19/32/52
s 2
f 19/32/53 20/31/54 22/33/55 21/34/56
s 3
f 21/34/57 22/33/58 24/35/59 23/36/60
s 4
f 23/36/61 24/35/62 18/37/63 17/38/64
s off
f 26/39/65 25/40/66 27/41/67 28/42/68
f 23/43/69 17/29/70 19/32/71 21/44/72
s 4
f 18/30/63 24/45/62 25/40/73 26/39/74
s 3
f 24/45/59 22/46/58 27/41/75 25/40/76
s 2
f 22/46/55 20/31/54 28/42/77 27/41/78
s 1
f 20/31/51 18/30/50 26/39/79 28/42/80
s off
f 29/47/81 30/48/82 32/49/83 31/50/84
f 31/50/85 32/49/86 34/51/87 33/52/88
f 33/52/89 34/51/90 36/53/91 35/54/92
f 35/54/93 36/53/94 30/55/95 29/56/96
f 58/57/97 57/58/98 59/59/99 60/60/100
f 45/61/101 46/62/102 47/63/103 48/64/104
s 5
f 53/65/105 54/66/106 38/67/107 37/68/108
s 6
f 54/66/109 55/69/110 39/70/111 38/67/112
s 7
f 55/69/113 56/71/114 40/72/115 39/70/116
s 8
f 56/71/117 53/65/118 37/68/119 40/72/120
s off
f 37/68/121 38/67/122 42/73/123 41/74/124
f 38/67/125 39/70/126 43/75/127 42/73/128
f 39/70/129 40/72/130 44/76/131 43/75/132
f 40/72/133 37/68/134 41/74/135 44/76/136
f 41/74/137 42/73/138 46/62/139 45/61/140
f 42/73/141 43/75/142 47/63/143 46/62/144
f 43/75/145 44/76/146 48/64/147 47/63/148
f 44/76/149 41/74/150 45/61/151 48/64/152
f 30/48/153 36/77/154 49/78/155 50/79/156
f 36/77/157 34/80/158 51/81/159 49/78/160
f 34/80/161 32/49/162 52/82/163 51/81/164
f 32/49/165 30/48/166 50/79/167 52/82/168
s 5
f 35/83/169 29/47/170 54/66/106 53/65/105
s 6
f 29/47/171 31/50/172 55/69/110 54/66/109
s 7
f 31/50/173 33/84/174 56/71/114 55/69/113
s 8
f 33/84/175 35/83/176 53/65/118 56/71/117
s off
f 50/79/177 49/78/178 57/58/179 58/57/180
f 49/78/181 51/81/182 59/59/183 57/58/184
f 51/81/185 52/82/186 60/60/187 59/59/188
f 52/82/189 50/79/190 58/57/191 60/60/192
f 61/85/193 62/86/194 64/87/195 63/88/196
f 63/88/197 64/87/198 66/89/199 65/90/200
f 85/115/201 86/116/202 87/117/203 88/118/204
f 67/95/205 68/96/206 62/97/207 61/98/208
f 62/86/209 68/99/210 66/100/211 64/87/212
f 67/101/213 61/85/214 63/88/215 65/102/216
f 65/90/217 66/89/218 70/103/219 69/104/220
f 66/89/221 68/96/222 71/105/223 70/103/224
f 68/96/225 67/95/226 72/106/227 71/105/228
f 67/95/229 65/90/230 69/104/231 72/106/232
f 69/104/233 70/103/234 74/107/235 73/108/236
f 70/103/237 71/105/238 75/109/239 74/107/240
f 71/105/241 72/106/242 76/110/243 75/109/244
f 72/106/245 69/104/246 73/108/247 76/110/248
f 73/108/249 74/107/250 78/111/251 77/112/252
f 74/107/253 75/109/254 79/113/255 78/111/256
f 75/109/257 76/110/258 80/114/259 79/113/260
f 76/110/261 73/108/262 77/112/263 80/114/264
f 77/112/265 78/111/266 82/92/267 81/91/268
f 78/111/269 79/113/270 83/93/271 82/92/272
f 79/113/273 80/114/274 84/94/275 83/93/276
f 80/114/277 77/112/278 81/91/279 84/94/280
f 81/91/281 82/92/282 86/116/283 85/115/284
f 93/123/285 94/124/286 95/125/287 96/126/288
f 83/93/289 84/94/290 88/118/291 87/117/292
f 84/94/293 81/91/294 85/115/295 88/118/296
f 82/92/297 83/93/298 90/120/299 89/119/300
f 83/93/301 87/117/302 91/121/303 90/120/304
f 87/117/305 86/116/306 92/122/307 91/121/308
f 86/116/309 82/92/310 89/119/311 92/122/312
f 89/119/313 90/120/314 94/124/315 93/123/316
f 90/120/317 91/121/318 95/125/319 94/124/320
f 92/122/321 89/119/322 93/123/323 96/126/324
f 91/121/325 92/122/326 97/128/327 98/127/328
f 92/122/329 96/126/330 99/129/331 97/128/332
f 96/126/333 95/125/334 100/130/335 99/129/336
f 95/125/337 91/121/338 98/127/339 100/130/340
