# This file uses centimeters as units for non-parametric coordinates.

mtllib Track2Track2.mtl
g default
v -2.043073 -0.500000 -18.460539
v -2.043073 0.500000 -18.459974
v -2.043076 0.500000 -24.524632
v -2.043076 -0.500000 -24.524632
v -35.340591 -0.500000 -19.255007
v -35.340008 0.500000 -19.255007
v -35.340591 0.500000 -24.504986
v -35.340008 -0.500000 -24.504986
v -41.657871 -0.500000 -18.310518
v -41.657871 0.500000 -18.310518
v -43.346996 0.500000 -23.381611
v -43.346996 -0.500000 -23.381611
v -46.241451 -0.500000 -16.858408
v -46.241451 0.500000 -16.858408
v -52.718266 0.500000 -21.405022
v -52.718266 -0.500000 -21.405022
v -49.381523 -0.500000 -14.577723
v -49.381523 0.500000 -14.577723
v -57.209969 0.500000 -18.290014
v -57.209969 -0.500000 -18.290014
v -51.912594 -0.500000 -11.451921
v -51.912594 0.500000 -11.451921
v -60.778183 0.500000 -14.076904
v -60.778183 -0.500000 -14.076904
v -53.641895 -0.500000 -7.708458
v -53.642269 0.500000 -7.708458
v -63.382072 0.500000 -7.708783
v -63.381840 -0.500000 -7.708453
v -53.641895 -0.500000 5.015607
v -53.641895 0.500000 5.015607
v -63.381821 0.500000 5.015607
v -63.381821 -0.500000 5.015607
v -52.306503 -0.500000 9.310174
v -52.306503 0.500000 9.310174
v -61.824062 0.500000 10.668971
v -61.824062 -0.500000 10.668971
v -50.234970 -0.500000 13.074023
v -50.234970 0.500000 13.074023
v -59.100555 0.500000 15.699013
v -59.100555 -0.500000 15.699013
v -46.263031 -0.500000 15.959440
v -46.263031 0.500000 15.959440
v -54.091465 0.500000 19.671741
v -54.091465 -0.500000 19.671741
v -41.592415 -0.500000 17.855419
v -41.592415 0.500000 17.855419
v -48.069206 0.500000 22.402037
v -48.069206 -0.500000 22.402037
v -37.037411 -0.500000 18.617044
v -37.037411 0.500000 18.617044
v -38.726513 0.500000 24.524633
v -38.726513 -0.500000 24.524633
v -32.170593 -0.500000 18.895756
v -32.170593 0.500000 18.895756
v -32.170849 0.500000 24.145725
v -32.170570 -0.500000 24.145725
v 13.513277 -0.500000 18.895611
v 13.513023 0.500000 18.896011
v 13.513023 0.500000 24.145580
v 13.513303 -0.500000 24.145580
v 19.446657 -0.500000 17.874765
v 19.446657 0.500000 17.874765
v 21.135799 0.500000 22.945839
v 21.135799 -0.500000 22.945839
v 26.636845 -0.500000 16.364624
v 26.636845 0.500000 16.364624
v 30.624228 0.500000 21.920311
v 30.624228 -0.500000 21.920311
v 37.370525 -0.500000 12.027173
v 37.370525 0.500000 12.027173
v 43.767029 0.500000 17.172735
v 43.767029 -0.500000 17.172735
v 42.898880 -0.500000 6.251098
v 42.898880 0.500000 6.251098
v 51.691101 0.500000 9.019095
v 51.691101 -0.500000 9.019095
v 48.581615 -0.500000 -1.026022
v 48.581615 0.500000 -1.026022
v 57.649353 0.500000 0.332755
v 57.649353 -0.500000 0.332755
v 54.855869 -0.500000 -9.062099
v 54.856503 0.500000 -9.062229
v 63.382072 0.500000 -9.062229
v 63.382072 -0.500000 -9.062119
vt 0.281906 0.189364
vt 0.281904 0.190739
vt 0.364681 0.108810
vt 0.364681 0.107434
vt 0.230931 0.140291
vt 0.230935 0.138914
vt 0.313710 0.056983
vt 0.313710 0.058360
vt 0.476822 0.532357
vt 0.476819 0.530983
vt 0.442666 0.564788
vt 0.442666 0.566165
vt 0.268412 0.393691
vt 0.302569 0.359889
vt 0.233821 0.344986
vt 0.275650 0.321082
vt 0.197638 0.283718
vt 0.261110 0.287990
vt 0.194396 0.240394
vt 0.259514 0.257040
vt 0.203131 0.194783
vt 0.266603 0.223803
vt 0.358639 0.030026
vt 0.399607 0.088074
vt 0.405614 0.011745
vt 0.434933 0.074569
vt 0.457672 0.012110
vt 0.474490 0.076563
vt 0.506949 0.025724
vt 0.511266 0.088548
vt 0.566929 0.063142
vt 0.542779 0.104545
vt 0.601492 0.096846
vt 0.567341 0.130652
vt 0.840565 0.333479
vt 0.806415 0.367281
vt 0.872652 0.380688
vt 0.830823 0.404592
vt 0.910458 0.437813
vt 0.863804 0.450186
vt 0.951578 0.532066
vt 0.903278 0.532066
vt 0.947264 0.622161
vt 0.900610 0.609788
vt 0.920907 0.703648
vt 0.879078 0.679744
vt 0.871100 0.791351
vt 0.836949 0.757549
vt 0.302566 0.358509
vt 0.268416 0.392317
vt 0.275650 0.319706
vt 0.233821 0.343609
vt 0.261110 0.286614
vt 0.197638 0.282341
vt 0.259514 0.255663
vt 0.194396 0.239017
vt 0.266603 0.222426
vt 0.203131 0.193407
vt 0.399607 0.086698
vt 0.358639 0.028650
vt 0.434933 0.073192
vt 0.405614 0.010368
vt 0.474490 0.075187
vt 0.457672 0.010734
vt 0.511266 0.087171
vt 0.506949 0.024347
vt 0.542779 0.103168
vt 0.566929 0.061766
vt 0.567341 0.129275
vt 0.601494 0.095471
vt 0.806414 0.365908
vt 0.840567 0.332104
vt 0.830823 0.403215
vt 0.872652 0.379312
vt 0.863804 0.448809
vt 0.910458 0.436436
vt 0.903278 0.530689
vt 0.951578 0.530689
vt 0.900610 0.608411
vt 0.947264 0.620785
vt 0.879078 0.678368
vt 0.920907 0.702271
vt 0.836947 0.756169
vt 0.871101 0.789974
vn -0.023862 -0.000275 0.999715
vn -0.023862 -0.000275 0.999715
vn -0.023862 -0.000275 0.999715
vn -0.023862 -0.000275 0.999715
vn 0.000000 1.000000 0.000000
vn 0.000000 1.000000 0.000000
vn 0.000000 1.000000 0.000000
vn 0.000000 1.000000 0.000000
vn -0.000590 -0.000000 -1.000000
vn -0.000590 -0.000000 -1.000000
vn -0.000590 -0.000000 -1.000000
vn -0.000590 -0.000000 -1.000000
vn 0.000000 -1.000000 0.000000
vn 0.000000 -1.000000 0.000000
vn 0.000000 -1.000000 0.000000
vn 0.000000 -1.000000 0.000000
vn 0.147859 -0.000043 0.989009
vn 0.147859 -0.000043 0.989009
vn 0.214720 -0.000025 0.976676
vn 0.214720 -0.000025 0.976676
vn 0.000000 1.000000 0.000000
vn 0.000000 1.000000 0.000000
vn 0.000000 1.000000 0.000000
vn 0.000000 1.000000 0.000000
vn -0.138944 -0.000041 -0.990300
vn -0.138944 -0.000041 -0.990300
vn -0.175613 -0.000019 -0.984459
vn -0.175613 -0.000019 -0.984459
vn 0.000000 -1.000000 0.000000
vn 0.000000 -1.000000 0.000000
vn 0.000000 -1.000000 0.000000
vn 0.000000 -1.000000 0.000000
vn 0.302013 0.000000 0.953304
vn 0.302013 0.000000 0.953304
vn 0.000000 1.000000 0.000000
vn 0.000000 1.000000 0.000000
vn -0.206379 0.000000 -0.978472
vn -0.206379 0.000000 -0.978472
vn 0.000000 -1.000000 0.000000
vn 0.000000 -1.000000 0.000000
vn 0.587665 0.000000 0.809104
vn 0.587665 0.000000 0.809104
vn 0.587665 0.000000 0.809104
vn 0.587665 0.000000 0.809104
vn 0.000000 1.000000 0.000000
vn 0.000000 1.000000 0.000000
vn 0.000000 1.000000 0.000000
vn 0.000000 1.000000 0.000000
vn -0.569874 0.000000 -0.821733
vn -0.569874 0.000000 -0.821733
vn -0.569874 0.000000 -0.821733
vn -0.569874 0.000000 -0.821733
vn 0.000000 -1.000000 0.000000
vn 0.000000 -1.000000 0.000000
vn 0.000000 -1.000000 0.000000
vn 0.000000 -1.000000 0.000000
vn 0.777165 0.000000 0.629297
vn 0.777165 0.000000 0.629297
vn 0.849813 0.000087 0.527084
vn 0.849813 0.000087 0.527084
vn 0.000000 1.000000 0.000000
vn 0.000000 1.000000 0.000000
vn 0.000000 1.000000 0.000000
vn 0.000000 1.000000 0.000000
vn -0.763094 0.000000 -0.646288
vn -0.763094 0.000000 -0.646288
vn -0.863796 -0.000095 -0.503841
vn -0.863796 -0.000095 -0.503841
vn 0.000000 -1.000000 0.000000
vn 0.000000 -1.000000 0.000000
vn 0.000000 -1.000000 0.000000
vn 0.000000 -1.000000 0.000000
vn 0.994532 0.000186 0.104431
vn 0.994531 0.000186 0.104447
vn 0.000000 1.000000 0.000000
vn 0.000000 1.000000 0.000000
vn -0.990834 -0.000136 -0.135088
vn -0.990825 -0.000136 -0.135150
vn 0.000000 -1.000000 0.000000
vn 0.000000 -1.000000 0.000000
vn 0.996935 0.000139 -0.078237
vn 0.996935 0.000139 -0.078237
vn 0.000000 1.000000 0.000000
vn 0.000000 1.000000 0.000000
vn -0.996426 -0.000079 0.084468
vn -0.996426 -0.000079 0.084468
vn 0.000000 -1.000000 0.000000
vn 0.000000 -1.000000 0.000000
vn 0.954901 0.000000 -0.296926
vn 0.954901 0.000000 -0.296926
vn 0.000000 1.000000 0.000000
vn 0.000000 1.000000 0.000000
vn -0.964071 0.000000 0.265645
vn -0.964071 0.000000 0.265645
vn 0.000000 -1.000000 0.000000
vn 0.000000 -1.000000 0.000000
vn 0.876077 0.000000 -0.482172
vn 0.876077 0.000000 -0.482172
vn 0.876077 0.000000 -0.482172
vn 0.876077 0.000000 -0.482172
vn 0.000000 1.000000 0.000000
vn 0.000000 1.000000 0.000000
vn 0.000000 1.000000 0.000000
vn 0.000000 1.000000 0.000000
vn -0.879372 0.000000 0.476135
vn -0.879372 0.000000 0.476135
vn -0.879372 0.000000 0.476135
vn -0.879372 0.000000 0.476135
vn 0.000000 -1.000000 0.000000
vn 0.000000 -1.000000 0.000000
vn 0.000000 -1.000000 0.000000
vn 0.000000 -1.000000 0.000000
vn 0.587736 0.000000 -0.809052
vn 0.587736 0.000000 -0.809052
vn 0.587736 0.000000 -0.809052
vn 0.587736 0.000000 -0.809052
vn 0.000000 1.000000 0.000000
vn 0.000000 1.000000 0.000000
vn 0.000000 1.000000 0.000000
vn 0.000000 1.000000 0.000000
vn -0.621395 0.000000 0.783498
vn -0.621395 0.000000 0.783498
vn -0.621395 0.000000 0.783498
vn -0.621395 0.000000 0.783498
vn 0.000000 -1.000000 0.000000
vn 0.000000 -1.000000 0.000000
vn 0.000000 -1.000000 0.000000
vn 0.000000 -1.000000 0.000000
vn 0.376129 0.000000 -0.926568
vn 0.376129 0.000000 -0.926568
vn 0.376129 0.000000 -0.926568
vn 0.376129 0.000000 -0.926568
vn 0.000000 1.000000 0.000000
vn 0.000000 1.000000 0.000000
vn 0.000000 1.000000 0.000000
vn 0.000000 1.000000 0.000000
vn -0.412913 0.000000 0.910770
vn -0.412913 0.000000 0.910770
vn -0.412913 0.000000 0.910770
vn -0.412913 0.000000 0.910770
vn 0.000000 -1.000000 0.000000
vn 0.000000 -1.000000 0.000000
vn 0.000000 -1.000000 0.000000
vn 0.000000 -1.000000 0.000000
vn 0.164917 0.000000 -0.986308
vn 0.164917 0.000000 -0.986308
vn 0.164917 0.000000 -0.986308
vn 0.164917 0.000000 -0.986308
vn 0.000000 1.000000 0.000000
vn 0.000000 1.000000 0.000000
vn 0.000000 1.000000 0.000000
vn 0.000000 1.000000 0.000000
vn -0.221547 0.000000 0.975150
vn -0.221547 0.000000 0.975150
vn -0.221547 0.000000 0.975150
vn -0.221547 0.000000 0.975150
vn 0.000000 -1.000000 0.000000
vn 0.000000 -1.000000 0.000000
vn 0.000000 -1.000000 0.000000
vn 0.000000 -1.000000 0.000000
vn 0.057174 0.000000 -0.998364
vn 0.057174 0.000000 -0.998364
vn 0.005515 0.000181 -0.999985
vn 0.005515 0.000181 -0.999985
vn 0.000000 1.000000 0.000000
vn 0.000000 1.000000 0.000000
vn 0.000000 1.000000 0.000000
vn 0.000000 1.000000 0.000000
vn 0.057701 0.000008 0.998334
vn 0.057701 0.000008 0.998334
vn 0.007254 0.000001 0.999974
vn 0.007258 0.000001 0.999974
vn 0.000000 -1.000000 0.000000
vn 0.000000 -1.000000 0.000000
vn 0.000000 -1.000000 0.000000
vn 0.000000 -1.000000 0.000000
vn -0.019770 0.000198 -0.999805
vn -0.019783 0.000198 -0.999804
vn 0.000000 1.000000 0.000000
vn 0.000000 1.000000 0.000000
vn 0.022510 0.000003 0.999747
vn 0.022497 0.000003 0.999747
vn 0.000000 -1.000000 0.000000
vn 0.000000 -1.000000 0.000000
vn -0.189381 0.000079 -0.981904
vn -0.189381 0.000079 -0.981904
vn 0.000000 1.000000 0.000000
vn 0.000000 1.000000 0.000000
vn 0.128963 0.000010 0.991650
vn 0.128963 0.000010 0.991650
vn 0.000000 -1.000000 0.000000
vn 0.000000 -1.000000 0.000000
vn -0.205544 0.000000 -0.978648
vn -0.205544 0.000000 -0.978648
vn 0.000000 1.000000 0.000000
vn 0.000000 1.000000 0.000000
vn 0.107456 0.000000 0.994210
vn 0.107456 0.000000 0.994210
vn 0.000000 -1.000000 0.000000
vn 0.000000 -1.000000 0.000000
vn -0.374663 0.000000 -0.927161
vn -0.374663 0.000000 -0.927161
vn -0.374663 0.000000 -0.927161
vn -0.374663 0.000000 -0.927161
vn 0.000000 1.000000 0.000000
vn 0.000000 1.000000 0.000000
vn 0.000000 1.000000 0.000000
vn 0.000000 1.000000 0.000000
vn 0.339743 0.000000 0.940518
vn 0.339743 0.000000 0.940518
vn 0.339743 0.000000 0.940518
vn 0.339743 0.000000 0.940518
vn 0.000000 -1.000000 0.000000
vn 0.000000 -1.000000 0.000000
vn 0.000000 -1.000000 0.000000
vn 0.000000 -1.000000 0.000000
vn -0.722429 0.000000 -0.691446
vn -0.722429 0.000000 -0.691446
vn -0.758606 0.000000 -0.651549
vn -0.758606 0.000000 -0.651549
vn 0.000000 1.000000 0.000000
vn 0.000000 1.000000 0.000000
vn 0.000000 1.000000 0.000000
vn 0.000000 1.000000 0.000000
vn 0.717130 0.000000 0.696939
vn 0.717130 0.000000 0.696939
vn 0.771613 0.000000 0.636092
vn 0.771613 0.000000 0.636092
vn 0.000000 -1.000000 0.000000
vn 0.000000 -1.000000 0.000000
vn 0.000000 -1.000000 0.000000
vn 0.000000 -1.000000 0.000000
vn -0.788157 0.000000 -0.615475
vn -0.788157 0.000000 -0.615475
vn 0.000000 1.000000 0.000000
vn 0.000000 1.000000 0.000000
vn 0.824645 0.000000 0.565651
vn 0.824645 0.000000 0.565651
vn 0.000000 -1.000000 0.000000
vn 0.000000 -1.000000 0.000000
vn -0.788199 0.000207 -0.615421
vn -0.788199 0.000207 -0.615421
vn -0.788199 0.000207 -0.615421
vn -0.788199 0.000207 -0.615421
vn 0.000000 1.000000 0.000000
vn 0.000000 1.000000 0.000000
vn 0.000000 1.000000 0.000000
vn 0.000000 1.000000 0.000000
vn 0.853630 0.000028 0.520879
vn 0.853630 0.000028 0.520879
vn 0.853630 0.000028 0.520879
vn 0.853630 0.000028 0.520879
vn 0.000000 -1.000000 0.000000
vn 0.000000 -1.000000 0.000000
vn 0.000000 -1.000000 0.000000
vn 0.000000 -1.000000 0.000000
vn 1.000000 0.000000 -0.000001
vn 1.000000 0.000000 -0.000001
vn 1.000000 0.000000 -0.000001
vn 1.000000 0.000000 -0.000001
vn -0.000001 -0.000121 -1.000000
vn -0.000001 -0.000121 -1.000000
vn -0.000001 -0.000121 -1.000000
vn -0.000001 -0.000121 -1.000000
s off
g pCube48
usemtl lambert2SG
f 1/10/1 2/9/2 6/14/3 5/49/4
f 2/9/5 3/12/6 7/13/7 6/14/8
f 3/12/9 4/11/10 8/50/11 7/13/12
f 4/11/13 1/10/14 5/49/15 8/50/16
s 1
f 5/49/17 6/14/18 10/16/19 9/51/20
s 2
f 6/14/21 7/13/22 11/15/23 10/16/24
s 3
f 7/13/25 8/50/26 12/52/27 11/15/28
s 4
f 8/50/29 5/49/30 9/51/31 12/52/32
s 1
f 9/51/20 10/16/19 14/18/33 13/53/34
s 2
f 10/16/24 11/15/23 15/17/35 14/18/36
s 3
f 11/15/28 12/52/27 16/54/37 15/17/38
s 4
f 12/52/32 9/51/31 13/53/39 16/54/40
s off
f 13/53/41 14/18/42 18/20/43 17/55/44
f 14/18/45 15/17/46 19/19/47 18/20/48
f 15/17/49 16/54/50 20/56/51 19/19/52
f 16/54/53 13/53/54 17/55/55 20/56/56
s 5
f 17/55/57 18/20/58 22/22/59 21/57/60
s 6
f 18/20/61 19/19/62 23/21/63 22/22/64
s 7
f 19/19/65 20/56/66 24/58/67 23/21/68
s 8
f 20/56/69 17/55/70 21/57/71 24/58/72
s 5
f 21/57/60 22/22/59 26/2/73 25/1/74
s 6
f 22/22/64 23/21/63 27/5/75 26/2/76
s 7
f 23/21/68 24/58/67 28/6/77 27/5/78
s 8
f 24/58/72 21/57/71 25/1/79 28/6/80
s 5
f 25/1/74 26/2/73 30/3/81 29/4/82
s 6
f 26/2/76 27/5/75 31/8/83 30/3/84
s 7
f 27/5/78 28/6/77 32/7/85 31/8/86
s 8
f 28/6/80 25/1/79 29/4/87 32/7/88
s 5
f 29/4/82 30/3/81 34/24/89 33/59/90
s 6
f 30/3/84 31/8/83 35/23/91 34/24/92
s 7
f 31/8/86 32/7/85 36/60/93 35/23/94
s 8
f 32/7/88 29/4/87 33/59/95 36/60/96
s off
f 33/59/97 34/24/98 38/26/99 37/61/100
f 34/24/101 35/23/102 39/25/103 38/26/104
f 35/23/105 36/60/106 40/62/107 39/25/108
f 36/60/109 33/59/110 37/61/111 40/62/112
f 37/61/113 38/26/114 42/28/115 41/63/116
f 38/26/117 39/25/118 43/27/119 42/28/120
f 39/25/121 40/62/122 44/64/123 43/27/124
f 40/62/125 37/61/126 41/63/127 44/64/128
f 41/63/129 42/28/130 46/30/131 45/65/132
f 42/28/133 43/27/134 47/29/135 46/30/136
f 43/27/137 44/64/138 48/66/139 47/29/140
f 44/64/141 41/63/142 45/65/143 48/66/144
f 45/65/145 46/30/146 50/32/147 49/67/148
f 46/30/149 47/29/150 51/31/151 50/32/152
f 47/29/153 48/66/154 52/68/155 51/31/156
f 48/66/157 45/65/158 49/67/159 52/68/160
s 9
f 49/67/161 50/32/162 54/34/163 53/69/164
s 10
f 50/32/165 51/31/166 55/33/167 54/34/168
s 11
f 51/31/169 52/68/170 56/70/171 55/33/172
s 12
f 52/68/173 49/67/174 53/69/175 56/70/176
s 9
f 53/69/164 54/34/163 58/36/177 57/71/178
s 10
f 54/34/168 55/33/167 59/35/179 58/36/180
s 11
f 55/33/172 56/70/171 60/72/181 59/35/182
s 12
f 56/70/176 53/69/175 57/71/183 60/72/184
s 9
f 57/71/178 58/36/177 62/38/185 61/73/186
s 10
f 58/36/180 59/35/179 63/37/187 62/38/188
s 11
f 59/35/182 60/72/181 64/74/189 63/37/190
s 12
f 60/72/184 57/71/183 61/73/191 64/74/192
s 9
f 61/73/186 62/38/185 66/40/193 65/75/194
s 10
f 62/38/188 63/37/187 67/39/195 66/40/196
s 11
f 63/37/190 64/74/189 68/76/197 67/39/198
s 12
f 64/74/192 61/73/191 65/75/199 68/76/200
s off
f 65/75/201 66/40/202 70/42/203 69/77/204
f 66/40/205 67/39/206 71/41/207 70/42/208
f 67/39/209 68/76/210 72/78/211 71/41/212
f 68/76/213 65/75/214 69/77/215 72/78/216
s 13
f 69/77/217 70/42/218 74/44/219 73/79/220
s 14
f 70/42/221 71/41/222 75/43/223 74/44/224
s 15
f 71/41/225 72/78/226 76/80/227 75/43/228
s 16
f 72/78/229 69/77/230 73/79/231 76/80/232
s 13
f 73/79/220 74/44/219 78/46/233 77/81/234
s 14
f 74/44/224 75/43/223 79/45/235 78/46/236
s 15
f 75/43/228 76/80/227 80/82/237 79/45/238
s 16
f 76/80/232 73/79/231 77/81/239 80/82/240
s off
f 77/81/241 78/46/242 82/48/243 81/83/244
f 78/46/245 79/45/246 83/47/247 82/48/248
f 79/45/249 80/82/250 84/84/251 83/47/252
f 80/82/253 77/81/254 81/83/255 84/84/256
f 2/9/257 1/10/258 4/11/259 3/12/260
f 82/48/261 83/47/262 84/84/263 81/83/264
