# This file uses centimeters as units for non-parametric coordinates.

mtllib CarSlot.mtl
g default
v 4.426143 -1.990304 8.172701
v 4.426146 -1.990304 6.440304
v 4.426146 -1.990304 -6.798046
v 4.426143 -1.990304 -8.172699
v 4.426143 -1.706343 8.172701
v 4.426146 -1.916038 6.440304
v 4.426146 -1.916038 -6.798046
v 4.426143 -1.706343 -8.172699
v 3.054027 -1.938977 8.172701
v 3.054030 -1.706342 6.440304
v 3.054030 -1.706342 -6.798046
v 3.054027 -1.938977 -8.172699
v -3.084232 -1.938977 8.172701
v -3.084228 -1.706342 6.440304
v -3.084228 -1.706342 -6.798046
v -3.084232 -1.938977 -8.172699
v -4.426146 -1.706343 8.172701
v -4.426143 -1.916038 6.440304
v -4.426143 -1.916038 -6.798046
v -4.426146 -1.706343 -8.172699
v -4.426146 -1.990304 8.172701
v -4.426143 -1.990304 6.440304
v -4.426143 -1.990304 -6.798046
v -4.426146 -1.990304 -8.172699
v -3.084231 -1.990304 8.172701
v -3.084231 -1.990304 -8.172699
v 3.054028 -1.990304 8.172701
v 3.054028 -1.990304 -8.172699
v 2.909249 -1.796499 6.128054
v 2.909249 -1.796499 -6.485794
v -2.939446 -1.796499 -6.485794
v -2.939446 -1.796499 6.128054
v 4.375205 -1.706343 -6.849079
v 4.375205 -1.706343 -8.121662
v 3.104972 -1.706343 -8.121662
v 3.104972 -1.706343 -6.849079
v 4.303246 -1.706343 8.017530
v 4.303246 -1.706343 6.595476
v 3.176930 -1.706343 6.595476
v 3.176930 -1.706343 8.017530
v -3.178539 -1.706343 8.050945
v -3.178539 -1.706343 6.562061
v -4.331831 -1.706343 6.562061
v -4.331831 -1.706343 8.050945
v -3.156593 -1.706343 -6.872177
v -3.156593 -1.706343 -8.098568
v -4.353777 -1.706343 -8.098568
v -4.353777 -1.706343 -6.872177
v 4.303242 -1.706342 8.017530
v 4.303246 -1.706342 6.595476
v 3.176930 -1.706343 6.595476
v 3.176927 -1.706343 8.017530
v 4.303242 1.629881 8.017530
v 4.303246 1.629881 6.595476
v 3.176930 1.629881 6.595476
v 3.176927 1.629881 8.017530
v 4.177807 1.990304 7.859159
v 4.177811 1.990304 6.753847
v 3.302366 1.990304 6.753847
v 3.302362 1.990304 7.859159
v 4.375205 -1.706343 -6.849079
v 4.375201 -1.706343 -8.121662
v 3.104969 -1.706343 -8.121662
v 3.104972 -1.706343 -6.849079
v 4.375205 1.629881 -6.849079
v 4.375201 1.629881 -8.121662
v 3.104969 1.629881 -8.121662
v 3.104972 1.629881 -6.849079
v 4.225499 1.990304 -6.999065
v 4.225495 1.990304 -7.971680
v 3.254675 1.990304 -7.971680
v 3.254678 1.990304 -6.999065
v -3.156593 -1.706342 -6.872177
v -3.156596 -1.706342 -8.098568
v -4.353781 -1.706342 -8.098568
v -4.353777 -1.706342 -6.872177
v -3.156593 1.629881 -6.872177
v -3.156596 1.629881 -8.098568
v -4.353781 1.629881 -8.098568
v -4.353777 1.629881 -6.872177
v -3.304381 1.990304 -7.023571
v -3.304385 1.990304 -7.947174
v -4.205994 1.990304 -7.947174
v -4.205990 1.990304 -7.023571
v -3.178543 -1.706343 8.050945
v -3.178539 -1.706343 6.562061
v -4.331831 -1.706342 6.562061
v -4.331835 -1.706342 8.050945
v -3.178543 1.629881 8.050945
v -3.178539 1.629881 6.562061
v -4.331831 1.629881 6.562061
v -4.331835 1.629881 8.050945
v -3.306982 1.990304 7.885132
v -3.306979 1.990304 6.727875
v -4.203392 1.990304 6.727875
v -4.203396 1.990304 7.885132
vt 0.423652 0.019198
vt 0.423652 0.096366
vt 0.426960 0.096366
vt 0.436301 0.019198
vt 0.423652 0.686056
vt 0.426960 0.686056
vt 0.423652 0.747288
vt 0.436301 0.747288
vt 0.417406 0.096366
vt 0.417406 0.686056
vt 0.356286 0.686056
vt 0.356286 0.096366
vt 0.356286 0.019198
vt 0.082864 0.096366
vt 0.082864 0.019198
vt 0.349837 0.110275
vt 0.349837 0.672147
vt 0.089313 0.672147
vt 0.089313 0.110275
vt 0.356286 0.747288
vt 0.082864 0.747288
vt 0.082864 0.686056
vt 0.023089 0.686056
vt 0.023089 0.096366
vt 0.437222 0.019198
vt 0.427882 0.096366
vt 0.424574 0.096366
vt 0.424574 0.019198
vt 0.427882 0.686056
vt 0.424574 0.686056
vt 0.437222 0.747288
vt 0.424574 0.747288
vt 0.630150 0.626933
vt 0.630150 0.729204
vt 0.651791 0.729204
vt 0.634062 0.626933
vt 0.630150 0.159121
vt 0.634062 0.159121
vt 0.630150 0.054548
vt 0.651791 0.054548
vt 0.630069 0.727699
vt 0.630069 0.625428
vt 0.633980 0.625428
vt 0.651710 0.727699
vt 0.630069 0.157616
vt 0.633980 0.157616
vt 0.630069 0.053044
vt 0.651710 0.053044
vt 0.436301 0.089454
vt 0.436301 0.026110
vt 0.361761 0.089454
vt 0.411932 0.089454
vt 0.663295 0.761642
vt 0.586127 0.751280
vt 0.593038 0.761642
vt 0.656383 0.761642
vt 0.651710 0.062410
vt 0.651710 0.148250
vt 0.436301 0.745015
vt 0.436301 0.688329
vt 0.651791 0.155238
vt 0.651791 0.058431
vt 0.594958 0.751280
vt 0.656191 0.761642
vt 0.653917 0.761642
vt 0.597231 0.761642
vt 0.655813 0.760621
vt 0.594694 0.751280
vt 0.596963 0.760621
vt 0.653544 0.760621
vt 0.586721 0.751280
vt 0.663889 0.761642
vt 0.658466 0.761642
vt 0.592145 0.761642
vt 0.027290 0.090943
vt 0.078663 0.090943
vt 0.437222 0.024622
vt 0.437222 0.090943
vt 0.651710 0.632616
vt 0.651710 0.720511
vt 0.655856 0.761642
vt 0.594624 0.751280
vt 0.597926 0.761642
vt 0.652554 0.761642
vt 0.651791 0.723688
vt 0.651791 0.632448
vt 0.437222 0.689358
vt 0.437222 0.743986
vt 0.079640 0.689358
vt 0.026313 0.689358
vt 0.226622 0.751280
vt 0.226622 0.800515
vt 0.187626 0.800515
vt 0.187626 0.751280
vt 0.436301 0.026110
vt 0.436301 0.089454
vt 0.584910 0.089454
vt 0.584910 0.026110
vt 0.649649 0.761765
vt 0.599478 0.761765
vt 0.599478 0.910374
vt 0.649649 0.910374
vt 0.656383 0.761642
vt 0.593038 0.761642
vt 0.593038 0.910251
vt 0.656383 0.910251
vt 0.651710 0.148250
vt 0.651710 0.062410
vt 0.905972 0.062410
vt 0.905972 0.148250
vt 0.600964 0.082400
vt 0.600964 0.033165
vt 0.605065 0.926429
vt 0.644061 0.926429
vt 0.600093 0.926306
vt 0.649328 0.926306
vt 0.933441 0.071970
vt 0.933441 0.138690
vt 0.181491 0.751280
vt 0.181491 0.794604
vt 0.138246 0.794604
vt 0.138246 0.751280
vt 0.436301 0.688329
vt 0.436301 0.745015
vt 0.584910 0.745015
vt 0.584910 0.688329
vt 0.651791 0.058431
vt 0.651791 0.155238
vt 0.906053 0.155238
vt 0.906053 0.058431
vt 0.597231 0.761642
vt 0.653917 0.761642
vt 0.653917 0.910251
vt 0.597231 0.910251
vt 0.653544 0.760621
vt 0.596963 0.760621
vt 0.596963 0.909230
vt 0.653544 0.909230
vt 0.600964 0.738334
vt 0.600964 0.695010
vt 0.933522 0.143829
vt 0.933522 0.069840
vt 0.647237 0.926306
vt 0.603912 0.926306
vt 0.603631 0.925284
vt 0.646876 0.925284
vt 0.132111 0.751280
vt 0.132111 0.792421
vt 0.091950 0.792421
vt 0.091950 0.751280
vt 0.652554 0.761642
vt 0.597926 0.761642
vt 0.597926 0.910251
vt 0.652554 0.910251
vt 0.651791 0.632448
vt 0.651791 0.723688
vt 0.906053 0.723688
vt 0.906053 0.632448
vt 0.437222 0.743986
vt 0.437222 0.689358
vt 0.585831 0.689358
vt 0.585831 0.743986
vt 0.597468 0.761765
vt 0.650795 0.761765
vt 0.650795 0.910374
vt 0.597468 0.910374
vt 0.604670 0.926306
vt 0.645811 0.926306
vt 0.933522 0.712425
vt 0.933522 0.643711
vt 0.601886 0.696101
vt 0.601886 0.737243
vt 0.644212 0.926429
vt 0.604051 0.926429
vt 0.272687 0.751280
vt 0.272687 0.802829
vt 0.232757 0.802829
vt 0.232757 0.751280
vt 0.592145 0.761642
vt 0.658466 0.761642
vt 0.658466 0.910251
vt 0.592145 0.910251
vt 0.649912 0.761765
vt 0.598540 0.761765
vt 0.598540 0.910374
vt 0.649912 0.910374
vt 0.437222 0.090943
vt 0.437222 0.024622
vt 0.585831 0.024622
vt 0.585831 0.090943
vt 0.651710 0.720511
vt 0.651710 0.632616
vt 0.905972 0.632616
vt 0.905972 0.720511
vt 0.651080 0.926306
vt 0.599531 0.926306
vt 0.604261 0.926429
vt 0.644191 0.926429
vt 0.601886 0.032008
vt 0.601886 0.083557
vt 0.933441 0.642405
vt 0.933441 0.710722
vn 1.000000 0.000000 0.000002
vn 1.000000 0.000000 0.000000
vn 1.000000 0.000000 0.000000
vn 1.000000 0.000000 0.000002
vn 1.000000 0.000000 -0.000000
vn 1.000000 0.000000 -0.000000
vn 1.000000 0.000000 -0.000002
vn 1.000000 0.000000 -0.000002
vn 0.151072 0.988523 0.000000
vn 0.151072 0.988523 0.000000
vn 0.151072 0.988523 0.000000
vn 0.151072 0.988523 0.000000
vn 0.000000 0.991104 0.133090
vn 0.000000 0.991104 0.133090
vn 0.000000 0.991104 0.133090
vn 0.000000 0.991104 0.133090
vn 0.000000 1.000000 0.000000
vn 0.000000 1.000000 0.000000
vn 0.000000 1.000000 0.000000
vn 0.000000 1.000000 0.000000
vn 0.000000 0.985981 -0.166859
vn 0.000000 0.985981 -0.166859
vn 0.000000 0.985981 -0.166859
vn 0.000000 0.985981 -0.166859
vn -0.154392 0.988010 0.000000
vn -0.154392 0.988010 0.000000
vn -0.154392 0.988010 0.000000
vn -0.154392 0.988010 0.000000
vn -1.000000 0.000000 -0.000002
vn -1.000000 0.000000 -0.000000
vn -1.000000 0.000000 -0.000000
vn -1.000000 0.000000 -0.000002
vn -1.000000 0.000000 0.000000
vn -1.000000 0.000000 0.000000
vn -1.000000 0.000000 0.000002
vn -1.000000 0.000000 0.000002
vn 0.000000 0.000000 -1.000000
vn 0.000000 0.000000 -1.000000
vn 0.000000 0.000000 -1.000000
vn 0.000000 0.000000 -1.000000
vn 0.000000 0.000000 -1.000000
vn 0.000000 0.000000 -1.000000
vn 0.000000 0.000000 -1.000000
vn 0.000000 0.000000 -1.000000
vn 0.000000 0.000000 1.000000
vn 0.000000 0.000000 1.000000
vn 0.000000 0.000000 1.000000
vn 0.000000 0.000000 1.000000
vn 0.000000 0.000000 1.000000
vn 0.000000 0.000000 1.000000
vn 0.000000 0.000000 1.000000
vn 0.000000 0.000000 1.000000
vn 0.648198 0.759795 -0.050507
vn 0.648198 0.759795 -0.050507
vn 0.648198 0.759795 -0.050508
vn 0.648198 0.759795 -0.050508
vn 0.069376 0.826589 -0.558514
vn 0.069376 0.826589 -0.558514
vn 0.069376 0.826589 -0.558514
vn 0.069376 0.826589 -0.558514
vn -0.686398 0.725256 0.053485
vn -0.686398 0.725256 0.053485
vn -0.686398 0.725256 0.053485
vn -0.686398 0.725256 0.053486
vn -0.074298 0.797939 0.598141
vn -0.074298 0.797939 0.598141
vn -0.074298 0.797939 0.598141
vn -0.074298 0.797939 0.598141
vn 0.898926 0.436732 0.034594
vn 0.898926 0.436732 0.034594
vn 0.898926 0.436732 0.034594
vn 0.898926 0.436732 0.034594
vn -0.035352 0.401547 -0.915156
vn -0.035352 0.401547 -0.915156
vn -0.035352 0.401547 -0.915156
vn -0.035352 0.401547 -0.915156
vn -0.915429 0.400934 -0.035232
vn -0.915429 0.400934 -0.035232
vn -0.915429 0.400934 -0.035232
vn -0.915429 0.400934 -0.035232
vn 0.034710 0.437383 0.898605
vn 0.034710 0.437383 0.898605
vn 0.034710 0.437383 0.898605
vn 0.034710 0.437383 0.898605
vn 0.775961 0.629143 0.045436
vn 0.775961 0.629143 0.045436
vn 0.775961 0.629143 0.045436
vn 0.775961 0.629143 0.045436
vn -0.063553 0.756234 -0.651207
vn -0.063553 0.756234 -0.651207
vn -0.063553 0.756234 -0.651207
vn -0.063553 0.756234 -0.651207
vn -0.742766 0.668137 -0.043494
vn -0.742766 0.668137 -0.043494
vn -0.742766 0.668137 -0.043494
vn -0.742766 0.668137 -0.043494
vn 0.067261 0.721432 0.689211
vn 0.067261 0.721432 0.689211
vn 0.067261 0.721432 0.689211
vn 0.067261 0.721432 0.689211
vn 0.848150 0.527650 -0.047194
vn 0.848150 0.527650 -0.047194
vn 0.848150 0.527650 -0.047194
vn 0.848150 0.527650 -0.047194
vn 0.049181 0.536796 -0.842277
vn 0.049181 0.536796 -0.842277
vn 0.049181 0.536796 -0.842277
vn 0.049181 0.536796 -0.842277
vn -0.822138 0.567448 0.045749
vn -0.822138 0.567448 0.045749
vn -0.822138 0.567448 0.045749
vn -0.822137 0.567448 0.045749
vn -0.047625 0.576657 0.815597
vn -0.047625 0.576657 0.815597
vn -0.047625 0.576657 0.815597
vn -0.047625 0.576657 0.815597
vn -0.528599 0.848872 0.000000
vn -0.528599 0.848872 0.000000
vn -0.528599 0.848872 0.000000
vn -0.528599 0.848872 0.000000
vn 0.000000 0.960755 0.277399
vn 0.000000 0.960755 0.277399
vn 0.000000 0.960755 0.277399
vn 0.000000 0.960755 0.277399
vn 0.528597 0.848873 0.000000
vn 0.528597 0.848873 0.000000
vn 0.528597 0.848873 0.000000
vn 0.528597 0.848873 0.000000
vn 0.000000 0.960754 -0.277401
vn 0.000000 0.960754 -0.277401
vn 0.000000 0.960754 -0.277401
vn 0.000000 0.960754 -0.277401
vn 0.000000 1.000000 0.000000
vn 0.000000 1.000000 0.000000
vn 0.000000 1.000000 0.000000
vn 0.000000 1.000000 0.000000
vn 1.000000 0.000000 0.000003
vn 1.000000 0.000000 0.000003
vn 1.000000 0.000000 0.000003
vn 1.000000 0.000000 0.000003
vn 0.000000 0.000000 -1.000000
vn 0.000000 0.000000 -1.000000
vn 0.000000 0.000000 -1.000000
vn 0.000000 0.000000 -1.000000
vn -1.000000 0.000000 -0.000003
vn -1.000000 0.000000 -0.000003
vn -1.000000 0.000000 -0.000003
vn -1.000000 0.000000 -0.000003
vn 0.000000 0.000000 1.000000
vn 0.000000 0.000000 1.000000
vn 0.000000 0.000000 1.000000
vn 0.000000 0.000000 1.000000
vn 0.944439 0.328686 0.000003
vn 0.944439 0.328686 0.000003
vn 0.944439 0.328686 0.000003
vn 0.944439 0.328686 0.000003
vn 0.000000 0.402281 -0.915516
vn 0.000000 0.402281 -0.915516
vn 0.000000 0.402281 -0.915516
vn 0.000000 0.402281 -0.915516
vn -0.944439 0.328687 -0.000003
vn -0.944439 0.328687 -0.000003
vn -0.944439 0.328687 -0.000003
vn -0.944439 0.328687 -0.000003
vn 0.000000 0.402281 0.915516
vn 0.000000 0.402281 0.915516
vn 0.000000 0.402281 0.915516
vn 0.000000 0.402281 0.915516
vn -0.000000 1.000000 0.000000
vn -0.000000 1.000000 0.000000
vn -0.000000 1.000000 0.000000
vn -0.000000 1.000000 0.000000
vn 1.000000 0.000000 -0.000003
vn 1.000000 0.000000 -0.000003
vn 1.000000 0.000000 -0.000003
vn 1.000000 0.000000 -0.000003
vn 0.000000 0.000000 -1.000000
vn 0.000000 0.000000 -1.000000
vn 0.000000 0.000000 -1.000000
vn 0.000000 0.000000 -1.000000
vn -1.000000 0.000000 0.000003
vn -1.000000 0.000000 0.000003
vn -1.000000 0.000000 0.000003
vn -1.000000 0.000000 0.000003
vn 0.000000 0.000000 1.000000
vn 0.000000 0.000000 1.000000
vn 0.000000 0.000000 1.000000
vn 0.000000 0.000000 1.000000
vn 0.923504 0.383589 -0.000003
vn 0.923504 0.383589 -0.000003
vn 0.923504 0.383589 -0.000003
vn 0.923504 0.383589 -0.000003
vn 0.000000 0.384193 -0.923253
vn 0.000000 0.384193 -0.923253
vn 0.000000 0.384193 -0.923253
vn 0.000000 0.384193 -0.923253
vn -0.923504 0.383589 0.000003
vn -0.923504 0.383589 0.000003
vn -0.923504 0.383589 0.000003
vn -0.923504 0.383589 0.000003
vn 0.000000 0.384201 0.923249
vn 0.000000 0.384201 0.923250
vn 0.000000 0.384201 0.923250
vn 0.000000 0.384201 0.923250
vn 0.000000 1.000000 0.000000
vn 0.000000 1.000000 0.000000
vn 0.000000 1.000000 0.000000
vn 0.000000 1.000000 0.000000
vn 1.000000 0.000000 -0.000003
vn 1.000000 0.000000 -0.000003
vn 1.000000 0.000000 -0.000003
vn 1.000000 0.000000 -0.000003
vn 0.000000 0.000000 -1.000000
vn 0.000000 0.000000 -1.000000
vn 0.000000 0.000000 -1.000000
vn 0.000000 0.000000 -1.000000
vn -1.000000 0.000000 0.000003
vn -1.000000 0.000000 0.000003
vn -1.000000 0.000000 0.000003
vn -1.000000 0.000000 0.000003
vn 0.000000 0.000000 1.000000
vn 0.000000 0.000000 1.000000
vn 0.000000 0.000000 1.000000
vn 0.000000 0.000000 1.000000
vn 0.925239 0.379386 -0.000003
vn 0.925239 0.379386 -0.000003
vn 0.925239 0.379386 -0.000003
vn 0.925239 0.379386 -0.000003
vn 0.000000 0.387268 -0.921967
vn 0.000000 0.387268 -0.921967
vn 0.000000 0.387268 -0.921967
vn 0.000000 0.387268 -0.921967
vn -0.925240 0.379384 0.000003
vn -0.925240 0.379384 0.000003
vn -0.925240 0.379384 0.000003
vn -0.925240 0.379384 0.000003
vn 0.000000 0.387268 0.921967
vn 0.000000 0.387268 0.921967
vn 0.000000 0.387268 0.921967
vn 0.000000 0.387268 0.921967
vn 0.000000 1.000000 0.000000
vn 0.000000 1.000000 0.000000
vn 0.000000 1.000000 0.000000
vn 0.000000 1.000000 0.000000
vn 1.000000 0.000000 0.000002
vn 1.000000 0.000000 0.000002
vn 1.000000 0.000000 0.000002
vn 1.000000 0.000000 0.000002
vn 0.000000 0.000000 -1.000000
vn 0.000000 0.000000 -1.000000
vn 0.000000 0.000000 -1.000000
vn 0.000000 0.000000 -1.000000
vn -1.000000 0.000000 -0.000003
vn -1.000000 0.000000 -0.000003
vn -1.000000 0.000000 -0.000003
vn -1.000000 0.000000 -0.000003
vn 0.000000 0.000000 1.000000
vn 0.000000 0.000000 1.000000
vn 0.000000 0.000000 1.000000
vn 0.000000 0.000000 1.000000
vn 0.941975 0.335682 0.000003
vn 0.941976 0.335682 0.000003
vn 0.941976 0.335682 0.000003
vn 0.941976 0.335682 0.000003
vn 0.000000 0.417945 -0.908472
vn 0.000000 0.417945 -0.908472
vn 0.000000 0.417945 -0.908472
vn 0.000000 0.417945 -0.908472
vn -0.941977 0.335678 -0.000003
vn -0.941977 0.335678 -0.000003
vn -0.941977 0.335678 -0.000003
vn -0.941977 0.335678 -0.000003
vn 0.000000 0.417945 0.908472
vn 0.000000 0.417945 0.908472
vn 0.000000 0.417945 0.908472
vn 0.000000 0.417945 0.908472
s 1
g polySurface101
usemtl SP2Garage:lambert3SG
f 1/1/1 2/2/2 6/3/3 5/4/4
f 2/2/2 3/5/5 7/6/6 6/3/3
f 3/5/5 4/7/7 8/8/8 7/6/6
s off
f 6/9/9 7/10/10 11/11/11 10/12/12
f 9/13/13 10/12/14 14/14/15 13/15/16
f 29/16/17 30/17/18 31/18/19 32/19/20
f 11/11/21 12/20/22 16/21/23 15/22/24
f 14/14/25 15/22/26 19/23/27 18/24/28
s 2
f 17/25/29 18/26/30 22/27/31 21/28/32
f 18/26/30 19/29/33 23/30/34 22/27/31
f 19/29/33 20/31/35 24/32/36 23/30/34
s 3
f 26/33/37 24/34/38 20/35/39 16/36/40
f 28/37/41 26/33/37 16/36/40 12/38/42
f 4/39/43 28/37/41 12/38/42 8/40/44
s 4
f 21/41/45 25/42/46 13/43/47 17/44/48
f 25/42/46 27/45/49 9/46/50 13/43/47
f 27/45/49 1/47/51 5/48/52 9/46/50
s off
f 5/4/53 6/3/54 38/49/55 37/50/56
f 6/9/57 10/12/58 39/51/59 38/52/60
f 10/53/61 9/54/62 40/55/63 39/56/64
f 9/46/65 5/48/66 37/57/67 40/58/68
f 7/6/69 8/8/70 34/59/71 33/60/72
f 8/40/73 12/38/74 35/61/75 34/62/76
f 12/63/77 11/64/78 36/65/79 35/66/80
f 11/67/81 7/68/82 33/69/83 36/70/84
f 13/71/85 14/72/86 42/73/87 41/74/88
f 14/14/89 18/24/90 43/75/91 42/76/92
f 18/26/93 17/25/94 44/77/95 43/78/96
f 17/44/97 13/43/98 41/79/99 44/80/100
f 15/81/101 16/82/102 46/83/103 45/84/104
f 16/36/105 20/35/106 47/85/107 46/86/108
f 20/31/109 19/29/110 48/87/111 47/88/112
f 19/23/113 15/22/114 45/89/115 48/90/116
f 10/12/117 11/11/118 30/17/119 29/16/120
f 11/11/121 15/22/122 31/18/123 30/17/124
f 15/22/125 14/14/126 32/19/127 31/18/128
f 14/14/129 10/12/130 29/16/131 32/19/132
f 57/91/133 58/92/134 59/93/135 60/94/136
f 49/95/137 50/96/138 54/97/139 53/98/140
f 50/99/141 51/100/142 55/101/143 54/102/144
f 51/103/145 52/104/146 56/105/147 55/106/148
f 52/107/149 49/108/150 53/109/151 56/110/152
f 53/98/153 54/97/154 58/111/155 57/112/156
f 54/102/157 55/101/158 59/113/159 58/114/160
f 55/106/161 56/105/162 60/115/163 59/116/164
f 56/110/165 53/109/166 57/117/167 60/118/168
f 69/119/169 70/120/170 71/121/171 72/122/172
f 61/123/173 62/124/174 66/125/175 65/126/176
f 62/127/177 63/128/178 67/129/179 66/130/180
f 63/131/181 64/132/182 68/133/183 67/134/184
f 64/135/185 61/136/186 65/137/187 68/138/188
f 65/126/189 66/125/190 70/139/191 69/140/192
f 66/130/193 67/129/194 71/141/195 70/142/196
f 67/134/197 68/133/198 72/143/199 71/144/200
f 68/138/201 65/137/202 69/145/203 72/146/204
f 81/147/205 82/148/206 83/149/207 84/150/208
f 73/151/209 74/152/210 78/153/211 77/154/212
f 74/155/213 75/156/214 79/157/215 78/158/216
f 75/159/217 76/160/218 80/161/219 79/162/220
f 76/163/221 73/164/222 77/165/223 80/166/224
f 77/154/225 78/153/226 82/167/227 81/168/228
f 78/158/229 79/157/230 83/169/231 82/170/232
f 79/162/233 80/161/234 84/171/235 83/172/236
f 80/166/237 77/165/238 81/173/239 84/174/240
f 93/175/241 94/176/242 95/177/243 96/178/244
f 85/179/245 86/180/246 90/181/247 89/182/248
f 86/183/249 87/184/250 91/185/251 90/186/252
f 87/187/253 88/188/254 92/189/255 91/190/256
f 88/191/257 85/192/258 89/193/259 92/194/260
f 89/182/261 90/181/262 94/195/263 93/196/264
f 90/186/265 91/185/266 95/197/267 94/198/268
f 91/190/269 92/189/270 96/199/271 95/200/272
f 92/194/273 89/193/274 93/201/275 96/202/276
